<?xml version="1.0" encoding="utf-8" standalone="no"?>
<!DOCTYPE svg PUBLIC "-//W3C//DTD SVG 1.1//EN"
  "http://www.w3.org/Graphics/SVG/1.1/DTD/svg11.dtd">
<!-- Created with matplotlib (http://matplotlib.org/) -->
<svg height="501pt" version="1.1" viewBox="0 0 707 501" width="707pt" xmlns="http://www.w3.org/2000/svg" xmlns:xlink="http://www.w3.org/1999/xlink">
 <defs>
  <style type="text/css">
*{stroke-linecap:butt;stroke-linejoin:round;}
  </style>
 </defs>
 <g id="figure_1">
  <g id="patch_1">
   <path d="M 0 501.865012 
L 707.027187 501.865012 
L 707.027187 0 
L 0 0 
z
" style="fill:none;"/>
  </g>
  <g id="axes_1">
   <g id="patch_2">
    <path d="M 40.967188 462.7572 
L 693.827188 462.7572 
L 693.827188 13.2 
L 40.967188 13.2 
z
" style="fill:#ffffff;"/>
   </g>
   <g id="matplotlib.axis_1">
    <g id="xtick_1">
     <g id="line2d_1">
      <defs>
       <path d="M 0 0 
L 0 6 
" id="m4715a040cc" style="stroke:#262626;stroke-width:0.8;"/>
      </defs>
      <g>
       <use style="fill:#262626;stroke:#262626;stroke-width:0.8;" x="122.574688" xlink:href="#m4715a040cc" y="462.7572"/>
      </g>
     </g>
     <g id="text_1">
      <!-- Thur -->
      <defs>
       <path d="M 25.921875 0 
L 25.921875 63.140625 
L 2.34375 63.140625 
L 2.34375 71.578125 
L 59.078125 71.578125 
L 59.078125 63.140625 
L 35.40625 63.140625 
L 35.40625 0 
z
" id="ArialMT-54"/>
       <path d="M 6.59375 0 
L 6.59375 71.578125 
L 15.375 71.578125 
L 15.375 45.90625 
Q 21.53125 53.03125 30.90625 53.03125 
Q 36.671875 53.03125 40.921875 50.75 
Q 45.171875 48.484375 47 44.484375 
Q 48.828125 40.484375 48.828125 32.859375 
L 48.828125 0 
L 40.046875 0 
L 40.046875 32.859375 
Q 40.046875 39.453125 37.1875 42.453125 
Q 34.328125 45.453125 29.109375 45.453125 
Q 25.203125 45.453125 21.75 43.421875 
Q 18.3125 41.40625 16.84375 37.9375 
Q 15.375 34.46875 15.375 28.375 
L 15.375 0 
z
" id="ArialMT-68"/>
       <path d="M 40.578125 0 
L 40.578125 7.625 
Q 34.515625 -1.171875 24.125 -1.171875 
Q 19.53125 -1.171875 15.546875 0.578125 
Q 11.578125 2.34375 9.640625 5 
Q 7.71875 7.671875 6.9375 11.53125 
Q 6.390625 14.109375 6.390625 19.734375 
L 6.390625 51.859375 
L 15.1875 51.859375 
L 15.1875 23.09375 
Q 15.1875 16.21875 15.71875 13.8125 
Q 16.546875 10.359375 19.234375 8.375 
Q 21.921875 6.390625 25.875 6.390625 
Q 29.828125 6.390625 33.296875 8.421875 
Q 36.765625 10.453125 38.203125 13.9375 
Q 39.65625 17.4375 39.65625 24.078125 
L 39.65625 51.859375 
L 48.4375 51.859375 
L 48.4375 0 
z
" id="ArialMT-75"/>
       <path d="M 6.5 0 
L 6.5 51.859375 
L 14.40625 51.859375 
L 14.40625 44 
Q 17.4375 49.515625 20 51.265625 
Q 22.5625 53.03125 25.640625 53.03125 
Q 30.078125 53.03125 34.671875 50.203125 
L 31.640625 42.046875 
Q 28.421875 43.953125 25.203125 43.953125 
Q 22.3125 43.953125 20.015625 42.21875 
Q 17.71875 40.484375 16.75 37.40625 
Q 15.28125 32.71875 15.28125 27.15625 
L 15.28125 0 
z
" id="ArialMT-72"/>
      </defs>
      <g style="fill:#262626;" transform="translate(112.295 479.415012)scale(0.1 -0.1)">
       <use xlink:href="#ArialMT-54"/>
       <use x="61.083984" xlink:href="#ArialMT-68"/>
       <use x="116.699219" xlink:href="#ArialMT-75"/>
       <use x="172.314453" xlink:href="#ArialMT-72"/>
      </g>
     </g>
    </g>
    <g id="xtick_2">
     <g id="line2d_2">
      <g>
       <use style="fill:#262626;stroke:#262626;stroke-width:0.8;" x="285.789688" xlink:href="#m4715a040cc" y="462.7572"/>
      </g>
     </g>
     <g id="text_2">
      <!-- Fri -->
      <defs>
       <path d="M 8.203125 0 
L 8.203125 71.578125 
L 56.5 71.578125 
L 56.5 63.140625 
L 17.671875 63.140625 
L 17.671875 40.96875 
L 51.265625 40.96875 
L 51.265625 32.515625 
L 17.671875 32.515625 
L 17.671875 0 
z
" id="ArialMT-46"/>
       <path d="M 6.640625 61.46875 
L 6.640625 71.578125 
L 15.4375 71.578125 
L 15.4375 61.46875 
z
M 6.640625 0 
L 6.640625 51.859375 
L 15.4375 51.859375 
L 15.4375 0 
z
" id="ArialMT-69"/>
      </defs>
      <g style="fill:#262626;" transform="translate(279.96 479.415012)scale(0.1 -0.1)">
       <use xlink:href="#ArialMT-46"/>
       <use x="61.083984" xlink:href="#ArialMT-72"/>
       <use x="94.384766" xlink:href="#ArialMT-69"/>
      </g>
     </g>
    </g>
    <g id="xtick_3">
     <g id="line2d_3">
      <g>
       <use style="fill:#262626;stroke:#262626;stroke-width:0.8;" x="449.004688" xlink:href="#m4715a040cc" y="462.7572"/>
      </g>
     </g>
     <g id="text_3">
      <!-- Sat -->
      <defs>
       <path d="M 4.5 23 
L 13.421875 23.78125 
Q 14.0625 18.40625 16.375 14.96875 
Q 18.703125 11.53125 23.578125 9.40625 
Q 28.46875 7.28125 34.578125 7.28125 
Q 39.984375 7.28125 44.140625 8.890625 
Q 48.296875 10.5 50.3125 13.296875 
Q 52.34375 16.109375 52.34375 19.4375 
Q 52.34375 22.796875 50.390625 25.3125 
Q 48.4375 27.828125 43.953125 29.546875 
Q 41.0625 30.671875 31.203125 33.03125 
Q 21.34375 35.40625 17.390625 37.5 
Q 12.25 40.1875 9.734375 44.15625 
Q 7.234375 48.140625 7.234375 53.078125 
Q 7.234375 58.5 10.296875 63.203125 
Q 13.375 67.921875 19.28125 70.359375 
Q 25.203125 72.796875 32.421875 72.796875 
Q 40.375 72.796875 46.453125 70.234375 
Q 52.546875 67.671875 55.8125 62.6875 
Q 59.078125 57.71875 59.328125 51.421875 
L 50.25 50.734375 
Q 49.515625 57.515625 45.28125 60.984375 
Q 41.0625 64.453125 32.8125 64.453125 
Q 24.21875 64.453125 20.28125 61.296875 
Q 16.359375 58.15625 16.359375 53.71875 
Q 16.359375 49.859375 19.140625 47.359375 
Q 21.875 44.875 33.421875 42.265625 
Q 44.96875 39.65625 49.265625 37.703125 
Q 55.515625 34.8125 58.484375 30.390625 
Q 61.46875 25.984375 61.46875 20.21875 
Q 61.46875 14.5 58.203125 9.4375 
Q 54.9375 4.390625 48.796875 1.578125 
Q 42.671875 -1.21875 35.015625 -1.21875 
Q 25.296875 -1.21875 18.71875 1.609375 
Q 12.15625 4.4375 8.421875 10.125 
Q 4.6875 15.828125 4.5 23 
z
" id="ArialMT-53"/>
       <path d="M 40.4375 6.390625 
Q 35.546875 2.25 31.03125 0.53125 
Q 26.515625 -1.171875 21.34375 -1.171875 
Q 12.796875 -1.171875 8.203125 3 
Q 3.609375 7.171875 3.609375 13.671875 
Q 3.609375 17.484375 5.34375 20.625 
Q 7.078125 23.78125 9.890625 25.6875 
Q 12.703125 27.59375 16.21875 28.5625 
Q 18.796875 29.25 24.03125 29.890625 
Q 34.671875 31.15625 39.703125 32.90625 
Q 39.75 34.71875 39.75 35.203125 
Q 39.75 40.578125 37.25 42.78125 
Q 33.890625 45.75 27.25 45.75 
Q 21.046875 45.75 18.09375 43.578125 
Q 15.140625 41.40625 13.71875 35.890625 
L 5.125 37.0625 
Q 6.296875 42.578125 8.984375 45.96875 
Q 11.671875 49.359375 16.75 51.1875 
Q 21.828125 53.03125 28.515625 53.03125 
Q 35.15625 53.03125 39.296875 51.46875 
Q 43.453125 49.90625 45.40625 47.53125 
Q 47.359375 45.171875 48.140625 41.546875 
Q 48.578125 39.3125 48.578125 33.453125 
L 48.578125 21.734375 
Q 48.578125 9.46875 49.140625 6.21875 
Q 49.703125 2.984375 51.375 0 
L 42.1875 0 
Q 40.828125 2.734375 40.4375 6.390625 
z
M 39.703125 26.03125 
Q 34.90625 24.078125 25.34375 22.703125 
Q 19.921875 21.921875 17.671875 20.9375 
Q 15.4375 19.96875 14.203125 18.09375 
Q 12.984375 16.21875 12.984375 13.921875 
Q 12.984375 10.40625 15.640625 8.0625 
Q 18.3125 5.71875 23.4375 5.71875 
Q 28.515625 5.71875 32.46875 7.9375 
Q 36.421875 10.15625 38.28125 14.015625 
Q 39.703125 17 39.703125 22.796875 
z
" id="ArialMT-61"/>
       <path d="M 25.78125 7.859375 
L 27.046875 0.09375 
Q 23.34375 -0.6875 20.40625 -0.6875 
Q 15.625 -0.6875 12.984375 0.828125 
Q 10.359375 2.34375 9.28125 4.8125 
Q 8.203125 7.28125 8.203125 15.1875 
L 8.203125 45.015625 
L 1.765625 45.015625 
L 1.765625 51.859375 
L 8.203125 51.859375 
L 8.203125 64.703125 
L 16.9375 69.96875 
L 16.9375 51.859375 
L 25.78125 51.859375 
L 25.78125 45.015625 
L 16.9375 45.015625 
L 16.9375 14.703125 
Q 16.9375 10.9375 17.40625 9.859375 
Q 17.875 8.796875 18.921875 8.15625 
Q 19.96875 7.515625 21.921875 7.515625 
Q 23.390625 7.515625 25.78125 7.859375 
z
" id="ArialMT-74"/>
      </defs>
      <g style="fill:#262626;" transform="translate(441.5 479.415012)scale(0.1 -0.1)">
       <use xlink:href="#ArialMT-53"/>
       <use x="66.699219" xlink:href="#ArialMT-61"/>
       <use x="122.314453" xlink:href="#ArialMT-74"/>
      </g>
     </g>
    </g>
    <g id="xtick_4">
     <g id="line2d_4">
      <g>
       <use style="fill:#262626;stroke:#262626;stroke-width:0.8;" x="612.219687" xlink:href="#m4715a040cc" y="462.7572"/>
      </g>
     </g>
     <g id="text_4">
      <!-- Sun -->
      <defs>
       <path d="M 6.59375 0 
L 6.59375 51.859375 
L 14.5 51.859375 
L 14.5 44.484375 
Q 20.21875 53.03125 31 53.03125 
Q 35.6875 53.03125 39.625 51.34375 
Q 43.5625 49.65625 45.515625 46.921875 
Q 47.46875 44.1875 48.25 40.4375 
Q 48.734375 37.984375 48.734375 31.890625 
L 48.734375 0 
L 39.9375 0 
L 39.9375 31.546875 
Q 39.9375 36.921875 38.90625 39.578125 
Q 37.890625 42.234375 35.28125 43.8125 
Q 32.671875 45.40625 29.15625 45.40625 
Q 23.53125 45.40625 19.453125 41.84375 
Q 15.375 38.28125 15.375 28.328125 
L 15.375 0 
z
" id="ArialMT-6e"/>
      </defs>
      <g style="fill:#262626;" transform="translate(603.323594 479.415012)scale(0.1 -0.1)">
       <use xlink:href="#ArialMT-53"/>
       <use x="66.699219" xlink:href="#ArialMT-75"/>
       <use x="122.314453" xlink:href="#ArialMT-6e"/>
      </g>
     </g>
    </g>
    <g id="text_5">
     <!-- day -->
     <defs>
      <path d="M 40.234375 0 
L 40.234375 6.546875 
Q 35.296875 -1.171875 25.734375 -1.171875 
Q 19.53125 -1.171875 14.328125 2.25 
Q 9.125 5.671875 6.265625 11.796875 
Q 3.421875 17.921875 3.421875 25.875 
Q 3.421875 33.640625 6 39.96875 
Q 8.59375 46.296875 13.765625 49.65625 
Q 18.953125 53.03125 25.34375 53.03125 
Q 30.03125 53.03125 33.6875 51.046875 
Q 37.359375 49.078125 39.65625 45.90625 
L 39.65625 71.578125 
L 48.390625 71.578125 
L 48.390625 0 
z
M 12.453125 25.875 
Q 12.453125 15.921875 16.640625 10.984375 
Q 20.84375 6.0625 26.5625 6.0625 
Q 32.328125 6.0625 36.34375 10.765625 
Q 40.375 15.484375 40.375 25.140625 
Q 40.375 35.796875 36.265625 40.765625 
Q 32.171875 45.75 26.171875 45.75 
Q 20.3125 45.75 16.375 40.96875 
Q 12.453125 36.1875 12.453125 25.875 
z
" id="ArialMT-64"/>
      <path d="M 6.203125 -19.96875 
L 5.21875 -11.71875 
Q 8.109375 -12.5 10.25 -12.5 
Q 13.1875 -12.5 14.9375 -11.515625 
Q 16.703125 -10.546875 17.828125 -8.796875 
Q 18.65625 -7.46875 20.515625 -2.25 
Q 20.75 -1.515625 21.296875 -0.09375 
L 1.609375 51.859375 
L 11.078125 51.859375 
L 21.875 21.828125 
Q 23.96875 16.109375 25.640625 9.8125 
Q 27.15625 15.875 29.25 21.625 
L 40.328125 51.859375 
L 49.125 51.859375 
L 29.390625 -0.875 
Q 26.21875 -9.421875 24.46875 -12.640625 
Q 22.125 -17 19.09375 -19.015625 
Q 16.0625 -21.046875 11.859375 -21.046875 
Q 9.328125 -21.046875 6.203125 -19.96875 
z
" id="ArialMT-79"/>
     </defs>
     <g style="fill:#262626;" transform="translate(359.33625 492.560325)scale(0.1 -0.1)">
      <use xlink:href="#ArialMT-64"/>
      <use x="55.615234" xlink:href="#ArialMT-61"/>
      <use x="111.230469" xlink:href="#ArialMT-79"/>
     </g>
    </g>
   </g>
   <g id="matplotlib.axis_2">
    <g id="ytick_1">
     <g id="line2d_5">
      <defs>
       <path d="M 0 0 
L -6 0 
" id="m7ae2dc1e64" style="stroke:#262626;stroke-width:0.8;"/>
      </defs>
      <g>
       <use style="fill:#262626;stroke:#262626;stroke-width:0.8;" x="40.967188" xlink:href="#m7ae2dc1e64" y="412.014209"/>
      </g>
     </g>
     <g id="text_6">
      <!-- 0 -->
      <defs>
       <path d="M 4.15625 35.296875 
Q 4.15625 48 6.765625 55.734375 
Q 9.375 63.484375 14.515625 67.671875 
Q 19.671875 71.875 27.484375 71.875 
Q 33.25 71.875 37.59375 69.546875 
Q 41.9375 67.234375 44.765625 62.859375 
Q 47.609375 58.5 49.21875 52.21875 
Q 50.828125 45.953125 50.828125 35.296875 
Q 50.828125 22.703125 48.234375 14.96875 
Q 45.65625 7.234375 40.5 3 
Q 35.359375 -1.21875 27.484375 -1.21875 
Q 17.140625 -1.21875 11.234375 6.203125 
Q 4.15625 15.140625 4.15625 35.296875 
z
M 13.1875 35.296875 
Q 13.1875 17.671875 17.3125 11.828125 
Q 21.4375 6 27.484375 6 
Q 33.546875 6 37.671875 11.859375 
Q 41.796875 17.71875 41.796875 35.296875 
Q 41.796875 52.984375 37.671875 58.78125 
Q 33.546875 64.59375 27.390625 64.59375 
Q 21.34375 64.59375 17.71875 59.46875 
Q 13.1875 52.9375 13.1875 35.296875 
z
" id="ArialMT-30"/>
      </defs>
      <g style="fill:#262626;" transform="translate(25.90625 415.593116)scale(0.1 -0.1)">
       <use xlink:href="#ArialMT-30"/>
      </g>
     </g>
    </g>
    <g id="ytick_2">
     <g id="line2d_6">
      <g>
       <use style="fill:#262626;stroke:#262626;stroke-width:0.8;" x="40.967188" xlink:href="#m7ae2dc1e64" y="347.413018"/>
      </g>
     </g>
     <g id="text_7">
      <!-- 10 -->
      <defs>
       <path d="M 37.25 0 
L 28.46875 0 
L 28.46875 56 
Q 25.296875 52.984375 20.140625 49.953125 
Q 14.984375 46.921875 10.890625 45.40625 
L 10.890625 53.90625 
Q 18.265625 57.375 23.78125 62.296875 
Q 29.296875 67.234375 31.59375 71.875 
L 37.25 71.875 
z
" id="ArialMT-31"/>
      </defs>
      <g style="fill:#262626;" transform="translate(20.345313 350.991924)scale(0.1 -0.1)">
       <use xlink:href="#ArialMT-31"/>
       <use x="55.615234" xlink:href="#ArialMT-30"/>
      </g>
     </g>
    </g>
    <g id="ytick_3">
     <g id="line2d_7">
      <g>
       <use style="fill:#262626;stroke:#262626;stroke-width:0.8;" x="40.967188" xlink:href="#m7ae2dc1e64" y="282.811827"/>
      </g>
     </g>
     <g id="text_8">
      <!-- 20 -->
      <defs>
       <path d="M 50.34375 8.453125 
L 50.34375 0 
L 3.03125 0 
Q 2.9375 3.171875 4.046875 6.109375 
Q 5.859375 10.9375 9.828125 15.625 
Q 13.8125 20.3125 21.34375 26.46875 
Q 33.015625 36.03125 37.109375 41.625 
Q 41.21875 47.21875 41.21875 52.203125 
Q 41.21875 57.421875 37.46875 61 
Q 33.734375 64.59375 27.734375 64.59375 
Q 21.390625 64.59375 17.578125 60.78125 
Q 13.765625 56.984375 13.71875 50.25 
L 4.6875 51.171875 
Q 5.609375 61.28125 11.65625 66.578125 
Q 17.71875 71.875 27.9375 71.875 
Q 38.234375 71.875 44.234375 66.15625 
Q 50.25 60.453125 50.25 52 
Q 50.25 47.703125 48.484375 43.546875 
Q 46.734375 39.40625 42.65625 34.8125 
Q 38.578125 30.21875 29.109375 22.21875 
Q 21.1875 15.578125 18.9375 13.203125 
Q 16.703125 10.84375 15.234375 8.453125 
z
" id="ArialMT-32"/>
      </defs>
      <g style="fill:#262626;" transform="translate(20.345313 286.390733)scale(0.1 -0.1)">
       <use xlink:href="#ArialMT-32"/>
       <use x="55.615234" xlink:href="#ArialMT-30"/>
      </g>
     </g>
    </g>
    <g id="ytick_4">
     <g id="line2d_8">
      <g>
       <use style="fill:#262626;stroke:#262626;stroke-width:0.8;" x="40.967188" xlink:href="#m7ae2dc1e64" y="218.210635"/>
      </g>
     </g>
     <g id="text_9">
      <!-- 30 -->
      <defs>
       <path d="M 4.203125 18.890625 
L 12.984375 20.0625 
Q 14.5 12.59375 18.140625 9.296875 
Q 21.78125 6 27 6 
Q 33.203125 6 37.46875 10.296875 
Q 41.75 14.59375 41.75 20.953125 
Q 41.75 27 37.796875 30.921875 
Q 33.84375 34.859375 27.734375 34.859375 
Q 25.25 34.859375 21.53125 33.890625 
L 22.515625 41.609375 
Q 23.390625 41.5 23.921875 41.5 
Q 29.546875 41.5 34.03125 44.421875 
Q 38.53125 47.359375 38.53125 53.46875 
Q 38.53125 58.296875 35.25 61.46875 
Q 31.984375 64.65625 26.8125 64.65625 
Q 21.6875 64.65625 18.265625 61.421875 
Q 14.84375 58.203125 13.875 51.765625 
L 5.078125 53.328125 
Q 6.6875 62.15625 12.390625 67.015625 
Q 18.109375 71.875 26.609375 71.875 
Q 32.46875 71.875 37.390625 69.359375 
Q 42.328125 66.84375 44.9375 62.5 
Q 47.5625 58.15625 47.5625 53.265625 
Q 47.5625 48.640625 45.0625 44.828125 
Q 42.578125 41.015625 37.703125 38.765625 
Q 44.046875 37.3125 47.5625 32.6875 
Q 51.078125 28.078125 51.078125 21.140625 
Q 51.078125 11.765625 44.234375 5.25 
Q 37.40625 -1.265625 26.953125 -1.265625 
Q 17.53125 -1.265625 11.296875 4.34375 
Q 5.078125 9.96875 4.203125 18.890625 
z
" id="ArialMT-33"/>
      </defs>
      <g style="fill:#262626;" transform="translate(20.345313 221.789542)scale(0.1 -0.1)">
       <use xlink:href="#ArialMT-33"/>
       <use x="55.615234" xlink:href="#ArialMT-30"/>
      </g>
     </g>
    </g>
    <g id="ytick_5">
     <g id="line2d_9">
      <g>
       <use style="fill:#262626;stroke:#262626;stroke-width:0.8;" x="40.967188" xlink:href="#m7ae2dc1e64" y="153.609444"/>
      </g>
     </g>
     <g id="text_10">
      <!-- 40 -->
      <defs>
       <path d="M 32.328125 0 
L 32.328125 17.140625 
L 1.265625 17.140625 
L 1.265625 25.203125 
L 33.9375 71.578125 
L 41.109375 71.578125 
L 41.109375 25.203125 
L 50.78125 25.203125 
L 50.78125 17.140625 
L 41.109375 17.140625 
L 41.109375 0 
z
M 32.328125 25.203125 
L 32.328125 57.46875 
L 9.90625 25.203125 
z
" id="ArialMT-34"/>
      </defs>
      <g style="fill:#262626;" transform="translate(20.345313 157.18835)scale(0.1 -0.1)">
       <use xlink:href="#ArialMT-34"/>
       <use x="55.615234" xlink:href="#ArialMT-30"/>
      </g>
     </g>
    </g>
    <g id="ytick_6">
     <g id="line2d_10">
      <g>
       <use style="fill:#262626;stroke:#262626;stroke-width:0.8;" x="40.967188" xlink:href="#m7ae2dc1e64" y="89.008253"/>
      </g>
     </g>
     <g id="text_11">
      <!-- 50 -->
      <defs>
       <path d="M 4.15625 18.75 
L 13.375 19.53125 
Q 14.40625 12.796875 18.140625 9.390625 
Q 21.875 6 27.15625 6 
Q 33.5 6 37.890625 10.78125 
Q 42.28125 15.578125 42.28125 23.484375 
Q 42.28125 31 38.0625 35.34375 
Q 33.84375 39.703125 27 39.703125 
Q 22.75 39.703125 19.328125 37.765625 
Q 15.921875 35.84375 13.96875 32.765625 
L 5.71875 33.84375 
L 12.640625 70.609375 
L 48.25 70.609375 
L 48.25 62.203125 
L 19.671875 62.203125 
L 15.828125 42.96875 
Q 22.265625 47.46875 29.34375 47.46875 
Q 38.71875 47.46875 45.15625 40.96875 
Q 51.609375 34.46875 51.609375 24.265625 
Q 51.609375 14.546875 45.953125 7.46875 
Q 39.0625 -1.21875 27.15625 -1.21875 
Q 17.390625 -1.21875 11.203125 4.25 
Q 5.03125 9.71875 4.15625 18.75 
z
" id="ArialMT-35"/>
      </defs>
      <g style="fill:#262626;" transform="translate(20.345313 92.587159)scale(0.1 -0.1)">
       <use xlink:href="#ArialMT-35"/>
       <use x="55.615234" xlink:href="#ArialMT-30"/>
      </g>
     </g>
    </g>
    <g id="ytick_7">
     <g id="line2d_11">
      <g>
       <use style="fill:#262626;stroke:#262626;stroke-width:0.8;" x="40.967188" xlink:href="#m7ae2dc1e64" y="24.407061"/>
      </g>
     </g>
     <g id="text_12">
      <!-- 60 -->
      <defs>
       <path d="M 49.75 54.046875 
L 41.015625 53.375 
Q 39.84375 58.546875 37.703125 60.890625 
Q 34.125 64.65625 28.90625 64.65625 
Q 24.703125 64.65625 21.53125 62.3125 
Q 17.390625 59.28125 14.984375 53.46875 
Q 12.59375 47.65625 12.5 36.921875 
Q 15.671875 41.75 20.265625 44.09375 
Q 24.859375 46.4375 29.890625 46.4375 
Q 38.671875 46.4375 44.84375 39.96875 
Q 51.03125 33.5 51.03125 23.25 
Q 51.03125 16.5 48.125 10.71875 
Q 45.21875 4.9375 40.140625 1.859375 
Q 35.0625 -1.21875 28.609375 -1.21875 
Q 17.625 -1.21875 10.6875 6.859375 
Q 3.765625 14.9375 3.765625 33.5 
Q 3.765625 54.25 11.421875 63.671875 
Q 18.109375 71.875 29.4375 71.875 
Q 37.890625 71.875 43.28125 67.140625 
Q 48.6875 62.40625 49.75 54.046875 
z
M 13.875 23.1875 
Q 13.875 18.65625 15.796875 14.5 
Q 17.71875 10.359375 21.1875 8.171875 
Q 24.65625 6 28.46875 6 
Q 34.03125 6 38.03125 10.484375 
Q 42.046875 14.984375 42.046875 22.703125 
Q 42.046875 30.125 38.078125 34.390625 
Q 34.125 38.671875 28.125 38.671875 
Q 22.171875 38.671875 18.015625 34.390625 
Q 13.875 30.125 13.875 23.1875 
z
" id="ArialMT-36"/>
      </defs>
      <g style="fill:#262626;" transform="translate(20.345313 27.985968)scale(0.1 -0.1)">
       <use xlink:href="#ArialMT-36"/>
       <use x="55.615234" xlink:href="#ArialMT-30"/>
      </g>
     </g>
    </g>
    <g id="text_13">
     <!-- total_bill -->
     <defs>
      <path d="M 3.328125 25.921875 
Q 3.328125 40.328125 11.328125 47.265625 
Q 18.015625 53.03125 27.640625 53.03125 
Q 38.328125 53.03125 45.109375 46.015625 
Q 51.90625 39.015625 51.90625 26.65625 
Q 51.90625 16.65625 48.90625 10.90625 
Q 45.90625 5.171875 40.15625 2 
Q 34.421875 -1.171875 27.640625 -1.171875 
Q 16.75 -1.171875 10.03125 5.8125 
Q 3.328125 12.796875 3.328125 25.921875 
z
M 12.359375 25.921875 
Q 12.359375 15.96875 16.703125 11.015625 
Q 21.046875 6.0625 27.640625 6.0625 
Q 34.1875 6.0625 38.53125 11.03125 
Q 42.875 16.015625 42.875 26.21875 
Q 42.875 35.84375 38.5 40.796875 
Q 34.125 45.75 27.640625 45.75 
Q 21.046875 45.75 16.703125 40.8125 
Q 12.359375 35.890625 12.359375 25.921875 
z
" id="ArialMT-6f"/>
      <path d="M 6.390625 0 
L 6.390625 71.578125 
L 15.1875 71.578125 
L 15.1875 0 
z
" id="ArialMT-6c"/>
      <path d="M -1.515625 -19.875 
L -1.515625 -13.53125 
L 56.734375 -13.53125 
L 56.734375 -19.875 
z
" id="ArialMT-5f"/>
      <path d="M 14.703125 0 
L 6.546875 0 
L 6.546875 71.578125 
L 15.328125 71.578125 
L 15.328125 46.046875 
Q 20.90625 53.03125 29.546875 53.03125 
Q 34.328125 53.03125 38.59375 51.09375 
Q 42.875 49.171875 45.625 45.671875 
Q 48.390625 42.1875 49.953125 37.25 
Q 51.515625 32.328125 51.515625 26.703125 
Q 51.515625 13.375 44.921875 6.09375 
Q 38.328125 -1.171875 29.109375 -1.171875 
Q 19.921875 -1.171875 14.703125 6.5 
z
M 14.59375 26.3125 
Q 14.59375 17 17.140625 12.84375 
Q 21.296875 6.0625 28.375 6.0625 
Q 34.125 6.0625 38.328125 11.0625 
Q 42.53125 16.0625 42.53125 25.984375 
Q 42.53125 36.140625 38.5 40.96875 
Q 34.46875 45.796875 28.765625 45.796875 
Q 23 45.796875 18.796875 40.796875 
Q 14.59375 35.796875 14.59375 26.3125 
z
" id="ArialMT-62"/>
     </defs>
     <g style="fill:#262626;" transform="translate(14.357813 256.32235)rotate(-90)scale(0.1 -0.1)">
      <use xlink:href="#ArialMT-74"/>
      <use x="27.783203" xlink:href="#ArialMT-6f"/>
      <use x="83.398438" xlink:href="#ArialMT-74"/>
      <use x="111.181641" xlink:href="#ArialMT-61"/>
      <use x="166.796875" xlink:href="#ArialMT-6c"/>
      <use x="189.013672" xlink:href="#ArialMT-5f"/>
      <use x="244.628906" xlink:href="#ArialMT-62"/>
      <use x="300.244141" xlink:href="#ArialMT-69"/>
      <use x="322.460938" xlink:href="#ArialMT-6c"/>
      <use x="344.677734" xlink:href="#ArialMT-6c"/>
     </g>
    </g>
   </g>
   <g id="PolyCollection_1">
    <defs>
     <path d="M 123.906556 -93.733066 
L 121.242819 -93.733066 
L 120.728058 -96.95778 
L 120.058397 -100.182494 
L 119.20383 -103.407208 
L 118.13385 -106.631922 
L 116.819105 -109.856637 
L 115.233308 -113.081351 
L 113.355301 -116.306065 
L 111.171109 -119.530779 
L 108.675811 -122.755493 
L 105.875071 -125.980208 
L 102.786165 -129.204922 
L 99.438412 -132.429636 
L 95.872908 -135.65435 
L 92.141566 -138.879064 
L 88.305485 -142.103779 
L 84.432699 -145.328493 
L 80.595461 -148.553207 
L 76.867192 -151.777921 
L 73.319311 -155.002635 
L 70.018173 -158.22735 
L 67.022362 -161.452064 
L 64.380574 -164.676778 
L 62.130268 -167.901492 
L 60.297218 -171.126206 
L 58.895954 -174.350921 
L 57.930983 -177.575635 
L 57.398559 -180.800349 
L 57.288688 -184.025063 
L 57.587021 -187.249777 
L 58.276331 -190.474491 
L 59.337341 -193.699206 
L 60.74884 -196.92392 
L 62.487137 -200.148634 
L 64.525087 -203.373348 
L 66.83099 -206.598062 
L 69.367705 -209.822777 
L 72.092286 -213.047491 
L 74.956365 -216.272205 
L 77.907338 -219.496919 
L 80.890301 -222.721633 
L 83.850523 -225.946348 
L 86.73618 -229.171062 
L 89.501006 -232.395776 
L 92.106566 -235.62049 
L 94.523891 -238.845204 
L 96.734327 -242.069919 
L 98.729547 -245.294633 
L 100.510764 -248.519347 
L 102.087302 -251.744061 
L 103.474697 -254.968775 
L 104.692575 -258.19349 
L 105.762522 -261.418204 
L 106.706179 -264.642918 
L 107.543723 -267.867632 
L 108.292858 -271.092346 
L 108.968363 -274.317061 
L 109.582169 -277.541775 
L 110.14386 -280.766489 
L 110.661445 -283.991203 
L 111.142192 -287.215917 
L 111.593347 -290.440632 
L 112.02254 -293.665346 
L 112.437807 -296.89006 
L 112.847178 -300.114774 
L 113.257926 -303.339488 
L 113.675615 -306.564203 
L 114.103156 -309.788917 
L 114.540092 -313.013631 
L 114.982285 -316.238345 
L 115.42215 -319.463059 
L 115.849426 -322.687774 
L 116.252434 -325.912488 
L 116.619653 -329.137202 
L 116.941364 -332.361916 
L 117.211149 -335.58663 
L 117.426977 -338.811345 
L 117.591744 -342.036059 
L 117.713163 -345.260773 
L 117.803022 -348.485487 
L 117.875923 -351.710201 
L 117.947687 -354.934915 
L 118.033623 -358.15963 
L 118.146927 -361.384344 
L 118.297371 -364.609058 
L 118.49047 -367.833772 
L 118.727158 -371.058486 
L 119.004011 -374.283201 
L 119.313912 -377.507915 
L 119.647052 -380.732629 
L 119.992107 -383.957343 
L 120.337427 -387.182057 
L 120.672114 -390.406772 
L 120.986859 -393.631486 
L 121.274497 -396.8562 
L 121.530268 -400.080914 
L 121.751788 -403.305628 
L 121.938812 -406.530343 
L 122.092842 -409.755057 
L 122.216659 -412.979771 
L 122.932716 -412.979771 
L 122.932716 -412.979771 
L 123.056533 -409.755057 
L 123.210563 -406.530343 
L 123.397587 -403.305628 
L 123.619107 -400.080914 
L 123.874878 -396.8562 
L 124.162516 -393.631486 
L 124.477261 -390.406772 
L 124.811948 -387.182057 
L 125.157268 -383.957343 
L 125.502323 -380.732629 
L 125.835463 -377.507915 
L 126.145364 -374.283201 
L 126.422217 -371.058486 
L 126.658905 -367.833772 
L 126.852004 -364.609058 
L 127.002448 -361.384344 
L 127.115752 -358.15963 
L 127.201688 -354.934915 
L 127.273452 -351.710201 
L 127.346353 -348.485487 
L 127.436212 -345.260773 
L 127.557631 -342.036059 
L 127.722398 -338.811345 
L 127.938226 -335.58663 
L 128.208011 -332.361916 
L 128.529722 -329.137202 
L 128.896941 -325.912488 
L 129.299949 -322.687774 
L 129.727225 -319.463059 
L 130.16709 -316.238345 
L 130.609283 -313.013631 
L 131.046219 -309.788917 
L 131.47376 -306.564203 
L 131.891449 -303.339488 
L 132.302197 -300.114774 
L 132.711568 -296.89006 
L 133.126835 -293.665346 
L 133.556028 -290.440632 
L 134.007183 -287.215917 
L 134.48793 -283.991203 
L 135.005515 -280.766489 
L 135.567206 -277.541775 
L 136.181012 -274.317061 
L 136.856517 -271.092346 
L 137.605652 -267.867632 
L 138.443196 -264.642918 
L 139.386853 -261.418204 
L 140.4568 -258.19349 
L 141.674678 -254.968775 
L 143.062073 -251.744061 
L 144.638611 -248.519347 
L 146.419828 -245.294633 
L 148.415048 -242.069919 
L 150.625484 -238.845204 
L 153.042809 -235.62049 
L 155.648369 -232.395776 
L 158.413195 -229.171062 
L 161.298852 -225.946348 
L 164.259074 -222.721633 
L 167.242037 -219.496919 
L 170.19301 -216.272205 
L 173.057089 -213.047491 
L 175.78167 -209.822777 
L 178.318385 -206.598062 
L 180.624288 -203.373348 
L 182.662238 -200.148634 
L 184.400535 -196.92392 
L 185.812034 -193.699206 
L 186.873044 -190.474491 
L 187.562354 -187.249777 
L 187.860688 -184.025063 
L 187.750816 -180.800349 
L 187.218392 -177.575635 
L 186.253421 -174.350921 
L 184.852157 -171.126206 
L 183.019107 -167.901492 
L 180.768801 -164.676778 
L 178.127013 -161.452064 
L 175.131202 -158.22735 
L 171.830064 -155.002635 
L 168.282183 -151.777921 
L 164.553914 -148.553207 
L 160.716676 -145.328493 
L 156.84389 -142.103779 
L 153.007809 -138.879064 
L 149.276467 -135.65435 
L 145.710963 -132.429636 
L 142.36321 -129.204922 
L 139.274304 -125.980208 
L 136.473564 -122.755493 
L 133.978266 -119.530779 
L 131.794074 -116.306065 
L 129.916067 -113.081351 
L 128.33027 -109.856637 
L 127.015525 -106.631922 
L 125.945545 -103.407208 
L 125.090978 -100.182494 
L 124.421317 -96.95778 
L 123.906556 -93.733066 
z
" id="mc98cc4649d" style="stroke:#3d3d3d;stroke-width:1.5;"/>
    </defs>
    <g clip-path="url(#pea303e02f9)">
     <use style="fill:#3274a1;stroke:#3d3d3d;stroke-width:1.5;" x="0" xlink:href="#mc98cc4649d" y="501.865012"/>
    </g>
   </g>
   <g id="PolyCollection_2">
    <defs>
     <path d="M 286.795157 -67.466329 
L 284.784218 -67.466329 
L 284.485585 -70.914992 
L 284.115544 -74.363655 
L 283.661968 -77.812318 
L 283.111864 -81.26098 
L 282.451571 -84.709643 
L 281.66702 -88.158306 
L 280.744053 -91.606969 
L 279.668811 -95.055632 
L 278.428197 -98.504295 
L 277.010399 -101.952957 
L 275.405502 -105.40162 
L 273.606155 -108.850283 
L 271.608306 -112.298946 
L 269.41197 -115.747609 
L 267.022011 -119.196271 
L 264.448887 -122.644934 
L 261.709309 -126.093597 
L 258.826738 -129.54226 
L 255.831661 -132.990923 
L 252.761564 -136.439585 
L 249.66054 -139.888248 
L 246.578485 -143.336911 
L 243.569862 -146.785574 
L 240.692046 -150.234237 
L 238.003291 -153.682899 
L 235.560423 -157.131562 
L 233.416372 -160.580225 
L 231.617697 -164.028888 
L 230.202282 -167.477551 
L 229.197369 -170.926214 
L 228.618083 -174.374876 
L 228.466589 -177.823539 
L 228.731944 -181.272202 
L 229.390698 -184.720865 
L 230.408197 -188.169528 
L 231.74051 -191.61819 
L 233.336836 -195.066853 
L 235.142223 -198.515516 
L 237.100386 -201.964179 
L 239.15644 -205.412842 
L 241.259347 -208.861504 
L 243.363924 -212.310167 
L 245.432326 -215.75883 
L 247.434913 -219.207493 
L 249.350538 -222.656156 
L 251.166286 -226.104819 
L 252.876756 -229.553481 
L 254.483006 -233.002144 
L 255.991283 -236.450807 
L 257.411662 -239.89947 
L 258.756688 -243.348133 
L 260.040116 -246.796795 
L 261.275795 -250.245458 
L 262.476721 -253.694121 
L 263.654272 -257.142784 
L 264.817619 -260.591447 
L 265.973295 -264.040109 
L 267.12492 -267.488772 
L 268.273068 -270.937435 
L 269.415275 -274.386098 
L 270.546198 -277.834761 
L 271.657924 -281.283423 
L 272.740422 -284.732086 
L 273.782146 -288.180749 
L 274.770752 -291.629412 
L 275.693907 -295.078075 
L 276.540135 -298.526738 
L 277.299651 -301.9754 
L 277.965119 -305.424063 
L 278.532275 -308.872726 
L 279.000366 -312.321389 
L 279.372357 -315.770052 
L 279.654901 -319.218714 
L 279.858042 -322.667377 
L 279.994701 -326.11604 
L 280.079952 -329.564703 
L 280.130162 -333.013366 
L 280.16205 -336.462028 
L 280.191736 -339.910691 
L 280.233853 -343.359354 
L 280.300789 -346.808017 
L 280.402102 -350.25668 
L 280.544155 -353.705343 
L 280.729983 -357.154005 
L 280.959386 -360.602668 
L 281.229237 -364.051331 
L 281.533954 -367.499994 
L 281.866097 -370.948657 
L 282.217026 -374.397319 
L 282.577574 -377.845982 
L 282.938671 -381.294645 
L 283.291887 -384.743308 
L 283.629857 -388.191971 
L 283.946576 -391.640633 
L 284.237558 -395.089296 
L 284.499863 -398.537959 
L 284.732031 -401.986622 
L 284.933912 -405.435285 
L 285.106455 -408.883947 
L 286.47292 -408.883947 
L 286.47292 -408.883947 
L 286.645463 -405.435285 
L 286.847344 -401.986622 
L 287.079512 -398.537959 
L 287.341817 -395.089296 
L 287.632799 -391.640633 
L 287.949518 -388.191971 
L 288.287488 -384.743308 
L 288.640704 -381.294645 
L 289.001801 -377.845982 
L 289.362349 -374.397319 
L 289.713278 -370.948657 
L 290.045421 -367.499994 
L 290.350138 -364.051331 
L 290.619989 -360.602668 
L 290.849392 -357.154005 
L 291.03522 -353.705343 
L 291.177273 -350.25668 
L 291.278586 -346.808017 
L 291.345522 -343.359354 
L 291.387639 -339.910691 
L 291.417325 -336.462028 
L 291.449213 -333.013366 
L 291.499423 -329.564703 
L 291.584674 -326.11604 
L 291.721333 -322.667377 
L 291.924474 -319.218714 
L 292.207018 -315.770052 
L 292.579009 -312.321389 
L 293.0471 -308.872726 
L 293.614256 -305.424063 
L 294.279724 -301.9754 
L 295.03924 -298.526738 
L 295.885468 -295.078075 
L 296.808623 -291.629412 
L 297.797229 -288.180749 
L 298.838953 -284.732086 
L 299.921451 -281.283423 
L 301.033177 -277.834761 
L 302.1641 -274.386098 
L 303.306307 -270.937435 
L 304.454455 -267.488772 
L 305.60608 -264.040109 
L 306.761756 -260.591447 
L 307.925103 -257.142784 
L 309.102654 -253.694121 
L 310.30358 -250.245458 
L 311.539259 -246.796795 
L 312.822687 -243.348133 
L 314.167713 -239.89947 
L 315.588092 -236.450807 
L 317.096369 -233.002144 
L 318.702619 -229.553481 
L 320.413089 -226.104819 
L 322.228837 -222.656156 
L 324.144462 -219.207493 
L 326.147049 -215.75883 
L 328.215451 -212.310167 
L 330.320028 -208.861504 
L 332.422935 -205.412842 
L 334.478989 -201.964179 
L 336.437152 -198.515516 
L 338.242539 -195.066853 
L 339.838865 -191.61819 
L 341.171178 -188.169528 
L 342.188677 -184.720865 
L 342.847431 -181.272202 
L 343.112786 -177.823539 
L 342.961292 -174.374876 
L 342.382006 -170.926214 
L 341.377093 -167.477551 
L 339.961678 -164.028888 
L 338.163003 -160.580225 
L 336.018952 -157.131562 
L 333.576084 -153.682899 
L 330.887329 -150.234237 
L 328.009513 -146.785574 
L 325.00089 -143.336911 
L 321.918835 -139.888248 
L 318.817811 -136.439585 
L 315.747714 -132.990923 
L 312.752637 -129.54226 
L 309.870066 -126.093597 
L 307.130488 -122.644934 
L 304.557364 -119.196271 
L 302.167405 -115.747609 
L 299.971069 -112.298946 
L 297.97322 -108.850283 
L 296.173873 -105.40162 
L 294.568976 -101.952957 
L 293.151178 -98.504295 
L 291.910564 -95.055632 
L 290.835322 -91.606969 
L 289.912355 -88.158306 
L 289.127804 -84.709643 
L 288.467511 -81.26098 
L 287.917407 -77.812318 
L 287.463831 -74.363655 
L 287.09379 -70.914992 
L 286.795157 -67.466329 
z
" id="m83f2af0324" style="stroke:#3d3d3d;stroke-width:1.5;"/>
    </defs>
    <g clip-path="url(#pea303e02f9)">
     <use style="fill:#e1812c;stroke:#3d3d3d;stroke-width:1.5;" x="0" xlink:href="#m83f2af0324" y="501.865012"/>
    </g>
   </g>
   <g id="PolyCollection_3">
    <defs>
     <path d="M 449.20719 -59.542231 
L 448.802185 -59.542231 
L 448.718422 -63.670396 
L 448.608086 -67.798561 
L 448.465386 -71.926727 
L 448.283667 -76.054892 
L 448.055097 -80.183057 
L 447.770174 -84.311222 
L 447.417073 -88.439388 
L 446.980887 -92.567553 
L 446.442922 -96.695718 
L 445.780219 -100.823884 
L 444.96555 -104.952049 
L 443.968097 -109.080214 
L 442.754997 -113.208379 
L 441.293786 -117.336545 
L 439.555637 -121.46471 
L 437.519094 -125.592875 
L 435.17388 -129.721041 
L 432.524209 -133.849206 
L 429.591073 -137.977371 
L 426.413042 -142.105536 
L 423.04534 -146.233702 
L 419.557188 -150.361867 
L 416.02774 -154.490032 
L 412.541129 -158.618198 
L 409.181306 -162.746363 
L 406.027353 -166.874528 
L 403.149809 -171.002693 
L 400.60831 -175.130859 
L 398.450566 -179.259024 
L 396.712398 -183.387189 
L 395.41841 -187.515355 
L 394.582789 -191.64352 
L 394.209828 -195.771685 
L 394.293954 -199.899851 
L 394.819301 -204.028016 
L 395.759092 -208.156181 
L 397.075292 -212.284346 
L 398.718999 -216.412512 
L 400.631956 -220.540677 
L 402.74935 -224.668842 
L 405.00376 -228.797008 
L 407.329828 -232.925173 
L 409.668991 -237.053338 
L 411.973559 -241.181503 
L 414.20944 -245.309669 
L 416.357073 -249.437834 
L 418.410436 -253.565999 
L 420.37433 -257.694165 
L 422.260447 -261.82233 
L 424.082927 -265.950495 
L 425.854136 -270.07866 
L 427.581316 -274.206826 
L 429.264554 -278.334991 
L 430.896275 -282.463156 
L 432.462192 -286.591322 
L 433.943447 -290.719487 
L 435.319527 -294.847652 
L 436.571448 -298.975817 
L 437.684738 -303.103983 
L 438.65176 -307.232148 
L 439.473063 -311.360313 
L 440.157567 -315.488479 
L 440.721577 -319.616644 
L 441.18676 -323.744809 
L 441.577406 -327.872974 
L 441.91739 -332.00114 
L 442.227307 -336.129305 
L 442.522217 -340.25747 
L 442.810354 -344.385636 
L 443.092953 -348.513801 
L 443.365205 -352.641966 
L 443.618107 -356.770132 
L 443.840891 -360.898297 
L 444.023594 -365.026462 
L 444.159378 -369.154627 
L 444.246241 -373.282793 
L 444.287913 -377.410958 
L 444.293846 -381.539123 
L 444.278341 -385.667289 
L 444.25899 -389.795454 
L 444.254662 -393.923619 
L 444.283321 -398.051784 
L 444.359977 -402.17995 
L 444.495022 -406.308115 
L 444.693159 -410.43628 
L 444.953049 -414.564446 
L 445.267682 -418.692611 
L 445.625386 -422.820776 
L 446.011313 -426.948941 
L 446.409156 -431.077107 
L 446.802863 -435.205272 
L 447.178126 -439.333437 
L 447.523471 -443.461603 
L 447.830878 -447.589768 
L 448.095922 -451.717933 
L 448.317502 -455.846098 
L 448.497266 -459.974264 
L 448.638884 -464.102429 
L 448.747277 -468.230594 
L 449.262098 -468.230594 
L 449.262098 -468.230594 
L 449.370491 -464.102429 
L 449.512109 -459.974264 
L 449.691873 -455.846098 
L 449.913453 -451.717933 
L 450.178497 -447.589768 
L 450.485904 -443.461603 
L 450.831249 -439.333437 
L 451.206512 -435.205272 
L 451.600219 -431.077107 
L 451.998062 -426.948941 
L 452.383989 -422.820776 
L 452.741693 -418.692611 
L 453.056326 -414.564446 
L 453.316216 -410.43628 
L 453.514353 -406.308115 
L 453.649398 -402.17995 
L 453.726054 -398.051784 
L 453.754713 -393.923619 
L 453.750385 -389.795454 
L 453.731034 -385.667289 
L 453.715529 -381.539123 
L 453.721462 -377.410958 
L 453.763134 -373.282793 
L 453.849997 -369.154627 
L 453.985781 -365.026462 
L 454.168484 -360.898297 
L 454.391268 -356.770132 
L 454.64417 -352.641966 
L 454.916422 -348.513801 
L 455.199021 -344.385636 
L 455.487158 -340.25747 
L 455.782068 -336.129305 
L 456.091985 -332.00114 
L 456.431969 -327.872974 
L 456.822615 -323.744809 
L 457.287798 -319.616644 
L 457.851808 -315.488479 
L 458.536312 -311.360313 
L 459.357615 -307.232148 
L 460.324637 -303.103983 
L 461.437927 -298.975817 
L 462.689848 -294.847652 
L 464.065928 -290.719487 
L 465.547183 -286.591322 
L 467.1131 -282.463156 
L 468.744821 -278.334991 
L 470.428059 -274.206826 
L 472.155239 -270.07866 
L 473.926448 -265.950495 
L 475.748928 -261.82233 
L 477.635045 -257.694165 
L 479.598939 -253.565999 
L 481.652302 -249.437834 
L 483.799935 -245.309669 
L 486.035816 -241.181503 
L 488.340384 -237.053338 
L 490.679547 -232.925173 
L 493.005615 -228.797008 
L 495.260025 -224.668842 
L 497.377419 -220.540677 
L 499.290376 -216.412512 
L 500.934083 -212.284346 
L 502.250283 -208.156181 
L 503.190074 -204.028016 
L 503.715421 -199.899851 
L 503.799547 -195.771685 
L 503.426586 -191.64352 
L 502.590965 -187.515355 
L 501.296977 -183.387189 
L 499.558809 -179.259024 
L 497.401065 -175.130859 
L 494.859566 -171.002693 
L 491.982022 -166.874528 
L 488.828069 -162.746363 
L 485.468246 -158.618198 
L 481.981635 -154.490032 
L 478.452187 -150.361867 
L 474.964035 -146.233702 
L 471.596333 -142.105536 
L 468.418302 -137.977371 
L 465.485166 -133.849206 
L 462.835495 -129.721041 
L 460.490281 -125.592875 
L 458.453738 -121.46471 
L 456.715589 -117.336545 
L 455.254378 -113.208379 
L 454.041278 -109.080214 
L 453.043825 -104.952049 
L 452.229156 -100.823884 
L 451.566453 -96.695718 
L 451.028488 -92.567553 
L 450.592302 -88.439388 
L 450.239201 -84.311222 
L 449.954278 -80.183057 
L 449.725708 -76.054892 
L 449.543989 -71.926727 
L 449.401289 -67.798561 
L 449.290953 -63.670396 
L 449.20719 -59.542231 
z
" id="m662dc343c2" style="stroke:#3d3d3d;stroke-width:1.5;"/>
    </defs>
    <g clip-path="url(#pea303e02f9)">
     <use style="fill:#3a923a;stroke:#3d3d3d;stroke-width:1.5;" x="0" xlink:href="#m662dc343c2" y="501.865012"/>
    </g>
   </g>
   <g id="PolyCollection_4">
    <defs>
     <path d="M 612.786391 -88.694224 
L 611.652984 -88.694224 
L 611.406503 -92.333951 
L 611.074761 -95.973678 
L 610.637669 -99.613405 
L 610.07387 -103.253132 
L 609.361842 -106.892858 
L 608.481287 -110.532585 
L 607.414707 -114.172312 
L 606.148979 -117.812039 
L 604.676755 -121.451766 
L 602.997452 -125.091493 
L 601.117678 -128.73122 
L 599.050979 -132.370947 
L 596.816941 -136.010673 
L 594.439766 -139.6504 
L 591.946593 -143.290127 
L 589.365877 -146.929854 
L 586.726147 -150.569581 
L 584.05541 -154.209308 
L 581.381287 -157.849035 
L 578.731826 -161.488762 
L 576.136706 -165.128488 
L 573.628457 -168.768215 
L 571.243206 -172.407942 
L 569.020578 -176.047669 
L 567.002471 -179.687396 
L 565.230717 -183.327123 
L 563.743856 -186.96685 
L 562.573506 -190.606576 
L 561.740943 -194.246303 
L 561.254539 -197.88603 
L 561.108581 -201.525757 
L 561.283765 -205.165484 
L 561.749372 -208.805211 
L 562.466792 -212.444938 
L 563.393833 -216.084665 
L 564.489071 -219.724391 
L 565.715515 -223.364118 
L 567.042994 -227.003845 
L 568.448915 -230.643572 
L 569.917405 -234.283299 
L 571.43713 -237.923026 
L 572.99838 -241.562753 
L 574.590114 -245.20248 
L 576.197668 -248.842206 
L 577.801655 -252.481933 
L 579.378331 -256.12166 
L 580.901382 -259.761387 
L 582.344796 -263.401114 
L 583.686248 -267.040841 
L 584.91035 -270.680568 
L 586.011136 -274.320295 
L 586.993326 -277.960021 
L 587.872117 -281.599748 
L 588.671574 -285.239475 
L 589.421848 -288.879202 
L 590.155702 -292.518929 
L 590.904834 -296.158656 
L 591.696514 -299.798383 
L 592.55093 -303.43811 
L 593.479517 -307.077836 
L 594.484367 -310.717563 
L 595.558665 -314.35729 
L 596.68799 -317.997017 
L 597.852215 -321.636744 
L 599.027733 -325.276471 
L 600.189715 -328.916198 
L 601.314174 -332.555924 
L 602.379637 -336.195651 
L 603.368354 -339.835378 
L 604.267009 -343.475105 
L 605.066986 -347.114832 
L 605.764282 -350.754559 
L 606.359177 -354.394286 
L 606.855762 -358.034013 
L 607.261415 -361.673739 
L 607.586234 -365.313466 
L 607.842477 -368.953193 
L 608.043945 -372.59292 
L 608.205316 -376.232647 
L 608.34141 -379.872374 
L 608.466397 -383.512101 
L 608.592993 -387.151828 
L 608.731718 -390.791554 
L 608.890295 -394.431281 
L 609.073261 -398.071008 
L 609.281857 -401.710735 
L 609.51421 -405.350462 
L 609.765789 -408.990189 
L 610.030079 -412.629916 
L 610.299391 -416.269643 
L 610.565702 -419.909369 
L 610.821438 -423.549096 
L 611.060103 -427.188823 
L 611.276723 -430.82855 
L 611.468057 -434.468277 
L 611.632616 -438.108004 
L 611.770491 -441.747731 
L 611.883072 -445.387458 
L 611.97269 -449.027184 
L 612.466685 -449.027184 
L 612.466685 -449.027184 
L 612.556303 -445.387458 
L 612.668884 -441.747731 
L 612.806759 -438.108004 
L 612.971318 -434.468277 
L 613.162652 -430.82855 
L 613.379272 -427.188823 
L 613.617937 -423.549096 
L 613.873673 -419.909369 
L 614.139984 -416.269643 
L 614.409296 -412.629916 
L 614.673586 -408.990189 
L 614.925165 -405.350462 
L 615.157518 -401.710735 
L 615.366114 -398.071008 
L 615.54908 -394.431281 
L 615.707657 -390.791554 
L 615.846382 -387.151828 
L 615.972978 -383.512101 
L 616.097965 -379.872374 
L 616.234059 -376.232647 
L 616.39543 -372.59292 
L 616.596898 -368.953193 
L 616.853141 -365.313466 
L 617.17796 -361.673739 
L 617.583613 -358.034013 
L 618.080198 -354.394286 
L 618.675093 -350.754559 
L 619.372389 -347.114832 
L 620.172366 -343.475105 
L 621.071021 -339.835378 
L 622.059738 -336.195651 
L 623.125201 -332.555924 
L 624.24966 -328.916198 
L 625.411642 -325.276471 
L 626.58716 -321.636744 
L 627.751385 -317.997017 
L 628.88071 -314.35729 
L 629.955008 -310.717563 
L 630.959858 -307.077836 
L 631.888445 -303.43811 
L 632.742861 -299.798383 
L 633.534541 -296.158656 
L 634.283673 -292.518929 
L 635.017527 -288.879202 
L 635.767801 -285.239475 
L 636.567258 -281.599748 
L 637.446049 -277.960021 
L 638.428239 -274.320295 
L 639.529025 -270.680568 
L 640.753127 -267.040841 
L 642.094579 -263.401114 
L 643.537993 -259.761387 
L 645.061044 -256.12166 
L 646.63772 -252.481933 
L 648.241707 -248.842206 
L 649.849261 -245.20248 
L 651.440995 -241.562753 
L 653.002245 -237.923026 
L 654.52197 -234.283299 
L 655.99046 -230.643572 
L 657.396381 -227.003845 
L 658.72386 -223.364118 
L 659.950304 -219.724391 
L 661.045542 -216.084665 
L 661.972583 -212.444938 
L 662.690003 -208.805211 
L 663.15561 -205.165484 
L 663.330794 -201.525757 
L 663.184836 -197.88603 
L 662.698432 -194.246303 
L 661.865869 -190.606576 
L 660.695519 -186.96685 
L 659.208658 -183.327123 
L 657.436904 -179.687396 
L 655.418797 -176.047669 
L 653.196169 -172.407942 
L 650.810918 -168.768215 
L 648.302669 -165.128488 
L 645.707549 -161.488762 
L 643.058088 -157.849035 
L 640.383965 -154.209308 
L 637.713228 -150.569581 
L 635.073498 -146.929854 
L 632.492782 -143.290127 
L 629.999609 -139.6504 
L 627.622434 -136.010673 
L 625.388396 -132.370947 
L 623.321697 -128.73122 
L 621.441923 -125.091493 
L 619.76262 -121.451766 
L 618.290396 -117.812039 
L 617.024668 -114.172312 
L 615.958088 -110.532585 
L 615.077533 -106.892858 
L 614.365505 -103.253132 
L 613.801706 -99.613405 
L 613.364614 -95.973678 
L 613.032872 -92.333951 
L 612.786391 -88.694224 
z
" id="mb68ac38266" style="stroke:#3d3d3d;stroke-width:1.5;"/>
    </defs>
    <g clip-path="url(#pea303e02f9)">
     <use style="fill:#c03d3e;stroke:#3d3d3d;stroke-width:1.5;" x="0" xlink:href="#mb68ac38266" y="501.865012"/>
    </g>
   </g>
   <g id="patch_3">
    <path d="M 40.967188 462.7572 
L 40.967188 13.2 
" style="fill:none;stroke:#262626;stroke-linecap:square;stroke-linejoin:miter;stroke-width:1.25;"/>
   </g>
   <g id="patch_4">
    <path d="M 693.827188 462.7572 
L 693.827188 13.2 
" style="fill:none;stroke:#262626;stroke-linecap:square;stroke-linejoin:miter;stroke-width:1.25;"/>
   </g>
   <g id="patch_5">
    <path d="M 40.967188 462.7572 
L 693.827188 462.7572 
" style="fill:none;stroke:#262626;stroke-linecap:square;stroke-linejoin:miter;stroke-width:1.25;"/>
   </g>
   <g id="patch_6">
    <path d="M 40.967188 13.2 
L 693.827188 13.2 
" style="fill:none;stroke:#262626;stroke-linecap:square;stroke-linejoin:miter;stroke-width:1.25;"/>
   </g>
   <g id="PathCollection_1">
    <defs>
     <path d="M 0 2.5 
C 0.663008 2.5 1.29895 2.236584 1.767767 1.767767 
C 2.236584 1.29895 2.5 0.663008 2.5 0 
C 2.5 -0.663008 2.236584 -1.29895 1.767767 -1.767767 
C 1.29895 -2.236584 0.663008 -2.5 0 -2.5 
C -0.663008 -2.5 -1.29895 -2.236584 -1.767767 -1.767767 
C -2.236584 -1.29895 -2.5 -0.663008 -2.5 0 
C -2.5 0.663008 -2.236584 1.29895 -1.767767 1.767767 
C -1.29895 2.236584 -0.663008 2.5 0 2.5 
z
" id="C0_0_98d37c53a0"/>
    </defs>
    <g clip-path="url(#pea303e02f9)">
     <use style="fill:#ffffff;" x="122.574688" xlink:href="#C0_0_98d37c53a0" y="363.498715"/>
    </g>
    <g clip-path="url(#pea303e02f9)">
     <use style="fill:#ffffff;" x="117.335654" xlink:href="#C0_0_98d37c53a0" y="363.175709"/>
    </g>
    <g clip-path="url(#pea303e02f9)">
     <use style="fill:#ffffff;" x="122.574688" xlink:href="#C0_0_98d37c53a0" y="358.072215"/>
    </g>
    <g clip-path="url(#pea303e02f9)">
     <use style="fill:#ffffff;" x="117.438091" xlink:href="#C0_0_98d37c53a0" y="357.038596"/>
    </g>
    <g clip-path="url(#pea303e02f9)">
     <use style="fill:#ffffff;" x="127.696483" xlink:href="#C0_0_98d37c53a0" y="356.973994"/>
    </g>
    <g clip-path="url(#pea303e02f9)">
     <use style="fill:#ffffff;" x="122.574688" xlink:href="#C0_0_98d37c53a0" y="348.834244"/>
    </g>
    <g clip-path="url(#pea303e02f9)">
     <use style="fill:#ffffff;" x="117.707143" xlink:href="#C0_0_98d37c53a0" y="346.96081"/>
    </g>
    <g clip-path="url(#pea303e02f9)">
     <use style="fill:#ffffff;" x="126.268498" xlink:href="#C0_0_98d37c53a0" y="345.281179"/>
    </g>
    <g clip-path="url(#pea303e02f9)">
     <use style="fill:#ffffff;" x="131.51806" xlink:href="#C0_0_98d37c53a0" y="345.216578"/>
    </g>
    <g clip-path="url(#pea303e02f9)">
     <use style="fill:#ffffff;" x="121.488227" xlink:href="#C0_0_98d37c53a0" y="343.213941"/>
    </g>
    <g clip-path="url(#pea303e02f9)">
     <use style="fill:#ffffff;" x="125.376823" xlink:href="#C0_0_98d37c53a0" y="339.854679"/>
    </g>
    <g clip-path="url(#pea303e02f9)">
     <use style="fill:#ffffff;" x="119.743706" xlink:href="#C0_0_98d37c53a0" y="338.498054"/>
    </g>
    <g clip-path="url(#pea303e02f9)">
     <use style="fill:#ffffff;" x="129.26542" xlink:href="#C0_0_98d37c53a0" y="336.495417"/>
    </g>
    <g clip-path="url(#pea303e02f9)">
     <use style="fill:#ffffff;" x="115.679803" xlink:href="#C0_0_98d37c53a0" y="335.332595"/>
    </g>
    <g clip-path="url(#pea303e02f9)">
     <use style="fill:#ffffff;" x="122.574688" xlink:href="#C0_0_98d37c53a0" y="332.813149"/>
    </g>
    <g clip-path="url(#pea303e02f9)">
     <use style="fill:#ffffff;" x="127.696483" xlink:href="#C0_0_98d37c53a0" y="331.714929"/>
    </g>
    <g clip-path="url(#pea303e02f9)">
     <use style="fill:#ffffff;" x="112.448412" xlink:href="#C0_0_98d37c53a0" y="331.391923"/>
    </g>
    <g clip-path="url(#pea303e02f9)">
     <use style="fill:#ffffff;" x="118.456239" xlink:href="#C0_0_98d37c53a0" y="329.712292"/>
    </g>
    <g clip-path="url(#pea303e02f9)">
     <use style="fill:#ffffff;" x="124.113191" xlink:href="#C0_0_98d37c53a0" y="328.032661"/>
    </g>
    <g clip-path="url(#pea303e02f9)">
     <use style="fill:#ffffff;" x="131.248045" xlink:href="#C0_0_98d37c53a0" y="328.032661"/>
    </g>
    <g clip-path="url(#pea303e02f9)">
     <use style="fill:#ffffff;" x="108.754601" xlink:href="#C0_0_98d37c53a0" y="327.838857"/>
    </g>
    <g clip-path="url(#pea303e02f9)">
     <use style="fill:#ffffff;" x="136.384642" xlink:href="#C0_0_98d37c53a0" y="326.999042"/>
    </g>
    <g clip-path="url(#pea303e02f9)">
     <use style="fill:#ffffff;" x="115.948828" xlink:href="#C0_0_98d37c53a0" y="325.319411"/>
    </g>
    <g clip-path="url(#pea303e02f9)">
     <use style="fill:#ffffff;" x="104.636153" xlink:href="#C0_0_98d37c53a0" y="324.738"/>
    </g>
    <g clip-path="url(#pea303e02f9)">
     <use style="fill:#ffffff;" x="122.574688" xlink:href="#C0_0_98d37c53a0" y="320.603524"/>
    </g>
    <g clip-path="url(#pea303e02f9)">
     <use style="fill:#ffffff;" x="127.771395" xlink:href="#C0_0_98d37c53a0" y="319.892911"/>
    </g>
    <g clip-path="url(#pea303e02f9)">
     <use style="fill:#ffffff;" x="117.963438" xlink:href="#C0_0_98d37c53a0" y="318.21328"/>
    </g>
    <g clip-path="url(#pea303e02f9)">
     <use style="fill:#ffffff;" x="122.574688" xlink:href="#C0_0_98d37c53a0" y="312.011565"/>
    </g>
    <g clip-path="url(#pea303e02f9)">
     <use style="fill:#ffffff;" x="118.403511" xlink:href="#C0_0_98d37c53a0" y="308.975309"/>
    </g>
    <g clip-path="url(#pea303e02f9)">
     <use style="fill:#ffffff;" x="126.582156" xlink:href="#C0_0_98d37c53a0" y="308.781506"/>
    </g>
    <g clip-path="url(#pea303e02f9)">
     <use style="fill:#ffffff;" x="131.830403" xlink:href="#C0_0_98d37c53a0" y="308.652303"/>
    </g>
    <g clip-path="url(#pea303e02f9)">
     <use style="fill:#ffffff;" x="114.132057" xlink:href="#C0_0_98d37c53a0" y="306.068256"/>
    </g>
    <g clip-path="url(#pea303e02f9)">
     <use style="fill:#ffffff;" x="136.195618" xlink:href="#C0_0_98d37c53a0" y="305.874452"/>
    </g>
    <g clip-path="url(#pea303e02f9)">
     <use style="fill:#ffffff;" x="122.574688" xlink:href="#C0_0_98d37c53a0" y="305.616047"/>
    </g>
    <g clip-path="url(#pea303e02f9)">
     <use style="fill:#ffffff;" x="109.026007" xlink:href="#C0_0_98d37c53a0" y="304.905434"/>
    </g>
    <g clip-path="url(#pea303e02f9)">
     <use style="fill:#ffffff;" x="129.088104" xlink:href="#C0_0_98d37c53a0" y="304.388625"/>
    </g>
    <g clip-path="url(#pea303e02f9)">
     <use style="fill:#ffffff;" x="122.574688" xlink:href="#C0_0_98d37c53a0" y="300.31875"/>
    </g>
    <g clip-path="url(#pea303e02f9)">
     <use style="fill:#ffffff;" x="117.468637" xlink:href="#C0_0_98d37c53a0" y="299.155928"/>
    </g>
    <g clip-path="url(#pea303e02f9)">
     <use style="fill:#ffffff;" x="122.574688" xlink:href="#C0_0_98d37c53a0" y="294.052434"/>
    </g>
    <g clip-path="url(#pea303e02f9)">
     <use style="fill:#ffffff;" x="117.326441" xlink:href="#C0_0_98d37c53a0" y="293.923232"/>
    </g>
    <g clip-path="url(#pea303e02f9)">
     <use style="fill:#ffffff;" x="127.148367" xlink:href="#C0_0_98d37c53a0" y="291.597589"/>
    </g>
    <g clip-path="url(#pea303e02f9)">
     <use style="fill:#ffffff;" x="112.961225" xlink:href="#C0_0_98d37c53a0" y="291.14538"/>
    </g>
    <g clip-path="url(#pea303e02f9)">
     <use style="fill:#ffffff;" x="132.311766" xlink:href="#C0_0_98d37c53a0" y="290.693172"/>
    </g>
    <g clip-path="url(#pea303e02f9)">
     <use style="fill:#ffffff;" x="122.574688" xlink:href="#C0_0_98d37c53a0" y="288.755136"/>
    </g>
    <g clip-path="url(#pea303e02f9)">
     <use style="fill:#ffffff;" x="117.927161" xlink:href="#C0_0_98d37c53a0" y="286.429493"/>
    </g>
    <g clip-path="url(#pea303e02f9)">
     <use style="fill:#ffffff;" x="124.319208" xlink:href="#C0_0_98d37c53a0" y="284.039249"/>
    </g>
    <g clip-path="url(#pea303e02f9)">
     <use style="fill:#ffffff;" x="120.09705" xlink:href="#C0_0_98d37c53a0" y="281.067595"/>
    </g>
    <g clip-path="url(#pea303e02f9)">
     <use style="fill:#ffffff;" x="126.245476" xlink:href="#C0_0_98d37c53a0" y="279.387964"/>
    </g>
    <g clip-path="url(#pea303e02f9)">
     <use style="fill:#ffffff;" x="122.574688" xlink:href="#C0_0_98d37c53a0" y="275.318089"/>
    </g>
    <g clip-path="url(#pea303e02f9)">
     <use style="fill:#ffffff;" x="122.574688" xlink:href="#C0_0_98d37c53a0" y="264.981898"/>
    </g>
    <g clip-path="url(#pea303e02f9)">
     <use style="fill:#ffffff;" x="117.340486" xlink:href="#C0_0_98d37c53a0" y="264.594291"/>
    </g>
    <g clip-path="url(#pea303e02f9)">
     <use style="fill:#ffffff;" x="122.574688" xlink:href="#C0_0_98d37c53a0" y="256.454541"/>
    </g>
    <g clip-path="url(#pea303e02f9)">
     <use style="fill:#ffffff;" x="119.524963" xlink:href="#C0_0_98d37c53a0" y="252.384666"/>
    </g>
    <g clip-path="url(#pea303e02f9)">
     <use style="fill:#ffffff;" x="122.574688" xlink:href="#C0_0_98d37c53a0" y="237.267987"/>
    </g>
    <g clip-path="url(#pea303e02f9)">
     <use style="fill:#ffffff;" x="117.424226" xlink:href="#C0_0_98d37c53a0" y="236.298969"/>
    </g>
    <g clip-path="url(#pea303e02f9)">
     <use style="fill:#ffffff;" x="122.574688" xlink:href="#C0_0_98d37c53a0" y="228.288421"/>
    </g>
    <g clip-path="url(#pea303e02f9)">
     <use style="fill:#ffffff;" x="122.574688" xlink:href="#C0_0_98d37c53a0" y="219.502659"/>
    </g>
    <g clip-path="url(#pea303e02f9)">
     <use style="fill:#ffffff;" x="122.574688" xlink:href="#C0_0_98d37c53a0" y="200.897516"/>
    </g>
    <g clip-path="url(#pea303e02f9)">
     <use style="fill:#ffffff;" x="122.574688" xlink:href="#C0_0_98d37c53a0" y="190.432123"/>
    </g>
    <g clip-path="url(#pea303e02f9)">
     <use style="fill:#ffffff;" x="118.748714" xlink:href="#C0_0_98d37c53a0" y="187.00826"/>
    </g>
    <g clip-path="url(#pea303e02f9)">
     <use style="fill:#ffffff;" x="122.574688" xlink:href="#C0_0_98d37c53a0" y="145.921902"/>
    </g>
    <g clip-path="url(#pea303e02f9)">
     <use style="fill:#ffffff;" x="122.574688" xlink:href="#C0_0_98d37c53a0" y="133.518474"/>
    </g>
   </g>
   <g id="PathCollection_2">
    <defs>
     <path d="M 0 2.5 
C 0.663008 2.5 1.29895 2.236584 1.767767 1.767767 
C 2.236584 1.29895 2.5 0.663008 2.5 0 
C 2.5 -0.663008 2.236584 -1.29895 1.767767 -1.767767 
C 1.29895 -2.236584 0.663008 -2.5 0 -2.5 
C -0.663008 -2.5 -1.29895 -2.236584 -1.767767 -1.767767 
C -2.236584 -1.29895 -2.5 -0.663008 -2.5 0 
C -2.5 0.663008 -2.236584 1.29895 -1.767767 1.767767 
C -1.29895 2.236584 -0.663008 2.5 0 2.5 
z
" id="C1_0_7dae13e65c"/>
    </defs>
    <g clip-path="url(#pea303e02f9)">
     <use style="fill:#ffffff;" x="285.789688" xlink:href="#C1_0_7dae13e65c" y="374.868524"/>
    </g>
    <g clip-path="url(#pea303e02f9)">
     <use style="fill:#ffffff;" x="285.789688" xlink:href="#C1_0_7dae13e65c" y="356.586387"/>
    </g>
    <g clip-path="url(#pea303e02f9)">
     <use style="fill:#ffffff;" x="285.789688" xlink:href="#C1_0_7dae13e65c" y="346.831607"/>
    </g>
    <g clip-path="url(#pea303e02f9)">
     <use style="fill:#ffffff;" x="285.789688" xlink:href="#C1_0_7dae13e65c" y="338.691857"/>
    </g>
    <g clip-path="url(#pea303e02f9)">
     <use style="fill:#ffffff;" x="283.282276" xlink:href="#C1_0_7dae13e65c" y="334.298976"/>
    </g>
    <g clip-path="url(#pea303e02f9)">
     <use style="fill:#ffffff;" x="288.457691" xlink:href="#C1_0_7dae13e65c" y="333.459161"/>
    </g>
    <g clip-path="url(#pea303e02f9)">
     <use style="fill:#ffffff;" x="278.917061" xlink:href="#C1_0_7dae13e65c" y="331.521125"/>
    </g>
    <g clip-path="url(#pea303e02f9)">
     <use style="fill:#ffffff;" x="285.789688" xlink:href="#C1_0_7dae13e65c" y="325.319411"/>
    </g>
    <g clip-path="url(#pea303e02f9)">
     <use style="fill:#ffffff;" x="280.539688" xlink:href="#C1_0_7dae13e65c" y="325.319411"/>
    </g>
    <g clip-path="url(#pea303e02f9)">
     <use style="fill:#ffffff;" x="285.789688" xlink:href="#C1_0_7dae13e65c" y="312.657577"/>
    </g>
    <g clip-path="url(#pea303e02f9)">
     <use style="fill:#ffffff;" x="282.473271" xlink:href="#C1_0_7dae13e65c" y="308.781506"/>
    </g>
    <g clip-path="url(#pea303e02f9)">
     <use style="fill:#ffffff;" x="287.340816" xlink:href="#C1_0_7dae13e65c" y="306.908071"/>
    </g>
    <g clip-path="url(#pea303e02f9)">
     <use style="fill:#ffffff;" x="292.57985" xlink:href="#C1_0_7dae13e65c" y="306.585065"/>
    </g>
    <g clip-path="url(#pea303e02f9)">
     <use style="fill:#ffffff;" x="285.789688" xlink:href="#C1_0_7dae13e65c" y="276.287106"/>
    </g>
    <g clip-path="url(#pea303e02f9)">
     <use style="fill:#ffffff;" x="285.789688" xlink:href="#C1_0_7dae13e65c" y="266.72613"/>
    </g>
    <g clip-path="url(#pea303e02f9)">
     <use style="fill:#ffffff;" x="280.844774" xlink:href="#C1_0_7dae13e65c" y="265.046499"/>
    </g>
    <g clip-path="url(#pea303e02f9)">
     <use style="fill:#ffffff;" x="285.789688" xlink:href="#C1_0_7dae13e65c" y="235.782159"/>
    </g>
    <g clip-path="url(#pea303e02f9)">
     <use style="fill:#ffffff;" x="285.789688" xlink:href="#C1_0_7dae13e65c" y="224.864558"/>
    </g>
    <g clip-path="url(#pea303e02f9)">
     <use style="fill:#ffffff;" x="285.789688" xlink:href="#C1_0_7dae13e65c" y="152.511224"/>
    </g>
   </g>
   <g id="PathCollection_3">
    <defs>
     <path d="M 0 2.5 
C 0.663008 2.5 1.29895 2.236584 1.767767 1.767767 
C 2.236584 1.29895 2.5 0.663008 2.5 0 
C 2.5 -0.663008 2.236584 -1.29895 1.767767 -1.767767 
C 1.29895 -2.236584 0.663008 -2.5 0 -2.5 
C -0.663008 -2.5 -1.29895 -2.236584 -1.767767 -1.767767 
C -2.236584 -1.29895 -2.5 -0.663008 -2.5 0 
C -2.5 0.663008 -2.236584 1.29895 -1.767767 1.767767 
C -1.29895 2.236584 -0.663008 2.5 0 2.5 
z
" id="C2_0_948ded809b"/>
    </defs>
    <g clip-path="url(#pea303e02f9)">
     <use style="fill:#ffffff;" x="449.004688" xlink:href="#C2_0_948ded809b" y="392.181644"/>
    </g>
    <g clip-path="url(#pea303e02f9)">
     <use style="fill:#ffffff;" x="449.004688" xlink:href="#C2_0_948ded809b" y="365.178346"/>
    </g>
    <g clip-path="url(#pea303e02f9)">
     <use style="fill:#ffffff;" x="444.940784" xlink:href="#C2_0_948ded809b" y="362.012887"/>
    </g>
    <g clip-path="url(#pea303e02f9)">
     <use style="fill:#ffffff;" x="449.004688" xlink:href="#C2_0_948ded809b" y="350.320072"/>
    </g>
    <g clip-path="url(#pea303e02f9)">
     <use style="fill:#ffffff;" x="445.116091" xlink:href="#C2_0_948ded809b" y="346.96081"/>
    </g>
    <g clip-path="url(#pea303e02f9)">
     <use style="fill:#ffffff;" x="449.435213" xlink:href="#C2_0_948ded809b" y="344.118357"/>
    </g>
    <g clip-path="url(#pea303e02f9)">
     <use style="fill:#ffffff;" x="454.657093" xlink:href="#C2_0_948ded809b" y="343.601548"/>
    </g>
    <g clip-path="url(#pea303e02f9)">
     <use style="fill:#ffffff;" x="441.492071" xlink:href="#C2_0_948ded809b" y="343.343143"/>
    </g>
    <g clip-path="url(#pea303e02f9)">
     <use style="fill:#ffffff;" x="459.763143" xlink:href="#C2_0_948ded809b" y="342.438726"/>
    </g>
    <g clip-path="url(#pea303e02f9)">
     <use style="fill:#ffffff;" x="436.957288" xlink:href="#C2_0_948ded809b" y="340.823697"/>
    </g>
    <g clip-path="url(#pea303e02f9)">
     <use style="fill:#ffffff;" x="447.690692" xlink:href="#C2_0_948ded809b" y="339.40247"/>
    </g>
    <g clip-path="url(#pea303e02f9)">
     <use style="fill:#ffffff;" x="452.373232" xlink:href="#C2_0_948ded809b" y="337.141429"/>
    </g>
    <g clip-path="url(#pea303e02f9)">
     <use style="fill:#ffffff;" x="443.079442" xlink:href="#C2_0_948ded809b" y="337.012226"/>
    </g>
    <g clip-path="url(#pea303e02f9)">
     <use style="fill:#ffffff;" x="448.008016" xlink:href="#C2_0_948ded809b" y="334.363577"/>
    </g>
    <g clip-path="url(#pea303e02f9)">
     <use style="fill:#ffffff;" x="451.484289" xlink:href="#C2_0_948ded809b" y="330.616708"/>
    </g>
    <g clip-path="url(#pea303e02f9)">
     <use style="fill:#ffffff;" x="445.37966" xlink:href="#C2_0_948ded809b" y="330.035298"/>
    </g>
    <g clip-path="url(#pea303e02f9)">
     <use style="fill:#ffffff;" x="456.620885" xlink:href="#C2_0_948ded809b" y="329.583089"/>
    </g>
    <g clip-path="url(#pea303e02f9)">
     <use style="fill:#ffffff;" x="440.326599" xlink:href="#C2_0_948ded809b" y="328.678673"/>
    </g>
    <g clip-path="url(#pea303e02f9)">
     <use style="fill:#ffffff;" x="448.855932" xlink:href="#C2_0_948ded809b" y="326.288429"/>
    </g>
    <g clip-path="url(#pea303e02f9)">
     <use style="fill:#ffffff;" x="460.509482" xlink:href="#C2_0_948ded809b" y="326.223827"/>
    </g>
    <g clip-path="url(#pea303e02f9)">
     <use style="fill:#ffffff;" x="436.155422" xlink:href="#C2_0_948ded809b" y="325.642417"/>
    </g>
    <g clip-path="url(#pea303e02f9)">
     <use style="fill:#ffffff;" x="452.617017" xlink:href="#C2_0_948ded809b" y="322.799964"/>
    </g>
    <g clip-path="url(#pea303e02f9)">
     <use style="fill:#ffffff;" x="447.111412" xlink:href="#C2_0_948ded809b" y="321.572542"/>
    </g>
    <g clip-path="url(#pea303e02f9)">
     <use style="fill:#ffffff;" x="442.300917" xlink:href="#C2_0_948ded809b" y="319.569905"/>
    </g>
    <g clip-path="url(#pea303e02f9)">
     <use style="fill:#ffffff;" x="449.004688" xlink:href="#C2_0_948ded809b" y="316.856655"/>
    </g>
    <g clip-path="url(#pea303e02f9)">
     <use style="fill:#ffffff;" x="453.899098" xlink:href="#C2_0_948ded809b" y="315.047821"/>
    </g>
    <g clip-path="url(#pea303e02f9)">
     <use style="fill:#ffffff;" x="444.255801" xlink:href="#C2_0_948ded809b" y="314.724815"/>
    </g>
    <g clip-path="url(#pea303e02f9)">
     <use style="fill:#ffffff;" x="458.581638" xlink:href="#C2_0_948ded809b" y="312.78678"/>
    </g>
    <g clip-path="url(#pea303e02f9)">
     <use style="fill:#ffffff;" x="449.004688" xlink:href="#C2_0_948ded809b" y="311.688559"/>
    </g>
    <g clip-path="url(#pea303e02f9)">
     <use style="fill:#ffffff;" x="441.206076" xlink:href="#C2_0_948ded809b" y="310.65494"/>
    </g>
    <g clip-path="url(#pea303e02f9)">
     <use style="fill:#ffffff;" x="435.984196" xlink:href="#C2_0_948ded809b" y="310.138131"/>
    </g>
    <g clip-path="url(#pea303e02f9)">
     <use style="fill:#ffffff;" x="453.899098" xlink:href="#C2_0_948ded809b" y="309.879726"/>
    </g>
    <g clip-path="url(#pea303e02f9)">
     <use style="fill:#ffffff;" x="461.089049" xlink:href="#C2_0_948ded809b" y="308.393899"/>
    </g>
    <g clip-path="url(#pea303e02f9)">
     <use style="fill:#ffffff;" x="449.004688" xlink:href="#C2_0_948ded809b" y="306.649666"/>
    </g>
    <g clip-path="url(#pea303e02f9)">
     <use style="fill:#ffffff;" x="443.841289" xlink:href="#C2_0_948ded809b" y="305.74525"/>
    </g>
    <g clip-path="url(#pea303e02f9)">
     <use style="fill:#ffffff;" x="452.147291" xlink:href="#C2_0_948ded809b" y="302.644393"/>
    </g>
    <g clip-path="url(#pea303e02f9)">
     <use style="fill:#ffffff;" x="446.983892" xlink:href="#C2_0_948ded809b" y="301.739976"/>
    </g>
    <g clip-path="url(#pea303e02f9)">
     <use style="fill:#ffffff;" x="454.889589" xlink:href="#C2_0_948ded809b" y="298.380714"/>
    </g>
    <g clip-path="url(#pea303e02f9)">
     <use style="fill:#ffffff;" x="449.004688" xlink:href="#C2_0_948ded809b" y="297.153291"/>
    </g>
    <g clip-path="url(#pea303e02f9)">
     <use style="fill:#ffffff;" x="443.758633" xlink:href="#C2_0_948ded809b" y="296.959488"/>
    </g>
    <g clip-path="url(#pea303e02f9)">
     <use style="fill:#ffffff;" x="438.509071" xlink:href="#C2_0_948ded809b" y="296.894886"/>
    </g>
    <g clip-path="url(#pea303e02f9)">
     <use style="fill:#ffffff;" x="459.638476" xlink:href="#C2_0_948ded809b" y="296.248875"/>
    </g>
    <g clip-path="url(#pea303e02f9)">
     <use style="fill:#ffffff;" x="433.303075" xlink:href="#C2_0_948ded809b" y="296.248875"/>
    </g>
    <g clip-path="url(#pea303e02f9)">
     <use style="fill:#ffffff;" x="464.418747" xlink:href="#C2_0_948ded809b" y="294.181636"/>
    </g>
    <g clip-path="url(#pea303e02f9)">
     <use style="fill:#ffffff;" x="428.691826" xlink:href="#C2_0_948ded809b" y="293.85863"/>
    </g>
    <g clip-path="url(#pea303e02f9)">
     <use style="fill:#ffffff;" x="452.55625" xlink:href="#C2_0_948ded809b" y="293.471023"/>
    </g>
    <g clip-path="url(#pea303e02f9)">
     <use style="fill:#ffffff;" x="447.839932" xlink:href="#C2_0_948ded809b" y="291.274583"/>
    </g>
    <g clip-path="url(#pea303e02f9)">
     <use style="fill:#ffffff;" x="449.004688" xlink:href="#C2_0_948ded809b" y="285.072868"/>
    </g>
    <g clip-path="url(#pea303e02f9)">
     <use style="fill:#ffffff;" x="443.882892" xlink:href="#C2_0_948ded809b" y="283.974648"/>
    </g>
    <g clip-path="url(#pea303e02f9)">
     <use style="fill:#ffffff;" x="453.369903" xlink:href="#C2_0_948ded809b" y="282.295017"/>
    </g>
    <g clip-path="url(#pea303e02f9)">
     <use style="fill:#ffffff;" x="458.520365" xlink:href="#C2_0_948ded809b" y="281.325999"/>
    </g>
    <g clip-path="url(#pea303e02f9)">
     <use style="fill:#ffffff;" x="439.711715" xlink:href="#C2_0_948ded809b" y="280.938392"/>
    </g>
    <g clip-path="url(#pea303e02f9)">
     <use style="fill:#ffffff;" x="434.461715" xlink:href="#C2_0_948ded809b" y="280.938392"/>
    </g>
    <g clip-path="url(#pea303e02f9)">
     <use style="fill:#ffffff;" x="448.758653" xlink:href="#C2_0_948ded809b" y="279.904773"/>
    </g>
    <g clip-path="url(#pea303e02f9)">
     <use style="fill:#ffffff;" x="463.465278" xlink:href="#C2_0_948ded809b" y="279.646368"/>
    </g>
    <g clip-path="url(#pea303e02f9)">
     <use style="fill:#ffffff;" x="429.814189" xlink:href="#C2_0_948ded809b" y="278.612749"/>
    </g>
    <g clip-path="url(#pea303e02f9)">
     <use style="fill:#ffffff;" x="468.536971" xlink:href="#C2_0_948ded809b" y="278.354345"/>
    </g>
    <g clip-path="url(#pea303e02f9)">
     <use style="fill:#ffffff;" x="452.92983" xlink:href="#C2_0_948ded809b" y="276.868517"/>
    </g>
    <g clip-path="url(#pea303e02f9)">
     <use style="fill:#ffffff;" x="449.004688" xlink:href="#C2_0_948ded809b" y="271.829624"/>
    </g>
    <g clip-path="url(#pea303e02f9)">
     <use style="fill:#ffffff;" x="444.594903" xlink:href="#C2_0_948ded809b" y="269.116374"/>
    </g>
    <g clip-path="url(#pea303e02f9)">
     <use style="fill:#ffffff;" x="450.930956" xlink:href="#C2_0_948ded809b" y="267.178338"/>
    </g>
    <g clip-path="url(#pea303e02f9)">
     <use style="fill:#ffffff;" x="455.899539" xlink:href="#C2_0_948ded809b" y="265.563309"/>
    </g>
    <g clip-path="url(#pea303e02f9)">
     <use style="fill:#ffffff;" x="449.004688" xlink:href="#C2_0_948ded809b" y="256.906749"/>
    </g>
    <g clip-path="url(#pea303e02f9)">
     <use style="fill:#ffffff;" x="443.765654" xlink:href="#C2_0_948ded809b" y="256.583743"/>
    </g>
    <g clip-path="url(#pea303e02f9)">
     <use style="fill:#ffffff;" x="453.949601" xlink:href="#C2_0_948ded809b" y="255.227118"/>
    </g>
    <g clip-path="url(#pea303e02f9)">
     <use style="fill:#ffffff;" x="449.004688" xlink:href="#C2_0_948ded809b" y="249.154606"/>
    </g>
    <g clip-path="url(#pea303e02f9)">
     <use style="fill:#ffffff;" x="443.776203" xlink:href="#C2_0_948ded809b" y="248.702398"/>
    </g>
    <g clip-path="url(#pea303e02f9)">
     <use style="fill:#ffffff;" x="451.512099" xlink:href="#C2_0_948ded809b" y="244.761725"/>
    </g>
    <g clip-path="url(#pea303e02f9)">
     <use style="fill:#ffffff;" x="447.623502" xlink:href="#C2_0_948ded809b" y="241.402463"/>
    </g>
    <g clip-path="url(#pea303e02f9)">
     <use style="fill:#ffffff;" x="453.752013" xlink:href="#C2_0_948ded809b" y="240.239642"/>
    </g>
    <g clip-path="url(#pea303e02f9)">
     <use style="fill:#ffffff;" x="443.352049" xlink:href="#C2_0_948ded809b" y="238.49541"/>
    </g>
    <g clip-path="url(#pea303e02f9)">
     <use style="fill:#ffffff;" x="449.004688" xlink:href="#C2_0_948ded809b" y="236.428171"/>
    </g>
    <g clip-path="url(#pea303e02f9)">
     <use style="fill:#ffffff;" x="449.004688" xlink:href="#C2_0_948ded809b" y="230.161856"/>
    </g>
    <g clip-path="url(#pea303e02f9)">
     <use style="fill:#ffffff;" x="443.756441" xlink:href="#C2_0_948ded809b" y="230.032653"/>
    </g>
    <g clip-path="url(#pea303e02f9)">
     <use style="fill:#ffffff;" x="449.004688" xlink:href="#C2_0_948ded809b" y="224.476951"/>
    </g>
    <g clip-path="url(#pea303e02f9)">
     <use style="fill:#ffffff;" x="449.004688" xlink:href="#C2_0_948ded809b" y="217.823028"/>
    </g>
    <g clip-path="url(#pea303e02f9)">
     <use style="fill:#ffffff;" x="454.226568" xlink:href="#C2_0_948ded809b" y="217.306219"/>
    </g>
    <g clip-path="url(#pea303e02f9)">
     <use style="fill:#ffffff;" x="449.004688" xlink:href="#C2_0_948ded809b" y="210.006284"/>
    </g>
    <g clip-path="url(#pea303e02f9)">
     <use style="fill:#ffffff;" x="449.004688" xlink:href="#C2_0_948ded809b" y="199.928498"/>
    </g>
    <g clip-path="url(#pea303e02f9)">
     <use style="fill:#ffffff;" x="449.004688" xlink:href="#C2_0_948ded809b" y="180.548141"/>
    </g>
    <g clip-path="url(#pea303e02f9)">
     <use style="fill:#ffffff;" x="449.004688" xlink:href="#C2_0_948ded809b" y="166.465081"/>
    </g>
    <g clip-path="url(#pea303e02f9)">
     <use style="fill:#ffffff;" x="447.078419" xlink:href="#C2_0_948ded809b" y="161.813795"/>
    </g>
    <g clip-path="url(#pea303e02f9)">
     <use style="fill:#ffffff;" x="449.456815" xlink:href="#C2_0_948ded809b" y="157.356313"/>
    </g>
    <g clip-path="url(#pea303e02f9)">
     <use style="fill:#ffffff;" x="449.004688" xlink:href="#C2_0_948ded809b" y="125.830932"/>
    </g>
    <g clip-path="url(#pea303e02f9)">
     <use style="fill:#ffffff;" x="449.004688" xlink:href="#C2_0_948ded809b" y="100.184259"/>
    </g>
    <g clip-path="url(#pea303e02f9)">
     <use style="fill:#ffffff;" x="443.770486" xlink:href="#C2_0_948ded809b" y="99.796652"/>
    </g>
    <g clip-path="url(#pea303e02f9)">
     <use style="fill:#ffffff;" x="449.004688" xlink:href="#C2_0_948ded809b" y="83.775556"/>
    </g>
   </g>
   <g id="PathCollection_4">
    <defs>
     <path d="M 0 2.5 
C 0.663008 2.5 1.29895 2.236584 1.767767 1.767767 
C 2.236584 1.29895 2.5 0.663008 2.5 0 
C 2.5 -0.663008 2.236584 -1.29895 1.767767 -1.767767 
C 1.29895 -2.236584 0.663008 -2.5 0 -2.5 
C -0.663008 -2.5 -1.29895 -2.236584 -1.767767 -1.767767 
C -2.236584 -1.29895 -2.5 -0.663008 -2.5 0 
C -2.5 0.663008 -2.236584 1.29895 -1.767767 1.767767 
C -1.29895 2.236584 -0.663008 2.5 0 2.5 
z
" id="C3_0_d540e26171"/>
    </defs>
    <g clip-path="url(#pea303e02f9)">
     <use style="fill:#ffffff;" x="612.219688" xlink:href="#C3_0_d540e26171" y="365.178346"/>
    </g>
    <g clip-path="url(#pea303e02f9)">
     <use style="fill:#ffffff;" x="612.219688" xlink:href="#C3_0_d540e26171" y="355.358965"/>
    </g>
    <g clip-path="url(#pea303e02f9)">
     <use style="fill:#ffffff;" x="612.219688" xlink:href="#C3_0_d540e26171" y="349.997066"/>
    </g>
    <g clip-path="url(#pea303e02f9)">
     <use style="fill:#ffffff;" x="606.997807" xlink:href="#C3_0_d540e26171" y="349.480256"/>
    </g>
    <g clip-path="url(#pea303e02f9)">
     <use style="fill:#ffffff;" x="616.936005" xlink:href="#C3_0_d540e26171" y="347.800625"/>
    </g>
    <g clip-path="url(#pea303e02f9)">
     <use style="fill:#ffffff;" x="603.599846" xlink:href="#C3_0_d540e26171" y="345.668786"/>
    </g>
    <g clip-path="url(#pea303e02f9)">
     <use style="fill:#ffffff;" x="621.618545" xlink:href="#C3_0_d540e26171" y="345.539584"/>
    </g>
    <g clip-path="url(#pea303e02f9)">
     <use style="fill:#ffffff;" x="610.475167" xlink:href="#C3_0_d540e26171" y="345.281179"/>
    </g>
    <g clip-path="url(#pea303e02f9)">
     <use style="fill:#ffffff;" x="598.371361" xlink:href="#C3_0_d540e26171" y="345.216578"/>
    </g>
    <g clip-path="url(#pea303e02f9)">
     <use style="fill:#ffffff;" x="612.219688" xlink:href="#C3_0_d540e26171" y="331.004316"/>
    </g>
    <g clip-path="url(#pea303e02f9)">
     <use style="fill:#ffffff;" x="607.033172" xlink:href="#C3_0_d540e26171" y="330.229101"/>
    </g>
    <g clip-path="url(#pea303e02f9)">
     <use style="fill:#ffffff;" x="615.617649" xlink:href="#C3_0_d540e26171" y="327.192845"/>
    </g>
    <g clip-path="url(#pea303e02f9)">
     <use style="fill:#ffffff;" x="610.672736" xlink:href="#C3_0_d540e26171" y="325.513214"/>
    </g>
    <g clip-path="url(#pea303e02f9)">
     <use style="fill:#ffffff;" x="618.125061" xlink:href="#C3_0_d540e26171" y="322.799964"/>
    </g>
    <g clip-path="url(#pea303e02f9)">
     <use style="fill:#ffffff;" x="606.978925" xlink:href="#C3_0_d540e26171" y="321.960149"/>
    </g>
    <g clip-path="url(#pea303e02f9)">
     <use style="fill:#ffffff;" x="613.180147" xlink:href="#C3_0_d540e26171" y="321.120333"/>
    </g>
    <g clip-path="url(#pea303e02f9)">
     <use style="fill:#ffffff;" x="620.753418" xlink:href="#C3_0_d540e26171" y="318.471684"/>
    </g>
    <g clip-path="url(#pea303e02f9)">
     <use style="fill:#ffffff;" x="611.090061" xlink:href="#C3_0_d540e26171" y="316.533649"/>
    </g>
    <g clip-path="url(#pea303e02f9)">
     <use style="fill:#ffffff;" x="605.851027" xlink:href="#C3_0_d540e26171" y="316.210643"/>
    </g>
    <g clip-path="url(#pea303e02f9)">
     <use style="fill:#ffffff;" x="616.034974" xlink:href="#C3_0_d540e26171" y="314.854018"/>
    </g>
    <g clip-path="url(#pea303e02f9)">
     <use style="fill:#ffffff;" x="620.608654" xlink:href="#C3_0_d540e26171" y="312.399172"/>
    </g>
    <g clip-path="url(#pea303e02f9)">
     <use style="fill:#ffffff;" x="612.219688" xlink:href="#C3_0_d540e26171" y="310.65494"/>
    </g>
    <g clip-path="url(#pea303e02f9)">
     <use style="fill:#ffffff;" x="608.331091" xlink:href="#C3_0_d540e26171" y="307.295678"/>
    </g>
    <g clip-path="url(#pea303e02f9)">
     <use style="fill:#ffffff;" x="615.536104" xlink:href="#C3_0_d540e26171" y="306.778869"/>
    </g>
    <g clip-path="url(#pea303e02f9)">
     <use style="fill:#ffffff;" x="620.607797" xlink:href="#C3_0_d540e26171" y="305.486845"/>
    </g>
    <g clip-path="url(#pea303e02f9)">
     <use style="fill:#ffffff;" x="611.710131" xlink:href="#C3_0_d540e26171" y="303.355006"/>
    </g>
    <g clip-path="url(#pea303e02f9)">
     <use style="fill:#ffffff;" x="606.559669" xlink:href="#C3_0_d540e26171" y="302.385988"/>
    </g>
    <g clip-path="url(#pea303e02f9)">
     <use style="fill:#ffffff;" x="601.311422" xlink:href="#C3_0_d540e26171" y="302.256785"/>
    </g>
    <g clip-path="url(#pea303e02f9)">
     <use style="fill:#ffffff;" x="616.029252" xlink:href="#C3_0_d540e26171" y="300.512553"/>
    </g>
    <g clip-path="url(#pea303e02f9)">
     <use style="fill:#ffffff;" x="621.268286" xlink:href="#C3_0_d540e26171" y="300.189547"/>
    </g>
    <g clip-path="url(#pea303e02f9)">
     <use style="fill:#ffffff;" x="626.418748" xlink:href="#C3_0_d540e26171" y="299.220529"/>
    </g>
    <g clip-path="url(#pea303e02f9)">
     <use style="fill:#ffffff;" x="597.422825" xlink:href="#C3_0_d540e26171" y="298.897523"/>
    </g>
    <g clip-path="url(#pea303e02f9)">
     <use style="fill:#ffffff;" x="612.219688" xlink:href="#C3_0_d540e26171" y="296.442678"/>
    </g>
    <g clip-path="url(#pea303e02f9)">
     <use style="fill:#ffffff;" x="617.370149" xlink:href="#C3_0_d540e26171" y="295.47366"/>
    </g>
    <g clip-path="url(#pea303e02f9)">
     <use style="fill:#ffffff;" x="607.274774" xlink:href="#C3_0_d540e26171" y="294.763047"/>
    </g>
    <g clip-path="url(#pea303e02f9)">
     <use style="fill:#ffffff;" x="602.111375" xlink:href="#C3_0_d540e26171" y="293.85863"/>
    </g>
    <g clip-path="url(#pea303e02f9)">
     <use style="fill:#ffffff;" x="621.904933" xlink:href="#C3_0_d540e26171" y="292.954214"/>
    </g>
    <g clip-path="url(#pea303e02f9)">
     <use style="fill:#ffffff;" x="612.219688" xlink:href="#C3_0_d540e26171" y="286.106488"/>
    </g>
    <g clip-path="url(#pea303e02f9)">
     <use style="fill:#ffffff;" x="607.325277" xlink:href="#C3_0_d540e26171" y="284.297654"/>
    </g>
    <g clip-path="url(#pea303e02f9)">
     <use style="fill:#ffffff;" x="612.219688" xlink:href="#C3_0_d540e26171" y="278.354345"/>
    </g>
    <g clip-path="url(#pea303e02f9)">
     <use style="fill:#ffffff;" x="606.991203" xlink:href="#C3_0_d540e26171" y="277.902136"/>
    </g>
    <g clip-path="url(#pea303e02f9)">
     <use style="fill:#ffffff;" x="617.272748" xlink:href="#C3_0_d540e26171" y="276.99772"/>
    </g>
    <g clip-path="url(#pea303e02f9)">
     <use style="fill:#ffffff;" x="602.022619" xlink:href="#C3_0_d540e26171" y="276.287106"/>
    </g>
    <g clip-path="url(#pea303e02f9)">
     <use style="fill:#ffffff;" x="612.219688" xlink:href="#C3_0_d540e26171" y="273.121648"/>
    </g>
    <g clip-path="url(#pea303e02f9)">
     <use style="fill:#ffffff;" x="606.997807" xlink:href="#C3_0_d540e26171" y="272.604839"/>
    </g>
    <g clip-path="url(#pea303e02f9)">
     <use style="fill:#ffffff;" x="610.475167" xlink:href="#C3_0_d540e26171" y="268.405761"/>
    </g>
    <g clip-path="url(#pea303e02f9)">
     <use style="fill:#ffffff;" x="612.219688" xlink:href="#C3_0_d540e26171" y="262.785457"/>
    </g>
    <g clip-path="url(#pea303e02f9)">
     <use style="fill:#ffffff;" x="606.991203" xlink:href="#C3_0_d540e26171" y="262.333249"/>
    </g>
    <g clip-path="url(#pea303e02f9)">
     <use style="fill:#ffffff;" x="617.232524" xlink:href="#C3_0_d540e26171" y="261.29963"/>
    </g>
    <g clip-path="url(#pea303e02f9)">
     <use style="fill:#ffffff;" x="603.042141" xlink:href="#C3_0_d540e26171" y="259.038588"/>
    </g>
    <g clip-path="url(#pea303e02f9)">
     <use style="fill:#ffffff;" x="612.219688" xlink:href="#C3_0_d540e26171" y="257.294356"/>
    </g>
    <g clip-path="url(#pea303e02f9)">
     <use style="fill:#ffffff;" x="608.668125" xlink:href="#C3_0_d540e26171" y="253.612088"/>
    </g>
    <g clip-path="url(#pea303e02f9)">
     <use style="fill:#ffffff;" x="615.536104" xlink:href="#C3_0_d540e26171" y="253.418285"/>
    </g>
    <g clip-path="url(#pea303e02f9)">
     <use style="fill:#ffffff;" x="620.779088" xlink:href="#C3_0_d540e26171" y="253.15988"/>
    </g>
    <g clip-path="url(#pea303e02f9)">
     <use style="fill:#ffffff;" x="604.549677" xlink:href="#C3_0_d540e26171" y="250.511231"/>
    </g>
    <g clip-path="url(#pea303e02f9)">
     <use style="fill:#ffffff;" x="612.219688" xlink:href="#C3_0_d540e26171" y="248.637797"/>
    </g>
    <g clip-path="url(#pea303e02f9)">
     <use style="fill:#ffffff;" x="617.139882" xlink:href="#C3_0_d540e26171" y="246.893564"/>
    </g>
    <g clip-path="url(#pea303e02f9)">
     <use style="fill:#ffffff;" x="607.809903" xlink:href="#C3_0_d540e26171" y="245.924547"/>
    </g>
    <g clip-path="url(#pea303e02f9)">
     <use style="fill:#ffffff;" x="612.219688" xlink:href="#C3_0_d540e26171" y="238.366207"/>
    </g>
    <g clip-path="url(#pea303e02f9)">
     <use style="fill:#ffffff;" x="612.219688" xlink:href="#C3_0_d540e26171" y="227.577808"/>
    </g>
    <g clip-path="url(#pea303e02f9)">
     <use style="fill:#ffffff;" x="612.219688" xlink:href="#C3_0_d540e26171" y="219.179653"/>
    </g>
    <g clip-path="url(#pea303e02f9)">
     <use style="fill:#ffffff;" x="606.997807" xlink:href="#C3_0_d540e26171" y="218.662844"/>
    </g>
    <g clip-path="url(#pea303e02f9)">
     <use style="fill:#ffffff;" x="615.913498" xlink:href="#C3_0_d540e26171" y="215.626588"/>
    </g>
    <g clip-path="url(#pea303e02f9)">
     <use style="fill:#ffffff;" x="621.147699" xlink:href="#C3_0_d540e26171" y="215.238981"/>
    </g>
    <g clip-path="url(#pea303e02f9)">
     <use style="fill:#ffffff;" x="612.219688" xlink:href="#C3_0_d540e26171" y="207.163832"/>
    </g>
    <g clip-path="url(#pea303e02f9)">
     <use style="fill:#ffffff;" x="607.056289" xlink:href="#C3_0_d540e26171" y="206.259415"/>
    </g>
    <g clip-path="url(#pea303e02f9)">
     <use style="fill:#ffffff;" x="614.598083" xlink:href="#C3_0_d540e26171" y="202.70635"/>
    </g>
    <g clip-path="url(#pea303e02f9)">
     <use style="fill:#ffffff;" x="610.590614" xlink:href="#C3_0_d540e26171" y="199.47629"/>
    </g>
    <g clip-path="url(#pea303e02f9)">
     <use style="fill:#ffffff;" x="612.219688" xlink:href="#C3_0_d540e26171" y="188.300284"/>
    </g>
    <g clip-path="url(#pea303e02f9)">
     <use style="fill:#ffffff;" x="606.971441" xlink:href="#C3_0_d540e26171" y="188.171081"/>
    </g>
    <g clip-path="url(#pea303e02f9)">
     <use style="fill:#ffffff;" x="617.325738" xlink:href="#C3_0_d540e26171" y="187.137462"/>
    </g>
    <g clip-path="url(#pea303e02f9)">
     <use style="fill:#ffffff;" x="603.74005" xlink:href="#C3_0_d540e26171" y="184.230409"/>
    </g>
    <g clip-path="url(#pea303e02f9)">
     <use style="fill:#ffffff;" x="612.219688" xlink:href="#C3_0_d540e26171" y="166.077474"/>
    </g>
    <g clip-path="url(#pea303e02f9)">
     <use style="fill:#ffffff;" x="612.219688" xlink:href="#C3_0_d540e26171" y="150.056379"/>
    </g>
    <g clip-path="url(#pea303e02f9)">
     <use style="fill:#ffffff;" x="612.219688" xlink:href="#C3_0_d540e26171" y="119.047807"/>
    </g>
    <g clip-path="url(#pea303e02f9)">
     <use style="fill:#ffffff;" x="612.219688" xlink:href="#C3_0_d540e26171" y="100.830271"/>
    </g>
   </g>
  </g>
 </g>
 <defs>
  <clipPath id="pea303e02f9">
   <rect height="449.5572" width="652.86" x="40.967188" y="13.2"/>
  </clipPath>
 </defs>
</svg>
