<?xml version="1.0" encoding="utf-8" standalone="no"?>
<!DOCTYPE svg PUBLIC "-//W3C//DTD SVG 1.1//EN"
  "http://www.w3.org/Graphics/SVG/1.1/DTD/svg11.dtd">
<!-- Created with matplotlib (http://matplotlib.org/) -->
<svg height="256pt" version="1.1" viewBox="0 0 376 256" width="376pt" xmlns="http://www.w3.org/2000/svg" xmlns:xlink="http://www.w3.org/1999/xlink">
 <defs>
  <style type="text/css">
*{stroke-linecap:butt;stroke-linejoin:round;}
  </style>
 </defs>
 <g id="figure_1">
  <g id="patch_1">
   <path d="M 0 256.485313 
L 376.101562 256.485313 
L 376.101562 0 
L 0 0 
z
" style="fill:#ffffff;"/>
  </g>
  <g id="axes_1">
   <g id="patch_2">
    <path d="M 28.101562 230.64 
L 362.901563 230.64 
L 362.901563 13.2 
L 28.101562 13.2 
z
" style="fill:#ffffff;"/>
   </g>
   <g id="matplotlib.axis_1">
    <g id="xtick_1">
     <g id="line2d_1">
      <defs>
       <path d="M 0 0 
L 0 6 
" id="m6e0a0a1a88" style="stroke:#262626;stroke-width:0.8;"/>
      </defs>
      <g>
       <use style="fill:#262626;stroke:#262626;stroke-width:0.8;" x="43.319744" xlink:href="#m6e0a0a1a88" y="230.64"/>
      </g>
     </g>
     <g id="text_1">
      <!-- 0 -->
      <defs>
       <path d="M 4.15625 35.296875 
Q 4.15625 48 6.765625 55.734375 
Q 9.375 63.484375 14.515625 67.671875 
Q 19.671875 71.875 27.484375 71.875 
Q 33.25 71.875 37.59375 69.546875 
Q 41.9375 67.234375 44.765625 62.859375 
Q 47.609375 58.5 49.21875 52.21875 
Q 50.828125 45.953125 50.828125 35.296875 
Q 50.828125 22.703125 48.234375 14.96875 
Q 45.65625 7.234375 40.5 3 
Q 35.359375 -1.21875 27.484375 -1.21875 
Q 17.140625 -1.21875 11.234375 6.203125 
Q 4.15625 15.140625 4.15625 35.296875 
z
M 13.1875 35.296875 
Q 13.1875 17.671875 17.3125 11.828125 
Q 21.4375 6 27.484375 6 
Q 33.546875 6 37.671875 11.859375 
Q 41.796875 17.71875 41.796875 35.296875 
Q 41.796875 52.984375 37.671875 58.78125 
Q 33.546875 64.59375 27.390625 64.59375 
Q 21.34375 64.59375 17.71875 59.46875 
Q 13.1875 52.9375 13.1875 35.296875 
z
" id="ArialMT-30"/>
      </defs>
      <g style="fill:#262626;" transform="translate(40.539276 247.297813)scale(0.1 -0.1)">
       <use xlink:href="#ArialMT-30"/>
      </g>
     </g>
    </g>
    <g id="xtick_2">
     <g id="line2d_2">
      <g>
       <use style="fill:#262626;stroke:#262626;stroke-width:0.8;" x="104.807348" xlink:href="#m6e0a0a1a88" y="230.64"/>
      </g>
     </g>
     <g id="text_2">
      <!-- 20 -->
      <defs>
       <path d="M 50.34375 8.453125 
L 50.34375 0 
L 3.03125 0 
Q 2.9375 3.171875 4.046875 6.109375 
Q 5.859375 10.9375 9.828125 15.625 
Q 13.8125 20.3125 21.34375 26.46875 
Q 33.015625 36.03125 37.109375 41.625 
Q 41.21875 47.21875 41.21875 52.203125 
Q 41.21875 57.421875 37.46875 61 
Q 33.734375 64.59375 27.734375 64.59375 
Q 21.390625 64.59375 17.578125 60.78125 
Q 13.765625 56.984375 13.71875 50.25 
L 4.6875 51.171875 
Q 5.609375 61.28125 11.65625 66.578125 
Q 17.71875 71.875 27.9375 71.875 
Q 38.234375 71.875 44.234375 66.15625 
Q 50.25 60.453125 50.25 52 
Q 50.25 47.703125 48.484375 43.546875 
Q 46.734375 39.40625 42.65625 34.8125 
Q 38.578125 30.21875 29.109375 22.21875 
Q 21.1875 15.578125 18.9375 13.203125 
Q 16.703125 10.84375 15.234375 8.453125 
z
" id="ArialMT-32"/>
      </defs>
      <g style="fill:#262626;" transform="translate(99.24641 247.297813)scale(0.1 -0.1)">
       <use xlink:href="#ArialMT-32"/>
       <use x="55.615234" xlink:href="#ArialMT-30"/>
      </g>
     </g>
    </g>
    <g id="xtick_3">
     <g id="line2d_3">
      <g>
       <use style="fill:#262626;stroke:#262626;stroke-width:0.8;" x="166.294951" xlink:href="#m6e0a0a1a88" y="230.64"/>
      </g>
     </g>
     <g id="text_3">
      <!-- 40 -->
      <defs>
       <path d="M 32.328125 0 
L 32.328125 17.140625 
L 1.265625 17.140625 
L 1.265625 25.203125 
L 33.9375 71.578125 
L 41.109375 71.578125 
L 41.109375 25.203125 
L 50.78125 25.203125 
L 50.78125 17.140625 
L 41.109375 17.140625 
L 41.109375 0 
z
M 32.328125 25.203125 
L 32.328125 57.46875 
L 9.90625 25.203125 
z
" id="ArialMT-34"/>
      </defs>
      <g style="fill:#262626;" transform="translate(160.734013 247.297813)scale(0.1 -0.1)">
       <use xlink:href="#ArialMT-34"/>
       <use x="55.615234" xlink:href="#ArialMT-30"/>
      </g>
     </g>
    </g>
    <g id="xtick_4">
     <g id="line2d_4">
      <g>
       <use style="fill:#262626;stroke:#262626;stroke-width:0.8;" x="227.782554" xlink:href="#m6e0a0a1a88" y="230.64"/>
      </g>
     </g>
     <g id="text_4">
      <!-- 60 -->
      <defs>
       <path d="M 49.75 54.046875 
L 41.015625 53.375 
Q 39.84375 58.546875 37.703125 60.890625 
Q 34.125 64.65625 28.90625 64.65625 
Q 24.703125 64.65625 21.53125 62.3125 
Q 17.390625 59.28125 14.984375 53.46875 
Q 12.59375 47.65625 12.5 36.921875 
Q 15.671875 41.75 20.265625 44.09375 
Q 24.859375 46.4375 29.890625 46.4375 
Q 38.671875 46.4375 44.84375 39.96875 
Q 51.03125 33.5 51.03125 23.25 
Q 51.03125 16.5 48.125 10.71875 
Q 45.21875 4.9375 40.140625 1.859375 
Q 35.0625 -1.21875 28.609375 -1.21875 
Q 17.625 -1.21875 10.6875 6.859375 
Q 3.765625 14.9375 3.765625 33.5 
Q 3.765625 54.25 11.421875 63.671875 
Q 18.109375 71.875 29.4375 71.875 
Q 37.890625 71.875 43.28125 67.140625 
Q 48.6875 62.40625 49.75 54.046875 
z
M 13.875 23.1875 
Q 13.875 18.65625 15.796875 14.5 
Q 17.71875 10.359375 21.1875 8.171875 
Q 24.65625 6 28.46875 6 
Q 34.03125 6 38.03125 10.484375 
Q 42.046875 14.984375 42.046875 22.703125 
Q 42.046875 30.125 38.078125 34.390625 
Q 34.125 38.671875 28.125 38.671875 
Q 22.171875 38.671875 18.015625 34.390625 
Q 13.875 30.125 13.875 23.1875 
z
" id="ArialMT-36"/>
      </defs>
      <g style="fill:#262626;" transform="translate(222.221617 247.297813)scale(0.1 -0.1)">
       <use xlink:href="#ArialMT-36"/>
       <use x="55.615234" xlink:href="#ArialMT-30"/>
      </g>
     </g>
    </g>
    <g id="xtick_5">
     <g id="line2d_5">
      <g>
       <use style="fill:#262626;stroke:#262626;stroke-width:0.8;" x="289.270158" xlink:href="#m6e0a0a1a88" y="230.64"/>
      </g>
     </g>
     <g id="text_5">
      <!-- 80 -->
      <defs>
       <path d="M 17.671875 38.8125 
Q 12.203125 40.828125 9.5625 44.53125 
Q 6.9375 48.25 6.9375 53.421875 
Q 6.9375 61.234375 12.546875 66.546875 
Q 18.171875 71.875 27.484375 71.875 
Q 36.859375 71.875 42.578125 66.421875 
Q 48.296875 60.984375 48.296875 53.171875 
Q 48.296875 48.1875 45.671875 44.5 
Q 43.0625 40.828125 37.75 38.8125 
Q 44.34375 36.671875 47.78125 31.875 
Q 51.21875 27.09375 51.21875 20.453125 
Q 51.21875 11.28125 44.71875 5.03125 
Q 38.234375 -1.21875 27.640625 -1.21875 
Q 17.046875 -1.21875 10.546875 5.046875 
Q 4.046875 11.328125 4.046875 20.703125 
Q 4.046875 27.6875 7.59375 32.390625 
Q 11.140625 37.109375 17.671875 38.8125 
z
M 15.921875 53.71875 
Q 15.921875 48.640625 19.1875 45.40625 
Q 22.46875 42.1875 27.6875 42.1875 
Q 32.765625 42.1875 36.015625 45.375 
Q 39.265625 48.578125 39.265625 53.21875 
Q 39.265625 58.0625 35.90625 61.359375 
Q 32.5625 64.65625 27.59375 64.65625 
Q 22.5625 64.65625 19.234375 61.421875 
Q 15.921875 58.203125 15.921875 53.71875 
z
M 13.09375 20.65625 
Q 13.09375 16.890625 14.875 13.375 
Q 16.65625 9.859375 20.171875 7.921875 
Q 23.6875 6 27.734375 6 
Q 34.03125 6 38.125 10.046875 
Q 42.234375 14.109375 42.234375 20.359375 
Q 42.234375 26.703125 38.015625 30.859375 
Q 33.796875 35.015625 27.4375 35.015625 
Q 21.234375 35.015625 17.15625 30.90625 
Q 13.09375 26.8125 13.09375 20.65625 
z
" id="ArialMT-38"/>
      </defs>
      <g style="fill:#262626;" transform="translate(283.70922 247.297813)scale(0.1 -0.1)">
       <use xlink:href="#ArialMT-38"/>
       <use x="55.615234" xlink:href="#ArialMT-30"/>
      </g>
     </g>
    </g>
    <g id="xtick_6">
     <g id="line2d_6">
      <g>
       <use style="fill:#262626;stroke:#262626;stroke-width:0.8;" x="350.757761" xlink:href="#m6e0a0a1a88" y="230.64"/>
      </g>
     </g>
     <g id="text_6">
      <!-- 100 -->
      <defs>
       <path d="M 37.25 0 
L 28.46875 0 
L 28.46875 56 
Q 25.296875 52.984375 20.140625 49.953125 
Q 14.984375 46.921875 10.890625 45.40625 
L 10.890625 53.90625 
Q 18.265625 57.375 23.78125 62.296875 
Q 29.296875 67.234375 31.59375 71.875 
L 37.25 71.875 
z
" id="ArialMT-31"/>
      </defs>
      <g style="fill:#262626;" transform="translate(342.416355 247.297813)scale(0.1 -0.1)">
       <use xlink:href="#ArialMT-31"/>
       <use x="55.615234" xlink:href="#ArialMT-30"/>
       <use x="111.230469" xlink:href="#ArialMT-30"/>
      </g>
     </g>
    </g>
   </g>
   <g id="matplotlib.axis_2">
    <g id="ytick_1">
     <g id="line2d_7">
      <defs>
       <path d="M 0 0 
L -6 0 
" id="m0612fb14a2" style="stroke:#262626;stroke-width:0.8;"/>
      </defs>
      <g>
       <use style="fill:#262626;stroke:#262626;stroke-width:0.8;" x="28.101562" xlink:href="#m0612fb14a2" y="216.209456"/>
      </g>
     </g>
     <g id="text_7">
      <!-- −2 -->
      <defs>
       <path d="M 52.828125 31.203125 
L 5.5625 31.203125 
L 5.5625 39.40625 
L 52.828125 39.40625 
z
" id="ArialMT-2212"/>
      </defs>
      <g style="fill:#262626;" transform="translate(7.2 219.788362)scale(0.1 -0.1)">
       <use xlink:href="#ArialMT-2212"/>
       <use x="58.398438" xlink:href="#ArialMT-32"/>
      </g>
     </g>
    </g>
    <g id="ytick_2">
     <g id="line2d_8">
      <g>
       <use style="fill:#262626;stroke:#262626;stroke-width:0.8;" x="28.101562" xlink:href="#m0612fb14a2" y="187.691379"/>
      </g>
     </g>
     <g id="text_8">
      <!-- 0 -->
      <g style="fill:#262626;" transform="translate(13.040625 191.270285)scale(0.1 -0.1)">
       <use xlink:href="#ArialMT-30"/>
      </g>
     </g>
    </g>
    <g id="ytick_3">
     <g id="line2d_9">
      <g>
       <use style="fill:#262626;stroke:#262626;stroke-width:0.8;" x="28.101562" xlink:href="#m0612fb14a2" y="159.173301"/>
      </g>
     </g>
     <g id="text_9">
      <!-- 2 -->
      <g style="fill:#262626;" transform="translate(13.040625 162.752207)scale(0.1 -0.1)">
       <use xlink:href="#ArialMT-32"/>
      </g>
     </g>
    </g>
    <g id="ytick_4">
     <g id="line2d_10">
      <g>
       <use style="fill:#262626;stroke:#262626;stroke-width:0.8;" x="28.101562" xlink:href="#m0612fb14a2" y="130.655223"/>
      </g>
     </g>
     <g id="text_10">
      <!-- 4 -->
      <g style="fill:#262626;" transform="translate(13.040625 134.23413)scale(0.1 -0.1)">
       <use xlink:href="#ArialMT-34"/>
      </g>
     </g>
    </g>
    <g id="ytick_5">
     <g id="line2d_11">
      <g>
       <use style="fill:#262626;stroke:#262626;stroke-width:0.8;" x="28.101562" xlink:href="#m0612fb14a2" y="102.137146"/>
      </g>
     </g>
     <g id="text_11">
      <!-- 6 -->
      <g style="fill:#262626;" transform="translate(13.040625 105.716052)scale(0.1 -0.1)">
       <use xlink:href="#ArialMT-36"/>
      </g>
     </g>
    </g>
    <g id="ytick_6">
     <g id="line2d_12">
      <g>
       <use style="fill:#262626;stroke:#262626;stroke-width:0.8;" x="28.101562" xlink:href="#m0612fb14a2" y="73.619068"/>
      </g>
     </g>
     <g id="text_12">
      <!-- 8 -->
      <g style="fill:#262626;" transform="translate(13.040625 77.197974)scale(0.1 -0.1)">
       <use xlink:href="#ArialMT-38"/>
      </g>
     </g>
    </g>
    <g id="ytick_7">
     <g id="line2d_13">
      <g>
       <use style="fill:#262626;stroke:#262626;stroke-width:0.8;" x="28.101562" xlink:href="#m0612fb14a2" y="45.10099"/>
      </g>
     </g>
     <g id="text_13">
      <!-- 10 -->
      <g style="fill:#262626;" transform="translate(7.479687 48.679897)scale(0.1 -0.1)">
       <use xlink:href="#ArialMT-31"/>
       <use x="55.615234" xlink:href="#ArialMT-30"/>
      </g>
     </g>
    </g>
    <g id="ytick_8">
     <g id="line2d_14">
      <g>
       <use style="fill:#262626;stroke:#262626;stroke-width:0.8;" x="28.101562" xlink:href="#m0612fb14a2" y="16.582913"/>
      </g>
     </g>
     <g id="text_14">
      <!-- 12 -->
      <g style="fill:#262626;" transform="translate(7.479687 20.161819)scale(0.1 -0.1)">
       <use xlink:href="#ArialMT-31"/>
       <use x="55.615234" xlink:href="#ArialMT-32"/>
      </g>
     </g>
    </g>
   </g>
   <g id="line2d_15">
    <path clip-path="url(#p2d90c810ef)" d="M 43.319744 183.354545 
L 46.394124 191.1939 
L 49.468505 216.2821 
L 52.542885 194.286634 
L 55.617265 181.859706 
L 58.691645 208.304884 
L 61.766025 185.910676 
L 64.840405 200.107974 
L 67.914786 170.797311 
L 70.989166 214.239125 
L 74.063546 188.849136 
L 77.137926 167.201599 
L 80.212306 198.571056 
L 83.286686 193.579085 
L 86.361067 194.409981 
L 89.435447 220.756364 
L 92.509827 191.448453 
L 95.584207 167.780066 
L 98.658587 201.65283 
L 101.732967 170.335539 
L 104.807348 201.48565 
L 107.881728 188.133866 
L 110.956108 196.58823 
L 114.030488 188.468961 
L 117.104868 193.798935 
L 120.179248 165.013889 
L 123.253629 195.351079 
L 126.328009 190.214386 
L 129.402389 184.726664 
L 132.476769 187.931998 
L 135.551149 183.224416 
L 138.625529 175.445418 
L 141.69991 193.233549 
L 144.77429 178.431505 
L 147.84867 161.181275 
L 150.92305 178.878392 
L 153.99743 185.103588 
L 157.07181 185.605073 
L 160.146191 178.684185 
L 163.220571 172.602708 
L 166.294951 181.021589 
L 169.369331 191.292039 
L 172.443711 187.754288 
L 175.518091 182.610231 
L 178.592472 176.173005 
L 181.666852 178.036823 
L 184.741232 161.68638 
L 187.815612 199.353341 
L 190.889992 183.207928 
L 193.964372 206.736108 
L 197.038753 180.917257 
L 200.113133 201.080544 
L 203.187513 197.571167 
L 206.261893 178.229246 
L 209.336273 187.73637 
L 212.410653 195.012294 
L 215.485034 181.965514 
L 218.559414 192.804735 
L 221.633794 191.568963 
L 224.708174 190.673724 
L 227.782554 177.629028 
L 230.856934 176.52832 
L 233.931315 152.866519 
L 237.005695 191.406036 
L 240.080075 185.669544 
L 243.154455 177.868915 
L 246.228835 172.630528 
L 249.303215 204.673075 
L 252.377596 177.889082 
L 255.451976 163.507593 
L 258.526356 213.339295 
L 261.600736 190.278314 
L 264.675116 197.183974 
L 267.749496 180.551332 
L 270.823877 199.80079 
L 273.898257 191.810325 
L 276.972637 177.765743 
L 280.047017 190.303512 
L 283.121397 184.291148 
L 286.195777 177.480407 
L 289.270158 198.582793 
L 292.344538 173.922305 
L 295.418918 189.550511 
L 298.493298 209.225634 
L 301.567678 188.677108 
L 304.642058 208.000339 
L 307.716439 183.76212 
L 310.790819 179.444565 
L 313.865199 168.512701 
L 316.939579 201.107496 
L 320.013959 189.401535 
L 323.088339 160.037868 
L 326.16272 201.972412 
L 329.2371 190.730172 
L 332.31148 201.491744 
L 335.38586 179.677676 
L 338.46024 187.294544 
L 341.53462 166.291555 
L 344.609001 189.038974 
L 347.683381 174.476071 
" style="fill:none;stroke:#ff0000;stroke-linecap:round;stroke-width:1.5;"/>
   </g>
   <g id="line2d_16">
    <path clip-path="url(#p2d90c810ef)" d="M 43.319744 191.977648 
L 46.394124 181.237069 
L 49.468505 162.377019 
L 52.542885 161.640733 
L 55.617265 195.419073 
L 58.691645 194.664702 
L 61.766025 180.961516 
L 64.840405 169.586591 
L 67.914786 153.698295 
L 70.989166 183.858054 
L 74.063546 185.662115 
L 77.137926 165.630887 
L 80.212306 179.72291 
L 83.286686 154.055699 
L 86.361067 187.72103 
L 89.435447 171.896595 
L 92.509827 186.947366 
L 95.584207 190.839878 
L 98.658587 162.403915 
L 101.732967 192.403068 
L 104.807348 171.332019 
L 107.881728 156.854234 
L 110.956108 185.866775 
L 114.030488 171.135606 
L 117.104868 164.625061 
L 120.179248 170.768358 
L 123.253629 156.224721 
L 126.328009 194.420641 
L 129.402389 162.886741 
L 132.476769 185.49617 
L 135.551149 143.432823 
L 138.625529 169.544122 
L 141.69991 154.759276 
L 144.77429 167.327723 
L 147.84867 150.070279 
L 150.92305 208.198684 
L 153.99743 195.636727 
L 157.07181 179.164635 
L 160.146191 160.019651 
L 163.220571 173.851999 
L 166.294951 171.276369 
L 169.369331 152.649063 
L 172.443711 184.613765 
L 175.518091 170.936078 
L 178.592472 158.985306 
L 181.666852 170.993219 
L 184.741232 167.703085 
L 187.815612 149.643086 
L 190.889992 169.207782 
L 193.964372 163.46524 
L 197.038753 167.016105 
L 200.113133 176.340506 
L 203.187513 186.525113 
L 206.261893 183.702073 
L 209.336273 195.521025 
L 212.410653 171.468242 
L 215.485034 168.259552 
L 218.559414 158.390705 
L 221.633794 188.89646 
L 224.708174 191.152668 
L 227.782554 161.019205 
L 230.856934 174.727239 
L 233.931315 170.76131 
L 237.005695 169.764381 
L 240.080075 171.563729 
L 243.154455 215.767659 
L 246.228835 169.124573 
L 249.303215 187.818639 
L 252.377596 185.825711 
L 255.451976 183.480006 
L 258.526356 180.951694 
L 261.600736 163.11399 
L 264.675116 148.96426 
L 267.749496 171.747264 
L 270.823877 144.821884 
L 273.898257 146.572937 
L 276.972637 185.04695 
L 280.047017 168.76581 
L 283.121397 182.115807 
L 286.195777 162.973667 
L 289.270158 174.133703 
L 292.344538 175.620836 
L 295.418918 172.162236 
L 298.493298 177.823328 
L 301.567678 184.637381 
L 304.642058 178.037792 
L 307.716439 170.856854 
L 310.790819 164.448268 
L 313.865199 154.030187 
L 316.939579 167.993042 
L 320.013959 148.128483 
L 323.088339 168.952925 
L 326.16272 194.779388 
L 329.2371 162.665254 
L 332.31148 162.329183 
L 335.38586 171.323389 
L 338.46024 149.011454 
L 341.53462 186.866515 
L 344.609001 150.546177 
L 347.683381 168.915132 
" style="fill:none;stroke:#00a08a;stroke-linecap:round;stroke-width:1.5;"/>
   </g>
   <g id="line2d_17">
    <path clip-path="url(#p2d90c810ef)" d="M 43.319744 151.12581 
L 46.394124 185.233073 
L 49.468505 134.258442 
L 52.542885 157.417343 
L 55.617265 153.694923 
L 58.691645 163.01315 
L 61.766025 169.89871 
L 64.840405 148.886077 
L 67.914786 150.640991 
L 70.989166 159.445134 
L 74.063546 142.979538 
L 77.137926 187.84869 
L 80.212306 138.387483 
L 83.286686 145.833023 
L 86.361067 173.890659 
L 89.435447 138.848196 
L 92.509827 181.786039 
L 95.584207 167.374401 
L 98.658587 176.13718 
L 101.732967 163.465355 
L 104.807348 148.973086 
L 107.881728 144.023027 
L 110.956108 181.456377 
L 114.030488 148.853328 
L 117.104868 141.49124 
L 120.179248 151.140446 
L 123.253629 137.360507 
L 126.328009 167.637605 
L 129.402389 148.27013 
L 132.476769 135.565398 
L 135.551149 130.810303 
L 138.625529 127.594431 
L 141.69991 129.944313 
L 144.77429 149.796911 
L 147.84867 152.592892 
L 150.92305 180.728561 
L 153.99743 168.686254 
L 157.07181 174.435931 
L 160.146191 137.290786 
L 163.220571 183.72321 
L 166.294951 176.117478 
L 169.369331 188.415946 
L 172.443711 161.412006 
L 175.518091 138.0409 
L 178.592472 171.300316 
L 181.666852 160.93842 
L 184.741232 172.141869 
L 187.815612 169.348189 
L 190.889992 148.524666 
L 193.964372 158.086205 
L 197.038753 165.184652 
L 200.113133 141.177957 
L 203.187513 165.37336 
L 206.261893 196.362012 
L 209.336273 135.962354 
L 212.410653 146.419146 
L 215.485034 153.749658 
L 218.559414 169.474305 
L 221.633794 180.169217 
L 224.708174 155.607331 
L 227.782554 157.9171 
L 230.856934 162.636319 
L 233.931315 200.638292 
L 237.005695 169.68209 
L 240.080075 163.711887 
L 243.154455 167.892426 
L 246.228835 143.206638 
L 249.303215 159.517999 
L 252.377596 128.591273 
L 255.451976 164.979407 
L 258.526356 162.71284 
L 261.600736 190.314422 
L 264.675116 146.625177 
L 267.749496 142.997841 
L 270.823877 159.513024 
L 273.898257 142.174329 
L 276.972637 162.382962 
L 280.047017 155.184477 
L 283.121397 152.49804 
L 286.195777 164.092714 
L 289.270158 136.234525 
L 292.344538 140.839022 
L 295.418918 182.001974 
L 298.493298 167.937831 
L 301.567678 167.503222 
L 304.642058 192.405343 
L 307.716439 164.303748 
L 310.790819 141.230867 
L 313.865199 136.140273 
L 316.939579 164.194861 
L 320.013959 171.686689 
L 323.088339 173.144503 
L 326.16272 168.64606 
L 329.2371 166.672411 
L 332.31148 163.671208 
L 335.38586 163.83968 
L 338.46024 157.19201 
L 341.53462 159.997648 
L 344.609001 165.778227 
L 347.683381 162.914206 
" style="fill:none;stroke:#f2ad00;stroke-linecap:round;stroke-width:1.5;"/>
   </g>
   <g id="line2d_18">
    <path clip-path="url(#p2d90c810ef)" d="M 43.319744 117.308443 
L 46.394124 169.35507 
L 49.468505 149.658117 
L 52.542885 152.227136 
L 55.617265 169.757867 
L 58.691645 146.284108 
L 61.766025 172.32262 
L 64.840405 144.720972 
L 67.914786 149.952639 
L 70.989166 153.857545 
L 74.063546 165.799575 
L 77.137926 144.376109 
L 80.212306 127.761625 
L 83.286686 173.309455 
L 86.361067 157.505177 
L 89.435447 143.99563 
L 92.509827 147.95729 
L 95.584207 138.748468 
L 98.658587 148.041171 
L 101.732967 146.815303 
L 104.807348 134.887371 
L 107.881728 125.205514 
L 110.956108 136.240907 
L 114.030488 149.094077 
L 117.104868 144.707199 
L 120.179248 160.536817 
L 123.253629 120.186039 
L 126.328009 147.939629 
L 129.402389 155.937075 
L 132.476769 153.032682 
L 135.551149 129.271407 
L 138.625529 140.948907 
L 141.69991 140.953973 
L 144.77429 130.20767 
L 147.84867 140.260866 
L 150.92305 133.514361 
L 153.99743 152.832586 
L 157.07181 154.000506 
L 160.146191 128.667576 
L 163.220571 140.824592 
L 166.294951 172.39902 
L 169.369331 170.321881 
L 172.443711 141.798865 
L 175.518091 148.269073 
L 178.592472 154.828304 
L 181.666852 131.670205 
L 184.741232 118.74388 
L 187.815612 149.496308 
L 190.889992 136.979831 
L 193.964372 137.201998 
L 197.038753 108.512326 
L 200.113133 142.75518 
L 203.187513 127.943269 
L 206.261893 144.038847 
L 209.336273 161.871762 
L 212.410653 134.117236 
L 215.485034 169.399992 
L 218.559414 144.029226 
L 221.633794 141.290184 
L 224.708174 149.579562 
L 227.782554 128.985998 
L 230.856934 134.525907 
L 233.931315 139.101456 
L 237.005695 164.72903 
L 240.080075 130.952242 
L 243.154455 162.495734 
L 246.228835 141.184784 
L 249.303215 170.49446 
L 252.377596 128.838882 
L 255.451976 126.772471 
L 258.526356 151.377432 
L 261.600736 132.077191 
L 264.675116 139.776791 
L 267.749496 154.697867 
L 270.823877 128.035496 
L 273.898257 130.494047 
L 276.972637 144.003166 
L 280.047017 149.737302 
L 283.121397 127.498297 
L 286.195777 154.371488 
L 289.270158 168.977039 
L 292.344538 133.12742 
L 295.418918 154.041619 
L 298.493298 170.579917 
L 301.567678 141.03026 
L 304.642058 143.152553 
L 307.716439 129.212851 
L 310.790819 155.194693 
L 313.865199 159.719626 
L 316.939579 146.44754 
L 320.013959 156.855723 
L 323.088339 168.295646 
L 326.16272 139.519343 
L 329.2371 148.649804 
L 332.31148 145.992624 
L 335.38586 160.339884 
L 338.46024 148.819306 
L 341.53462 150.038847 
L 344.609001 160.092023 
L 347.683381 146.528648 
" style="fill:none;stroke:#f98400;stroke-linecap:round;stroke-width:1.5;"/>
   </g>
   <g id="line2d_19">
    <path clip-path="url(#p2d90c810ef)" d="M 43.319744 130.913469 
L 46.394124 127.943801 
L 49.468505 117.104951 
L 52.542885 123.439121 
L 55.617265 120.168471 
L 58.691645 140.836949 
L 61.766025 94.371348 
L 64.840405 94.216164 
L 67.914786 128.391248 
L 70.989166 131.480572 
L 74.063546 116.903029 
L 77.137926 121.159403 
L 80.212306 133.887308 
L 83.286686 153.330637 
L 86.361067 155.450238 
L 89.435447 107.978199 
L 92.509827 134.180372 
L 95.584207 110.041917 
L 98.658587 96.662376 
L 101.732967 133.357487 
L 104.807348 143.536635 
L 107.881728 129.544834 
L 110.956108 134.068276 
L 114.030488 167.264301 
L 117.104868 146.520421 
L 120.179248 133.872303 
L 123.253629 136.822336 
L 126.328009 120.103485 
L 129.402389 139.465724 
L 132.476769 119.061228 
L 135.551149 123.293714 
L 138.625529 112.262026 
L 141.69991 129.34773 
L 144.77429 138.520307 
L 147.84867 118.232681 
L 150.92305 126.473932 
L 153.99743 123.066828 
L 157.07181 126.838125 
L 160.146191 136.7595 
L 163.220571 137.183191 
L 166.294951 114.203337 
L 169.369331 139.49119 
L 172.443711 124.452497 
L 175.518091 113.962041 
L 178.592472 147.337403 
L 181.666852 157.495407 
L 184.741232 143.4919 
L 187.815612 145.565037 
L 190.889992 134.892622 
L 193.964372 118.56088 
L 197.038753 134.407781 
L 200.113133 120.788382 
L 203.187513 95.713203 
L 206.261893 119.017627 
L 209.336273 161.055793 
L 212.410653 148.473791 
L 215.485034 139.499025 
L 218.559414 127.706107 
L 221.633794 132.36514 
L 224.708174 140.896625 
L 227.782554 164.619709 
L 230.856934 129.988716 
L 233.931315 137.263962 
L 237.005695 132.677543 
L 240.080075 127.762454 
L 243.154455 130.0494 
L 246.228835 112.85771 
L 249.303215 133.414839 
L 252.377596 120.207556 
L 255.451976 112.661613 
L 258.526356 114.709478 
L 261.600736 160.17683 
L 264.675116 129.853763 
L 267.749496 157.325242 
L 270.823877 132.294658 
L 273.898257 124.527776 
L 276.972637 135.42685 
L 280.047017 123.399233 
L 283.121397 120.746236 
L 286.195777 130.141948 
L 289.270158 114.303336 
L 292.344538 143.4292 
L 295.418918 110.235297 
L 298.493298 139.603467 
L 301.567678 136.995223 
L 304.642058 140.784609 
L 307.716439 143.664705 
L 310.790819 139.030073 
L 313.865199 130.632479 
L 316.939579 149.58744 
L 320.013959 115.758498 
L 323.088339 100.147843 
L 326.16272 144.462693 
L 329.2371 155.866322 
L 332.31148 146.098874 
L 335.38586 138.016607 
L 338.46024 143.679847 
L 341.53462 141.814653 
L 344.609001 138.390861 
L 347.683381 103.092449 
" style="fill:none;stroke:#5bbcd6;stroke-linecap:round;stroke-width:1.5;"/>
   </g>
   <g id="line2d_20">
    <path clip-path="url(#p2d90c810ef)" d="M 43.319744 120.491642 
L 46.394124 122.158608 
L 49.468505 133.583219 
L 52.542885 107.319948 
L 55.617265 100.510676 
L 58.691645 122.123183 
L 61.766025 105.124525 
L 64.840405 153.573478 
L 67.914786 112.046367 
L 70.989166 110.646424 
L 74.063546 115.830213 
L 77.137926 120.363009 
L 80.212306 135.006065 
L 83.286686 81.365966 
L 86.361067 148.293251 
L 89.435447 98.826263 
L 92.509827 107.433872 
L 95.584207 111.349512 
L 98.658587 127.37302 
L 101.732967 117.269527 
L 104.807348 112.473453 
L 107.881728 126.858552 
L 110.956108 110.909604 
L 114.030488 142.015162 
L 117.104868 140.448154 
L 120.179248 102.45805 
L 123.253629 101.611931 
L 126.328009 141.361156 
L 129.402389 112.263416 
L 132.476769 111.200842 
L 135.551149 115.63759 
L 138.625529 106.571051 
L 141.69991 123.718856 
L 144.77429 106.97878 
L 147.84867 111.420791 
L 150.92305 108.312758 
L 153.99743 105.059367 
L 157.07181 113.674751 
L 160.146191 106.819568 
L 163.220571 95.881049 
L 166.294951 138.194567 
L 169.369331 123.009958 
L 172.443711 99.828402 
L 175.518091 119.11833 
L 178.592472 126.788141 
L 181.666852 125.441078 
L 184.741232 107.639853 
L 187.815612 122.014019 
L 190.889992 103.222093 
L 193.964372 127.874414 
L 197.038753 99.936718 
L 200.113133 112.035183 
L 203.187513 90.666565 
L 206.261893 96.324657 
L 209.336273 110.259453 
L 212.410653 125.141487 
L 215.485034 120.011631 
L 218.559414 112.169629 
L 221.633794 125.708217 
L 224.708174 105.42752 
L 227.782554 126.685349 
L 230.856934 138.255249 
L 233.931315 117.725607 
L 237.005695 118.371423 
L 240.080075 125.36961 
L 243.154455 90.79452 
L 246.228835 118.194045 
L 249.303215 107.468007 
L 252.377596 108.863053 
L 255.451976 109.944375 
L 258.526356 103.978277 
L 261.600736 105.267889 
L 264.675116 99.582163 
L 267.749496 122.956822 
L 270.823877 97.127743 
L 273.898257 94.065566 
L 276.972637 116.179209 
L 280.047017 126.843261 
L 283.121397 100.859186 
L 286.195777 135.538609 
L 289.270158 145.936727 
L 292.344538 88.490089 
L 295.418918 82.383205 
L 298.493298 109.60163 
L 301.567678 121.094281 
L 304.642058 131.140666 
L 307.716439 100.613154 
L 310.790819 118.911407 
L 313.865199 118.853111 
L 316.939579 110.682787 
L 320.013959 129.730729 
L 323.088339 98.115734 
L 326.16272 113.796716 
L 329.2371 112.627117 
L 332.31148 101.553176 
L 335.38586 97.874231 
L 338.46024 115.381965 
L 341.53462 125.734834 
L 344.609001 124.791778 
L 347.683381 109.456419 
" style="fill:none;stroke:#ff0000;stroke-linecap:round;stroke-width:1.5;"/>
   </g>
   <g id="line2d_21">
    <path clip-path="url(#p2d90c810ef)" d="M 43.319744 94.12388 
L 46.394124 115.848146 
L 49.468505 103.647589 
L 52.542885 108.29791 
L 55.617265 104.510394 
L 58.691645 98.208558 
L 61.766025 107.955887 
L 64.840405 133.396089 
L 67.914786 98.610269 
L 70.989166 103.743457 
L 74.063546 97.891347 
L 77.137926 69.341325 
L 80.212306 96.975446 
L 83.286686 122.204388 
L 86.361067 106.976518 
L 89.435447 83.345365 
L 92.509827 114.101262 
L 95.584207 96.148026 
L 98.658587 102.580842 
L 101.732967 108.218471 
L 104.807348 96.125509 
L 107.881728 99.489914 
L 110.956108 104.854192 
L 114.030488 122.404096 
L 117.104868 127.379307 
L 120.179248 92.553423 
L 123.253629 82.384119 
L 126.328009 87.449311 
L 129.402389 117.498123 
L 132.476769 108.581275 
L 135.551149 108.563261 
L 138.625529 124.02766 
L 141.69991 104.433791 
L 144.77429 95.514046 
L 147.84867 116.722322 
L 150.92305 106.476694 
L 153.99743 99.310597 
L 157.07181 107.173693 
L 160.146191 90.402258 
L 163.220571 108.530522 
L 166.294951 76.567901 
L 169.369331 83.59447 
L 172.443711 119.738034 
L 175.518091 94.539585 
L 178.592472 114.037648 
L 181.666852 108.926955 
L 184.741232 112.459327 
L 187.815612 130.591761 
L 190.889992 75.669613 
L 193.964372 91.940288 
L 197.038753 94.756231 
L 200.113133 103.255502 
L 203.187513 91.854353 
L 206.261893 103.301557 
L 209.336273 95.979205 
L 212.410653 75.263727 
L 215.485034 109.067944 
L 218.559414 117.807384 
L 221.633794 103.663025 
L 224.708174 92.364697 
L 227.782554 107.298198 
L 230.856934 107.704993 
L 233.931315 126.424996 
L 237.005695 116.122323 
L 240.080075 89.320404 
L 243.154455 134.115848 
L 246.228835 109.17108 
L 249.303215 101.198165 
L 252.377596 102.580482 
L 255.451976 102.967767 
L 258.526356 128.061737 
L 261.600736 107.441294 
L 264.675116 89.089896 
L 267.749496 110.846152 
L 270.823877 87.820086 
L 273.898257 100.078386 
L 276.972637 102.739917 
L 280.047017 92.062501 
L 283.121397 96.042607 
L 286.195777 117.791356 
L 289.270158 108.135709 
L 292.344538 88.96534 
L 295.418918 88.705645 
L 298.493298 123.552221 
L 301.567678 97.865837 
L 304.642058 87.008683 
L 307.716439 116.450779 
L 310.790819 117.386246 
L 313.865199 117.942967 
L 316.939579 82.722903 
L 320.013959 120.028984 
L 323.088339 112.827862 
L 326.16272 102.895573 
L 329.2371 77.042791 
L 332.31148 124.732283 
L 335.38586 102.901784 
L 338.46024 83.15022 
L 341.53462 93.931427 
L 344.609001 113.980084 
L 347.683381 78.567273 
" style="fill:none;stroke:#00a08a;stroke-linecap:round;stroke-width:1.5;"/>
   </g>
   <g id="line2d_22">
    <path clip-path="url(#p2d90c810ef)" d="M 43.319744 74.413849 
L 46.394124 89.154428 
L 49.468505 112.91811 
L 52.542885 80.533118 
L 55.617265 60.29721 
L 58.691645 99.991975 
L 61.766025 69.753729 
L 64.840405 70.609102 
L 67.914786 89.277271 
L 70.989166 90.814862 
L 74.063546 74.631519 
L 77.137926 69.184739 
L 80.212306 109.445285 
L 83.286686 97.283958 
L 86.361067 71.824837 
L 89.435447 87.75976 
L 92.509827 95.008536 
L 95.584207 74.937693 
L 98.658587 107.560542 
L 101.732967 105.898237 
L 104.807348 90.998911 
L 107.881728 99.774074 
L 110.956108 113.132886 
L 114.030488 74.504445 
L 117.104868 102.27255 
L 120.179248 110.222744 
L 123.253629 84.505814 
L 126.328009 70.5946 
L 129.402389 69.740815 
L 132.476769 82.262587 
L 135.551149 81.23237 
L 138.625529 97.143212 
L 141.69991 85.493697 
L 144.77429 69.69839 
L 147.84867 87.313804 
L 150.92305 68.792112 
L 153.99743 63.59102 
L 157.07181 65.583777 
L 160.146191 106.069091 
L 163.220571 84.765957 
L 166.294951 87.746815 
L 169.369331 98.615869 
L 172.443711 76.486278 
L 175.518091 77.781348 
L 178.592472 72.139849 
L 181.666852 53.071997 
L 184.741232 104.491263 
L 187.815612 108.919925 
L 190.889992 90.544676 
L 193.964372 105.082569 
L 197.038753 63.268005 
L 200.113133 76.957551 
L 203.187513 99.404951 
L 206.261893 79.631099 
L 209.336273 83.695965 
L 212.410653 102.621142 
L 215.485034 90.457257 
L 218.559414 83.008764 
L 221.633794 109.796681 
L 224.708174 72.859291 
L 227.782554 81.598238 
L 230.856934 87.743245 
L 233.931315 91.411715 
L 237.005695 80.541808 
L 240.080075 70.993885 
L 243.154455 83.776125 
L 246.228835 78.180709 
L 249.303215 80.682176 
L 252.377596 96.247215 
L 255.451976 82.06516 
L 258.526356 124.387538 
L 261.600736 82.808444 
L 264.675116 106.740046 
L 267.749496 83.167544 
L 270.823877 90.490856 
L 273.898257 112.503333 
L 276.972637 105.839403 
L 280.047017 98.629229 
L 283.121397 86.007407 
L 286.195777 129.29937 
L 289.270158 94.682679 
L 292.344538 100.548389 
L 295.418918 79.423251 
L 298.493298 86.893481 
L 301.567678 84.576851 
L 304.642058 83.456412 
L 307.716439 107.360204 
L 310.790819 77.117523 
L 313.865199 88.039256 
L 316.939579 94.536834 
L 320.013959 54.432472 
L 323.088339 89.260115 
L 326.16272 87.996872 
L 329.2371 65.889378 
L 332.31148 102.790956 
L 335.38586 105.817446 
L 338.46024 95.362316 
L 341.53462 92.857794 
L 344.609001 99.955702 
L 347.683381 77.031174 
" style="fill:none;stroke:#f2ad00;stroke-linecap:round;stroke-width:1.5;"/>
   </g>
   <g id="line2d_23">
    <path clip-path="url(#p2d90c810ef)" d="M 43.319744 58.789083 
L 46.394124 58.431698 
L 49.468505 73.668606 
L 52.542885 65.420651 
L 55.617265 62.371763 
L 58.691645 78.724803 
L 61.766025 69.049841 
L 64.840405 77.598457 
L 67.914786 70.370613 
L 70.989166 65.520043 
L 74.063546 77.938453 
L 77.137926 69.469304 
L 80.212306 79.909178 
L 83.286686 86.64781 
L 86.361067 103.144632 
L 89.435447 98.522607 
L 92.509827 87.892409 
L 95.584207 86.47525 
L 98.658587 74.489992 
L 101.732967 87.429995 
L 104.807348 46.353456 
L 107.881728 63.688366 
L 110.956108 92.405898 
L 114.030488 83.343767 
L 117.104868 72.638449 
L 120.179248 55.343624 
L 123.253629 76.661765 
L 126.328009 91.036205 
L 129.402389 60.49483 
L 132.476769 96.171529 
L 135.551149 73.54528 
L 138.625529 64.482988 
L 141.69991 73.26117 
L 144.77429 61.703624 
L 147.84867 73.775188 
L 150.92305 51.660062 
L 153.99743 77.084043 
L 157.07181 75.08307 
L 160.146191 56.032189 
L 163.220571 92.610229 
L 166.294951 87.09316 
L 169.369331 81.08879 
L 172.443711 81.978894 
L 175.518091 76.321434 
L 178.592472 87.136694 
L 181.666852 83.815437 
L 184.741232 70.776573 
L 187.815612 94.414876 
L 190.889992 69.654031 
L 193.964372 81.286373 
L 197.038753 107.36336 
L 200.113133 88.441106 
L 203.187513 42.008165 
L 206.261893 23.083636 
L 209.336273 69.030897 
L 212.410653 69.286612 
L 215.485034 93.830787 
L 218.559414 86.631708 
L 221.633794 99.118186 
L 224.708174 71.800367 
L 227.782554 93.481223 
L 230.856934 62.195087 
L 233.931315 66.257131 
L 237.005695 73.001901 
L 240.080075 55.970067 
L 243.154455 74.470647 
L 246.228835 40.461977 
L 249.303215 86.928338 
L 252.377596 67.130266 
L 255.451976 66.878824 
L 258.526356 64.574327 
L 261.600736 83.503834 
L 264.675116 101.517434 
L 267.749496 82.177411 
L 270.823877 70.759797 
L 273.898257 77.280694 
L 276.972637 77.020728 
L 280.047017 80.299562 
L 283.121397 68.695667 
L 286.195777 75.863608 
L 289.270158 82.201204 
L 292.344538 82.209454 
L 295.418918 81.299312 
L 298.493298 52.666898 
L 301.567678 75.503885 
L 304.642058 82.885049 
L 307.716439 58.575135 
L 310.790819 74.757054 
L 313.865199 78.487881 
L 316.939579 67.330359 
L 320.013959 86.149435 
L 323.088339 52.232041 
L 326.16272 61.438804 
L 329.2371 90.58264 
L 332.31148 67.726664 
L 335.38586 69.797767 
L 338.46024 97.741288 
L 341.53462 56.680495 
L 344.609001 73.240456 
L 347.683381 40.274825 
" style="fill:none;stroke:#f98400;stroke-linecap:round;stroke-width:1.5;"/>
   </g>
   <g id="line2d_24">
    <path clip-path="url(#p2d90c810ef)" d="M 43.319744 77.066664 
L 46.394124 69.80917 
L 49.468505 77.386415 
L 52.542885 67.699736 
L 55.617265 47.740938 
L 58.691645 44.038125 
L 61.766025 60.640252 
L 64.840405 28.878905 
L 67.914786 72.851922 
L 70.989166 57.282583 
L 74.063546 79.644422 
L 77.137926 56.910132 
L 80.212306 119.140911 
L 83.286686 42.065343 
L 86.361067 45.448069 
L 89.435447 65.507978 
L 92.509827 55.808213 
L 95.584207 67.876336 
L 98.658587 55.823306 
L 101.732967 68.812338 
L 104.807348 67.061129 
L 107.881728 34.807447 
L 110.956108 33.799462 
L 114.030488 53.746587 
L 117.104868 56.740708 
L 120.179248 70.709471 
L 123.253629 46.728075 
L 126.328009 61.534037 
L 129.402389 65.046168 
L 132.476769 39.201752 
L 135.551149 54.380652 
L 138.625529 37.096882 
L 141.69991 52.879225 
L 144.77429 49.216324 
L 147.84867 56.763433 
L 150.92305 68.663912 
L 153.99743 72.923996 
L 157.07181 50.768375 
L 160.146191 57.761084 
L 163.220571 44.841603 
L 166.294951 45.782037 
L 169.369331 66.74564 
L 172.443711 77.909355 
L 175.518091 52.197775 
L 178.592472 60.362829 
L 181.666852 44.780994 
L 184.741232 49.131366 
L 187.815612 62.978222 
L 190.889992 51.271626 
L 193.964372 81.053866 
L 197.038753 41.531699 
L 200.113133 72.534558 
L 203.187513 65.601386 
L 206.261893 59.421069 
L 209.336273 56.398819 
L 212.410653 67.153152 
L 215.485034 54.211709 
L 218.559414 58.526428 
L 221.633794 61.987528 
L 224.708174 48.285129 
L 227.782554 51.316177 
L 230.856934 78.610358 
L 233.931315 78.328393 
L 237.005695 39.919063 
L 240.080075 61.756028 
L 243.154455 56.492901 
L 246.228835 34.273128 
L 249.303215 48.076832 
L 252.377596 56.339407 
L 255.451976 39.414616 
L 258.526356 51.077884 
L 261.600736 66.85815 
L 264.675116 79.102291 
L 267.749496 57.323632 
L 270.823877 72.287218 
L 273.898257 48.136072 
L 276.972637 70.247013 
L 280.047017 36.050093 
L 283.121397 63.053343 
L 286.195777 54.22327 
L 289.270158 83.290479 
L 292.344538 57.316997 
L 295.418918 60.1563 
L 298.493298 55.632298 
L 301.567678 56.90831 
L 304.642058 63.147154 
L 307.716439 84.398742 
L 310.790819 66.217612 
L 313.865199 42.893768 
L 316.939579 58.028309 
L 320.013959 63.376866 
L 323.088339 40.139004 
L 326.16272 39.730424 
L 329.2371 85.776273 
L 332.31148 56.65087 
L 335.38586 77.903045 
L 338.46024 50.978995 
L 341.53462 72.741443 
L 344.609001 58.606733 
L 347.683381 55.690807 
" style="fill:none;stroke:#5bbcd6;stroke-linecap:round;stroke-width:1.5;"/>
   </g>
   <g id="patch_3">
    <path d="M 28.101562 230.64 
L 28.101562 13.2 
" style="fill:none;stroke:#262626;stroke-linecap:square;stroke-linejoin:miter;stroke-width:1.25;"/>
   </g>
   <g id="patch_4">
    <path d="M 362.901563 230.64 
L 362.901563 13.2 
" style="fill:none;stroke:#262626;stroke-linecap:square;stroke-linejoin:miter;stroke-width:1.25;"/>
   </g>
   <g id="patch_5">
    <path d="M 28.101562 230.64 
L 362.901562 230.64 
" style="fill:none;stroke:#262626;stroke-linecap:square;stroke-linejoin:miter;stroke-width:1.25;"/>
   </g>
   <g id="patch_6">
    <path d="M 28.101562 13.2 
L 362.901562 13.2 
" style="fill:none;stroke:#262626;stroke-linecap:square;stroke-linejoin:miter;stroke-width:1.25;"/>
   </g>
  </g>
 </g>
 <defs>
  <clipPath id="p2d90c810ef">
   <rect height="217.44" width="334.8" x="28.101562" y="13.2"/>
  </clipPath>
 </defs>
</svg>
