<?xml version="1.0" encoding="utf-8" standalone="no"?>
<!DOCTYPE svg PUBLIC "-//W3C//DTD SVG 1.1//EN"
  "http://www.w3.org/Graphics/SVG/1.1/DTD/svg11.dtd">
<!-- Created with matplotlib (http://matplotlib.org/) -->
<svg height="359pt" version="1.1" viewBox="0 0 836 359" width="836pt" xmlns="http://www.w3.org/2000/svg" xmlns:xlink="http://www.w3.org/1999/xlink">
 <defs>
  <style type="text/css">
*{stroke-linecap:butt;stroke-linejoin:round;}
  </style>
 </defs>
 <g id="figure_1">
  <g id="patch_1">
   <path d="M 0 359.35 
L 836.000156 359.35 
L 836.000156 0 
L 0 0 
z
" style="fill:#ffffff;"/>
  </g>
  <g id="axes_1">
   <g id="patch_2">
    <path d="M 50.1125 328.573438 
L 368.1 328.573438 
L 368.1 34.673437 
L 50.1125 34.673437 
z
" style="fill:#ffffff;"/>
   </g>
   <g id="matplotlib.axis_1">
    <g id="xtick_1">
     <g id="line2d_1">
      <defs>
       <path d="M 0 0 
L 0 6 
" id="ma3618310a0" style="stroke:#262626;stroke-width:0.8;"/>
      </defs>
      <g>
       <use style="fill:#262626;stroke:#262626;stroke-width:0.8;" x="89.860938" xlink:href="#ma3618310a0" y="328.573438"/>
      </g>
     </g>
     <g id="text_1">
      <!-- Thursday -->
      <defs>
       <path d="M 25.921875 0 
L 25.921875 63.140625 
L 2.34375 63.140625 
L 2.34375 71.578125 
L 59.078125 71.578125 
L 59.078125 63.140625 
L 35.40625 63.140625 
L 35.40625 0 
z
" id="ArialMT-54"/>
       <path d="M 6.59375 0 
L 6.59375 71.578125 
L 15.375 71.578125 
L 15.375 45.90625 
Q 21.53125 53.03125 30.90625 53.03125 
Q 36.671875 53.03125 40.921875 50.75 
Q 45.171875 48.484375 47 44.484375 
Q 48.828125 40.484375 48.828125 32.859375 
L 48.828125 0 
L 40.046875 0 
L 40.046875 32.859375 
Q 40.046875 39.453125 37.1875 42.453125 
Q 34.328125 45.453125 29.109375 45.453125 
Q 25.203125 45.453125 21.75 43.421875 
Q 18.3125 41.40625 16.84375 37.9375 
Q 15.375 34.46875 15.375 28.375 
L 15.375 0 
z
" id="ArialMT-68"/>
       <path d="M 40.578125 0 
L 40.578125 7.625 
Q 34.515625 -1.171875 24.125 -1.171875 
Q 19.53125 -1.171875 15.546875 0.578125 
Q 11.578125 2.34375 9.640625 5 
Q 7.71875 7.671875 6.9375 11.53125 
Q 6.390625 14.109375 6.390625 19.734375 
L 6.390625 51.859375 
L 15.1875 51.859375 
L 15.1875 23.09375 
Q 15.1875 16.21875 15.71875 13.8125 
Q 16.546875 10.359375 19.234375 8.375 
Q 21.921875 6.390625 25.875 6.390625 
Q 29.828125 6.390625 33.296875 8.421875 
Q 36.765625 10.453125 38.203125 13.9375 
Q 39.65625 17.4375 39.65625 24.078125 
L 39.65625 51.859375 
L 48.4375 51.859375 
L 48.4375 0 
z
" id="ArialMT-75"/>
       <path d="M 6.5 0 
L 6.5 51.859375 
L 14.40625 51.859375 
L 14.40625 44 
Q 17.4375 49.515625 20 51.265625 
Q 22.5625 53.03125 25.640625 53.03125 
Q 30.078125 53.03125 34.671875 50.203125 
L 31.640625 42.046875 
Q 28.421875 43.953125 25.203125 43.953125 
Q 22.3125 43.953125 20.015625 42.21875 
Q 17.71875 40.484375 16.75 37.40625 
Q 15.28125 32.71875 15.28125 27.15625 
L 15.28125 0 
z
" id="ArialMT-72"/>
       <path d="M 3.078125 15.484375 
L 11.765625 16.84375 
Q 12.5 11.625 15.84375 8.84375 
Q 19.1875 6.0625 25.203125 6.0625 
Q 31.25 6.0625 34.171875 8.515625 
Q 37.109375 10.984375 37.109375 14.3125 
Q 37.109375 17.28125 34.515625 19 
Q 32.71875 20.171875 25.53125 21.96875 
Q 15.875 24.421875 12.140625 26.203125 
Q 8.40625 27.984375 6.46875 31.125 
Q 4.546875 34.28125 4.546875 38.09375 
Q 4.546875 41.546875 6.125 44.5 
Q 7.71875 47.46875 10.453125 49.421875 
Q 12.5 50.921875 16.03125 51.96875 
Q 19.578125 53.03125 23.640625 53.03125 
Q 29.734375 53.03125 34.34375 51.265625 
Q 38.96875 49.515625 41.15625 46.5 
Q 43.359375 43.5 44.1875 38.484375 
L 35.59375 37.3125 
Q 35.015625 41.3125 32.203125 43.546875 
Q 29.390625 45.796875 24.265625 45.796875 
Q 18.21875 45.796875 15.625 43.796875 
Q 13.03125 41.796875 13.03125 39.109375 
Q 13.03125 37.40625 14.109375 36.03125 
Q 15.1875 34.625 17.484375 33.6875 
Q 18.796875 33.203125 25.25 31.453125 
Q 34.578125 28.953125 38.25 27.359375 
Q 41.9375 25.78125 44.03125 22.75 
Q 46.140625 19.734375 46.140625 15.234375 
Q 46.140625 10.84375 43.578125 6.953125 
Q 41.015625 3.078125 36.171875 0.953125 
Q 31.34375 -1.171875 25.25 -1.171875 
Q 15.140625 -1.171875 9.84375 3.03125 
Q 4.546875 7.234375 3.078125 15.484375 
z
" id="ArialMT-73"/>
       <path d="M 40.234375 0 
L 40.234375 6.546875 
Q 35.296875 -1.171875 25.734375 -1.171875 
Q 19.53125 -1.171875 14.328125 2.25 
Q 9.125 5.671875 6.265625 11.796875 
Q 3.421875 17.921875 3.421875 25.875 
Q 3.421875 33.640625 6 39.96875 
Q 8.59375 46.296875 13.765625 49.65625 
Q 18.953125 53.03125 25.34375 53.03125 
Q 30.03125 53.03125 33.6875 51.046875 
Q 37.359375 49.078125 39.65625 45.90625 
L 39.65625 71.578125 
L 48.390625 71.578125 
L 48.390625 0 
z
M 12.453125 25.875 
Q 12.453125 15.921875 16.640625 10.984375 
Q 20.84375 6.0625 26.5625 6.0625 
Q 32.328125 6.0625 36.34375 10.765625 
Q 40.375 15.484375 40.375 25.140625 
Q 40.375 35.796875 36.265625 40.765625 
Q 32.171875 45.75 26.171875 45.75 
Q 20.3125 45.75 16.375 40.96875 
Q 12.453125 36.1875 12.453125 25.875 
z
" id="ArialMT-64"/>
       <path d="M 40.4375 6.390625 
Q 35.546875 2.25 31.03125 0.53125 
Q 26.515625 -1.171875 21.34375 -1.171875 
Q 12.796875 -1.171875 8.203125 3 
Q 3.609375 7.171875 3.609375 13.671875 
Q 3.609375 17.484375 5.34375 20.625 
Q 7.078125 23.78125 9.890625 25.6875 
Q 12.703125 27.59375 16.21875 28.5625 
Q 18.796875 29.25 24.03125 29.890625 
Q 34.671875 31.15625 39.703125 32.90625 
Q 39.75 34.71875 39.75 35.203125 
Q 39.75 40.578125 37.25 42.78125 
Q 33.890625 45.75 27.25 45.75 
Q 21.046875 45.75 18.09375 43.578125 
Q 15.140625 41.40625 13.71875 35.890625 
L 5.125 37.0625 
Q 6.296875 42.578125 8.984375 45.96875 
Q 11.671875 49.359375 16.75 51.1875 
Q 21.828125 53.03125 28.515625 53.03125 
Q 35.15625 53.03125 39.296875 51.46875 
Q 43.453125 49.90625 45.40625 47.53125 
Q 47.359375 45.171875 48.140625 41.546875 
Q 48.578125 39.3125 48.578125 33.453125 
L 48.578125 21.734375 
Q 48.578125 9.46875 49.140625 6.21875 
Q 49.703125 2.984375 51.375 0 
L 42.1875 0 
Q 40.828125 2.734375 40.4375 6.390625 
z
M 39.703125 26.03125 
Q 34.90625 24.078125 25.34375 22.703125 
Q 19.921875 21.921875 17.671875 20.9375 
Q 15.4375 19.96875 14.203125 18.09375 
Q 12.984375 16.21875 12.984375 13.921875 
Q 12.984375 10.40625 15.640625 8.0625 
Q 18.3125 5.71875 23.4375 5.71875 
Q 28.515625 5.71875 32.46875 7.9375 
Q 36.421875 10.15625 38.28125 14.015625 
Q 39.703125 17 39.703125 22.796875 
z
" id="ArialMT-61"/>
       <path d="M 6.203125 -19.96875 
L 5.21875 -11.71875 
Q 8.109375 -12.5 10.25 -12.5 
Q 13.1875 -12.5 14.9375 -11.515625 
Q 16.703125 -10.546875 17.828125 -8.796875 
Q 18.65625 -7.46875 20.515625 -2.25 
Q 20.75 -1.515625 21.296875 -0.09375 
L 1.609375 51.859375 
L 11.078125 51.859375 
L 21.875 21.828125 
Q 23.96875 16.109375 25.640625 9.8125 
Q 27.15625 15.875 29.25 21.625 
L 40.328125 51.859375 
L 49.125 51.859375 
L 29.390625 -0.875 
Q 26.21875 -9.421875 24.46875 -12.640625 
Q 22.125 -17 19.09375 -19.015625 
Q 16.0625 -21.046875 11.859375 -21.046875 
Q 9.328125 -21.046875 6.203125 -19.96875 
z
" id="ArialMT-79"/>
      </defs>
      <g style="fill:#262626;" transform="translate(58.6 348.810156)scale(0.15 -0.15)">
       <use xlink:href="#ArialMT-54"/>
       <use x="61.083984" xlink:href="#ArialMT-68"/>
       <use x="116.699219" xlink:href="#ArialMT-75"/>
       <use x="172.314453" xlink:href="#ArialMT-72"/>
       <use x="205.615234" xlink:href="#ArialMT-73"/>
       <use x="255.615234" xlink:href="#ArialMT-64"/>
       <use x="311.230469" xlink:href="#ArialMT-61"/>
       <use x="366.845703" xlink:href="#ArialMT-79"/>
      </g>
     </g>
    </g>
    <g id="xtick_2">
     <g id="line2d_2">
      <g>
       <use style="fill:#262626;stroke:#262626;stroke-width:0.8;" x="169.357813" xlink:href="#ma3618310a0" y="328.573438"/>
      </g>
     </g>
     <g id="text_2">
      <!-- Friday -->
      <defs>
       <path d="M 8.203125 0 
L 8.203125 71.578125 
L 56.5 71.578125 
L 56.5 63.140625 
L 17.671875 63.140625 
L 17.671875 40.96875 
L 51.265625 40.96875 
L 51.265625 32.515625 
L 17.671875 32.515625 
L 17.671875 0 
z
" id="ArialMT-46"/>
       <path d="M 6.640625 61.46875 
L 6.640625 71.578125 
L 15.4375 71.578125 
L 15.4375 61.46875 
z
M 6.640625 0 
L 6.640625 51.859375 
L 15.4375 51.859375 
L 15.4375 0 
z
" id="ArialMT-69"/>
      </defs>
      <g style="fill:#262626;" transform="translate(148.521875 348.810156)scale(0.15 -0.15)">
       <use xlink:href="#ArialMT-46"/>
       <use x="61.083984" xlink:href="#ArialMT-72"/>
       <use x="94.384766" xlink:href="#ArialMT-69"/>
       <use x="116.601562" xlink:href="#ArialMT-64"/>
       <use x="172.216797" xlink:href="#ArialMT-61"/>
       <use x="227.832031" xlink:href="#ArialMT-79"/>
      </g>
     </g>
    </g>
    <g id="xtick_3">
     <g id="line2d_3">
      <g>
       <use style="fill:#262626;stroke:#262626;stroke-width:0.8;" x="248.854688" xlink:href="#ma3618310a0" y="328.573438"/>
      </g>
     </g>
     <g id="text_3">
      <!-- Saturday -->
      <defs>
       <path d="M 4.5 23 
L 13.421875 23.78125 
Q 14.0625 18.40625 16.375 14.96875 
Q 18.703125 11.53125 23.578125 9.40625 
Q 28.46875 7.28125 34.578125 7.28125 
Q 39.984375 7.28125 44.140625 8.890625 
Q 48.296875 10.5 50.3125 13.296875 
Q 52.34375 16.109375 52.34375 19.4375 
Q 52.34375 22.796875 50.390625 25.3125 
Q 48.4375 27.828125 43.953125 29.546875 
Q 41.0625 30.671875 31.203125 33.03125 
Q 21.34375 35.40625 17.390625 37.5 
Q 12.25 40.1875 9.734375 44.15625 
Q 7.234375 48.140625 7.234375 53.078125 
Q 7.234375 58.5 10.296875 63.203125 
Q 13.375 67.921875 19.28125 70.359375 
Q 25.203125 72.796875 32.421875 72.796875 
Q 40.375 72.796875 46.453125 70.234375 
Q 52.546875 67.671875 55.8125 62.6875 
Q 59.078125 57.71875 59.328125 51.421875 
L 50.25 50.734375 
Q 49.515625 57.515625 45.28125 60.984375 
Q 41.0625 64.453125 32.8125 64.453125 
Q 24.21875 64.453125 20.28125 61.296875 
Q 16.359375 58.15625 16.359375 53.71875 
Q 16.359375 49.859375 19.140625 47.359375 
Q 21.875 44.875 33.421875 42.265625 
Q 44.96875 39.65625 49.265625 37.703125 
Q 55.515625 34.8125 58.484375 30.390625 
Q 61.46875 25.984375 61.46875 20.21875 
Q 61.46875 14.5 58.203125 9.4375 
Q 54.9375 4.390625 48.796875 1.578125 
Q 42.671875 -1.21875 35.015625 -1.21875 
Q 25.296875 -1.21875 18.71875 1.609375 
Q 12.15625 4.4375 8.421875 10.125 
Q 4.6875 15.828125 4.5 23 
z
" id="ArialMT-53"/>
       <path d="M 25.78125 7.859375 
L 27.046875 0.09375 
Q 23.34375 -0.6875 20.40625 -0.6875 
Q 15.625 -0.6875 12.984375 0.828125 
Q 10.359375 2.34375 9.28125 4.8125 
Q 8.203125 7.28125 8.203125 15.1875 
L 8.203125 45.015625 
L 1.765625 45.015625 
L 1.765625 51.859375 
L 8.203125 51.859375 
L 8.203125 64.703125 
L 16.9375 69.96875 
L 16.9375 51.859375 
L 25.78125 51.859375 
L 25.78125 45.015625 
L 16.9375 45.015625 
L 16.9375 14.703125 
Q 16.9375 10.9375 17.40625 9.859375 
Q 17.875 8.796875 18.921875 8.15625 
Q 19.96875 7.515625 21.921875 7.515625 
Q 23.390625 7.515625 25.78125 7.859375 
z
" id="ArialMT-74"/>
      </defs>
      <g style="fill:#262626;" transform="translate(218.838281 348.992969)scale(0.15 -0.15)">
       <use xlink:href="#ArialMT-53"/>
       <use x="66.699219" xlink:href="#ArialMT-61"/>
       <use x="122.314453" xlink:href="#ArialMT-74"/>
       <use x="150.097656" xlink:href="#ArialMT-75"/>
       <use x="205.712891" xlink:href="#ArialMT-72"/>
       <use x="239.013672" xlink:href="#ArialMT-64"/>
       <use x="294.628906" xlink:href="#ArialMT-61"/>
       <use x="350.244141" xlink:href="#ArialMT-79"/>
      </g>
     </g>
    </g>
    <g id="xtick_4">
     <g id="line2d_4">
      <g>
       <use style="fill:#262626;stroke:#262626;stroke-width:0.8;" x="328.351562" xlink:href="#ma3618310a0" y="328.573438"/>
      </g>
     </g>
     <g id="text_4">
      <!-- Sunday -->
      <defs>
       <path d="M 6.59375 0 
L 6.59375 51.859375 
L 14.5 51.859375 
L 14.5 44.484375 
Q 20.21875 53.03125 31 53.03125 
Q 35.6875 53.03125 39.625 51.34375 
Q 43.5625 49.65625 45.515625 46.921875 
Q 47.46875 44.1875 48.25 40.4375 
Q 48.734375 37.984375 48.734375 31.890625 
L 48.734375 0 
L 39.9375 0 
L 39.9375 31.546875 
Q 39.9375 36.921875 38.90625 39.578125 
Q 37.890625 42.234375 35.28125 43.8125 
Q 32.671875 45.40625 29.15625 45.40625 
Q 23.53125 45.40625 19.453125 41.84375 
Q 15.375 38.28125 15.375 28.328125 
L 15.375 0 
z
" id="ArialMT-6e"/>
      </defs>
      <g style="fill:#262626;" transform="translate(302.916016 348.992969)scale(0.15 -0.15)">
       <use xlink:href="#ArialMT-53"/>
       <use x="66.699219" xlink:href="#ArialMT-75"/>
       <use x="122.314453" xlink:href="#ArialMT-6e"/>
       <use x="177.929688" xlink:href="#ArialMT-64"/>
       <use x="233.544922" xlink:href="#ArialMT-61"/>
       <use x="289.160156" xlink:href="#ArialMT-79"/>
      </g>
     </g>
    </g>
   </g>
   <g id="matplotlib.axis_2">
    <g id="ytick_1">
     <g id="line2d_5">
      <defs>
       <path d="M 0 0 
L -6 0 
" id="m00762ea348" style="stroke:#262626;stroke-width:0.8;"/>
      </defs>
      <g>
       <use style="fill:#262626;stroke:#262626;stroke-width:0.8;" x="50.1125" xlink:href="#m00762ea348" y="274.809286"/>
      </g>
     </g>
     <g id="text_5">
      <!-- 10 -->
      <defs>
       <path d="M 37.25 0 
L 28.46875 0 
L 28.46875 56 
Q 25.296875 52.984375 20.140625 49.953125 
Q 14.984375 46.921875 10.890625 45.40625 
L 10.890625 53.90625 
Q 18.265625 57.375 23.78125 62.296875 
Q 29.296875 67.234375 31.59375 71.875 
L 37.25 71.875 
z
" id="ArialMT-31"/>
       <path d="M 4.15625 35.296875 
Q 4.15625 48 6.765625 55.734375 
Q 9.375 63.484375 14.515625 67.671875 
Q 19.671875 71.875 27.484375 71.875 
Q 33.25 71.875 37.59375 69.546875 
Q 41.9375 67.234375 44.765625 62.859375 
Q 47.609375 58.5 49.21875 52.21875 
Q 50.828125 45.953125 50.828125 35.296875 
Q 50.828125 22.703125 48.234375 14.96875 
Q 45.65625 7.234375 40.5 3 
Q 35.359375 -1.21875 27.484375 -1.21875 
Q 17.140625 -1.21875 11.234375 6.203125 
Q 4.15625 15.140625 4.15625 35.296875 
z
M 13.1875 35.296875 
Q 13.1875 17.671875 17.3125 11.828125 
Q 21.4375 6 27.484375 6 
Q 33.546875 6 37.671875 11.859375 
Q 41.796875 17.71875 41.796875 35.296875 
Q 41.796875 52.984375 37.671875 58.78125 
Q 33.546875 64.59375 27.390625 64.59375 
Q 21.34375 64.59375 17.71875 59.46875 
Q 13.1875 52.9375 13.1875 35.296875 
z
" id="ArialMT-30"/>
      </defs>
      <g style="fill:#262626;" transform="translate(29.490625 278.388193)scale(0.1 -0.1)">
       <use xlink:href="#ArialMT-31"/>
       <use x="55.615234" xlink:href="#ArialMT-30"/>
      </g>
     </g>
    </g>
    <g id="ytick_2">
     <g id="line2d_6">
      <g>
       <use style="fill:#262626;stroke:#262626;stroke-width:0.8;" x="50.1125" xlink:href="#m00762ea348" y="219.689649"/>
      </g>
     </g>
     <g id="text_6">
      <!-- 20 -->
      <defs>
       <path d="M 50.34375 8.453125 
L 50.34375 0 
L 3.03125 0 
Q 2.9375 3.171875 4.046875 6.109375 
Q 5.859375 10.9375 9.828125 15.625 
Q 13.8125 20.3125 21.34375 26.46875 
Q 33.015625 36.03125 37.109375 41.625 
Q 41.21875 47.21875 41.21875 52.203125 
Q 41.21875 57.421875 37.46875 61 
Q 33.734375 64.59375 27.734375 64.59375 
Q 21.390625 64.59375 17.578125 60.78125 
Q 13.765625 56.984375 13.71875 50.25 
L 4.6875 51.171875 
Q 5.609375 61.28125 11.65625 66.578125 
Q 17.71875 71.875 27.9375 71.875 
Q 38.234375 71.875 44.234375 66.15625 
Q 50.25 60.453125 50.25 52 
Q 50.25 47.703125 48.484375 43.546875 
Q 46.734375 39.40625 42.65625 34.8125 
Q 38.578125 30.21875 29.109375 22.21875 
Q 21.1875 15.578125 18.9375 13.203125 
Q 16.703125 10.84375 15.234375 8.453125 
z
" id="ArialMT-32"/>
      </defs>
      <g style="fill:#262626;" transform="translate(29.490625 223.268555)scale(0.1 -0.1)">
       <use xlink:href="#ArialMT-32"/>
       <use x="55.615234" xlink:href="#ArialMT-30"/>
      </g>
     </g>
    </g>
    <g id="ytick_3">
     <g id="line2d_7">
      <g>
       <use style="fill:#262626;stroke:#262626;stroke-width:0.8;" x="50.1125" xlink:href="#m00762ea348" y="164.570012"/>
      </g>
     </g>
     <g id="text_7">
      <!-- 30 -->
      <defs>
       <path d="M 4.203125 18.890625 
L 12.984375 20.0625 
Q 14.5 12.59375 18.140625 9.296875 
Q 21.78125 6 27 6 
Q 33.203125 6 37.46875 10.296875 
Q 41.75 14.59375 41.75 20.953125 
Q 41.75 27 37.796875 30.921875 
Q 33.84375 34.859375 27.734375 34.859375 
Q 25.25 34.859375 21.53125 33.890625 
L 22.515625 41.609375 
Q 23.390625 41.5 23.921875 41.5 
Q 29.546875 41.5 34.03125 44.421875 
Q 38.53125 47.359375 38.53125 53.46875 
Q 38.53125 58.296875 35.25 61.46875 
Q 31.984375 64.65625 26.8125 64.65625 
Q 21.6875 64.65625 18.265625 61.421875 
Q 14.84375 58.203125 13.875 51.765625 
L 5.078125 53.328125 
Q 6.6875 62.15625 12.390625 67.015625 
Q 18.109375 71.875 26.609375 71.875 
Q 32.46875 71.875 37.390625 69.359375 
Q 42.328125 66.84375 44.9375 62.5 
Q 47.5625 58.15625 47.5625 53.265625 
Q 47.5625 48.640625 45.0625 44.828125 
Q 42.578125 41.015625 37.703125 38.765625 
Q 44.046875 37.3125 47.5625 32.6875 
Q 51.078125 28.078125 51.078125 21.140625 
Q 51.078125 11.765625 44.234375 5.25 
Q 37.40625 -1.265625 26.953125 -1.265625 
Q 17.53125 -1.265625 11.296875 4.34375 
Q 5.078125 9.96875 4.203125 18.890625 
z
" id="ArialMT-33"/>
      </defs>
      <g style="fill:#262626;" transform="translate(29.490625 168.148918)scale(0.1 -0.1)">
       <use xlink:href="#ArialMT-33"/>
       <use x="55.615234" xlink:href="#ArialMT-30"/>
      </g>
     </g>
    </g>
    <g id="ytick_4">
     <g id="line2d_8">
      <g>
       <use style="fill:#262626;stroke:#262626;stroke-width:0.8;" x="50.1125" xlink:href="#m00762ea348" y="109.450375"/>
      </g>
     </g>
     <g id="text_8">
      <!-- 40 -->
      <defs>
       <path d="M 32.328125 0 
L 32.328125 17.140625 
L 1.265625 17.140625 
L 1.265625 25.203125 
L 33.9375 71.578125 
L 41.109375 71.578125 
L 41.109375 25.203125 
L 50.78125 25.203125 
L 50.78125 17.140625 
L 41.109375 17.140625 
L 41.109375 0 
z
M 32.328125 25.203125 
L 32.328125 57.46875 
L 9.90625 25.203125 
z
" id="ArialMT-34"/>
      </defs>
      <g style="fill:#262626;" transform="translate(29.490625 113.029281)scale(0.1 -0.1)">
       <use xlink:href="#ArialMT-34"/>
       <use x="55.615234" xlink:href="#ArialMT-30"/>
      </g>
     </g>
    </g>
    <g id="ytick_5">
     <g id="line2d_9">
      <g>
       <use style="fill:#262626;stroke:#262626;stroke-width:0.8;" x="50.1125" xlink:href="#m00762ea348" y="54.330738"/>
      </g>
     </g>
     <g id="text_9">
      <!-- 50 -->
      <defs>
       <path d="M 4.15625 18.75 
L 13.375 19.53125 
Q 14.40625 12.796875 18.140625 9.390625 
Q 21.875 6 27.15625 6 
Q 33.5 6 37.890625 10.78125 
Q 42.28125 15.578125 42.28125 23.484375 
Q 42.28125 31 38.0625 35.34375 
Q 33.84375 39.703125 27 39.703125 
Q 22.75 39.703125 19.328125 37.765625 
Q 15.921875 35.84375 13.96875 32.765625 
L 5.71875 33.84375 
L 12.640625 70.609375 
L 48.25 70.609375 
L 48.25 62.203125 
L 19.671875 62.203125 
L 15.828125 42.96875 
Q 22.265625 47.46875 29.34375 47.46875 
Q 38.71875 47.46875 45.15625 40.96875 
Q 51.609375 34.46875 51.609375 24.265625 
Q 51.609375 14.546875 45.953125 7.46875 
Q 39.0625 -1.21875 27.15625 -1.21875 
Q 17.390625 -1.21875 11.203125 4.25 
Q 5.03125 9.71875 4.15625 18.75 
z
" id="ArialMT-35"/>
      </defs>
      <g style="fill:#262626;" transform="translate(29.490625 57.909644)scale(0.1 -0.1)">
       <use xlink:href="#ArialMT-35"/>
       <use x="55.615234" xlink:href="#ArialMT-30"/>
      </g>
     </g>
    </g>
    <g id="text_10">
     <!-- Total Bill -->
     <defs>
      <path d="M 3.328125 25.921875 
Q 3.328125 40.328125 11.328125 47.265625 
Q 18.015625 53.03125 27.640625 53.03125 
Q 38.328125 53.03125 45.109375 46.015625 
Q 51.90625 39.015625 51.90625 26.65625 
Q 51.90625 16.65625 48.90625 10.90625 
Q 45.90625 5.171875 40.15625 2 
Q 34.421875 -1.171875 27.640625 -1.171875 
Q 16.75 -1.171875 10.03125 5.8125 
Q 3.328125 12.796875 3.328125 25.921875 
z
M 12.359375 25.921875 
Q 12.359375 15.96875 16.703125 11.015625 
Q 21.046875 6.0625 27.640625 6.0625 
Q 34.1875 6.0625 38.53125 11.03125 
Q 42.875 16.015625 42.875 26.21875 
Q 42.875 35.84375 38.5 40.796875 
Q 34.125 45.75 27.640625 45.75 
Q 21.046875 45.75 16.703125 40.8125 
Q 12.359375 35.890625 12.359375 25.921875 
z
" id="ArialMT-6f"/>
      <path d="M 6.390625 0 
L 6.390625 71.578125 
L 15.1875 71.578125 
L 15.1875 0 
z
" id="ArialMT-6c"/>
      <path id="ArialMT-20"/>
      <path d="M 7.328125 0 
L 7.328125 71.578125 
L 34.1875 71.578125 
Q 42.390625 71.578125 47.34375 69.40625 
Q 52.296875 67.234375 55.09375 62.71875 
Q 57.90625 58.203125 57.90625 53.265625 
Q 57.90625 48.6875 55.421875 44.625 
Q 52.9375 40.578125 47.90625 38.09375 
Q 54.390625 36.1875 57.875 31.59375 
Q 61.375 27 61.375 20.75 
Q 61.375 15.71875 59.25 11.390625 
Q 57.125 7.078125 54 4.734375 
Q 50.875 2.390625 46.15625 1.1875 
Q 41.453125 0 34.625 0 
z
M 16.796875 41.5 
L 32.28125 41.5 
Q 38.578125 41.5 41.3125 42.328125 
Q 44.921875 43.40625 46.75 45.890625 
Q 48.578125 48.390625 48.578125 52.15625 
Q 48.578125 55.71875 46.875 58.421875 
Q 45.171875 61.140625 41.984375 62.140625 
Q 38.8125 63.140625 31.109375 63.140625 
L 16.796875 63.140625 
z
M 16.796875 8.453125 
L 34.625 8.453125 
Q 39.203125 8.453125 41.0625 8.796875 
Q 44.34375 9.375 46.53125 10.734375 
Q 48.734375 12.109375 50.140625 14.71875 
Q 51.5625 17.328125 51.5625 20.75 
Q 51.5625 24.75 49.515625 27.703125 
Q 47.46875 30.671875 43.828125 31.859375 
Q 40.1875 33.0625 33.34375 33.0625 
L 16.796875 33.0625 
z
" id="ArialMT-42"/>
     </defs>
     <g style="fill:#262626;" transform="translate(21.515625 219.95)rotate(-90)scale(0.2 -0.2)">
      <use xlink:href="#ArialMT-54"/>
      <use x="60.912109" xlink:href="#ArialMT-6f"/>
      <use x="116.527344" xlink:href="#ArialMT-74"/>
      <use x="144.310547" xlink:href="#ArialMT-61"/>
      <use x="199.925781" xlink:href="#ArialMT-6c"/>
      <use x="222.142578" xlink:href="#ArialMT-20"/>
      <use x="249.925781" xlink:href="#ArialMT-42"/>
      <use x="316.625" xlink:href="#ArialMT-69"/>
      <use x="338.841797" xlink:href="#ArialMT-6c"/>
      <use x="361.058594" xlink:href="#ArialMT-6c"/>
     </g>
    </g>
   </g>
   <g id="PathCollection_1"/>
   <g id="PathCollection_2"/>
   <g id="patch_3">
    <path d="M 50.1125 328.573438 
L 50.1125 34.673437 
" style="fill:none;stroke:#262626;stroke-linecap:square;stroke-linejoin:miter;stroke-width:1.25;"/>
   </g>
   <g id="patch_4">
    <path d="M 50.1125 328.573438 
L 368.1 328.573438 
" style="fill:none;stroke:#262626;stroke-linecap:square;stroke-linejoin:miter;stroke-width:1.25;"/>
   </g>
   <g id="PathCollection_3">
    <defs>
     <path d="M 0 2.5 
C 0.663008 2.5 1.29895 2.236584 1.767767 1.767767 
C 2.236584 1.29895 2.5 0.663008 2.5 0 
C 2.5 -0.663008 2.236584 -1.29895 1.767767 -1.767767 
C 1.29895 -2.236584 0.663008 -2.5 0 -2.5 
C -0.663008 -2.5 -1.29895 -2.236584 -1.767767 -1.767767 
C -2.236584 -1.29895 -2.5 -0.663008 -2.5 0 
C -2.5 0.663008 -2.236584 1.29895 -1.767767 1.767767 
C -1.29895 2.236584 -0.663008 2.5 0 2.5 
z
" id="C0_0_b2b669aa2b"/>
    </defs>
    <g clip-path="url(#p966dc27f4e)">
     <use style="fill:#1f77b4;" x="73.961562" xlink:href="#C0_0_b2b669aa2b" y="288.534076"/>
    </g>
    <g clip-path="url(#p966dc27f4e)">
     <use style="fill:#1f77b4;" x="68.789169" xlink:href="#C0_0_b2b669aa2b" y="288.258478"/>
    </g>
    <g clip-path="url(#p966dc27f4e)">
     <use style="fill:#1f77b4;" x="73.961562" xlink:href="#C0_0_b2b669aa2b" y="282.966993"/>
    </g>
    <g clip-path="url(#p966dc27f4e)">
     <use style="fill:#1f77b4;" x="73.961562" xlink:href="#C0_0_b2b669aa2b" y="276.021918"/>
    </g>
    <g clip-path="url(#p966dc27f4e)">
     <use style="fill:#1f77b4;" x="71.597621" xlink:href="#C0_0_b2b669aa2b" y="272.935219"/>
    </g>
    <g clip-path="url(#p966dc27f4e)">
     <use style="fill:#1f77b4;" x="73.961562" xlink:href="#C0_0_b2b669aa2b" y="265.494068"/>
    </g>
    <g clip-path="url(#p966dc27f4e)">
     <use style="fill:#1f77b4;" x="73.961562" xlink:href="#C0_0_b2b669aa2b" y="258.108036"/>
    </g>
    <g clip-path="url(#p966dc27f4e)">
     <use style="fill:#1f77b4;" x="70.60766" xlink:href="#C0_0_b2b669aa2b" y="255.462294"/>
    </g>
    <g clip-path="url(#p966dc27f4e)">
     <use style="fill:#1f77b4;" x="73.961562" xlink:href="#C0_0_b2b669aa2b" y="251.328321"/>
    </g>
    <g clip-path="url(#p966dc27f4e)">
     <use style="fill:#1f77b4;" x="73.961562" xlink:href="#C0_0_b2b669aa2b" y="244.603725"/>
    </g>
    <g clip-path="url(#p966dc27f4e)">
     <use style="fill:#1f77b4;" x="70.512651" xlink:href="#C0_0_b2b669aa2b" y="242.013102"/>
    </g>
    <g clip-path="url(#p966dc27f4e)">
     <use style="fill:#1f77b4;" x="77.110403" xlink:href="#C0_0_b2b669aa2b" y="241.847743"/>
    </g>
    <g clip-path="url(#p966dc27f4e)">
     <use style="fill:#1f77b4;" x="82.296588" xlink:href="#C0_0_b2b669aa2b" y="241.737504"/>
    </g>
    <g clip-path="url(#p966dc27f4e)">
     <use style="fill:#1f77b4;" x="73.961562" xlink:href="#C0_0_b2b669aa2b" y="238.540565"/>
    </g>
    <g clip-path="url(#p966dc27f4e)">
     <use style="fill:#1f77b4;" x="68.814882" xlink:href="#C0_0_b2b669aa2b" y="238.099608"/>
    </g>
    <g clip-path="url(#p966dc27f4e)">
     <use style="fill:#1f77b4;" x="73.961562" xlink:href="#C0_0_b2b669aa2b" y="234.627071"/>
    </g>
    <g clip-path="url(#p966dc27f4e)">
     <use style="fill:#1f77b4;" x="73.961562" xlink:href="#C0_0_b2b669aa2b" y="229.170227"/>
    </g>
    <g clip-path="url(#p966dc27f4e)">
     <use style="fill:#1f77b4;" x="70.174186" xlink:href="#C0_0_b2b669aa2b" y="226.800082"/>
    </g>
    <g clip-path="url(#p966dc27f4e)">
     <use style="fill:#1f77b4;" x="74.370597" xlink:href="#C0_0_b2b669aa2b" y="224.760656"/>
    </g>
    <g clip-path="url(#p966dc27f4e)">
     <use style="fill:#1f77b4;" x="70.115422" xlink:href="#C0_0_b2b669aa2b" y="222.776349"/>
    </g>
    <g clip-path="url(#p966dc27f4e)">
     <use style="fill:#1f77b4;" x="73.961562" xlink:href="#C0_0_b2b669aa2b" y="216.768308"/>
    </g>
    <g clip-path="url(#p966dc27f4e)">
     <use style="fill:#1f77b4;" x="73.961562" xlink:href="#C0_0_b2b669aa2b" y="213.295771"/>
    </g>
    <g clip-path="url(#p966dc27f4e)">
     <use style="fill:#1f77b4;" x="73.961562" xlink:href="#C0_0_b2b669aa2b" y="204.476629"/>
    </g>
    <g clip-path="url(#p966dc27f4e)">
     <use style="fill:#1f77b4;" x="68.796409" xlink:href="#C0_0_b2b669aa2b" y="204.145912"/>
    </g>
    <g clip-path="url(#p966dc27f4e)">
     <use style="fill:#1f77b4;" x="73.961562" xlink:href="#C0_0_b2b669aa2b" y="193.7283"/>
    </g>
    <g clip-path="url(#p966dc27f4e)">
     <use style="fill:#1f77b4;" x="73.961562" xlink:href="#C0_0_b2b669aa2b" y="180.00351"/>
    </g>
    <g clip-path="url(#p966dc27f4e)">
     <use style="fill:#1f77b4;" x="73.961562" xlink:href="#C0_0_b2b669aa2b" y="173.168675"/>
    </g>
    <g clip-path="url(#p966dc27f4e)">
     <use style="fill:#1f77b4;" x="73.961562" xlink:href="#C0_0_b2b669aa2b" y="149.797949"/>
    </g>
    <g clip-path="url(#p966dc27f4e)">
     <use style="fill:#1f77b4;" x="73.961562" xlink:href="#C0_0_b2b669aa2b" y="140.868568"/>
    </g>
    <g clip-path="url(#p966dc27f4e)">
     <use style="fill:#1f77b4;" x="73.961562" xlink:href="#C0_0_b2b669aa2b" y="102.891138"/>
    </g>
   </g>
   <g id="PathCollection_4">
    <defs>
     <path d="M 0 2.5 
C 0.663008 2.5 1.29895 2.236584 1.767767 1.767767 
C 2.236584 1.29895 2.5 0.663008 2.5 0 
C 2.5 -0.663008 2.236584 -1.29895 1.767767 -1.767767 
C 1.29895 -2.236584 0.663008 -2.5 0 -2.5 
C -0.663008 -2.5 -1.29895 -2.236584 -1.767767 -1.767767 
C -2.236584 -1.29895 -2.5 -0.663008 -2.5 0 
C -2.5 0.663008 -2.236584 1.29895 -1.767767 1.767767 
C -1.29895 2.236584 -0.663008 2.5 0 2.5 
z
" id="C1_0_a58c39959c"/>
    </defs>
    <g clip-path="url(#p966dc27f4e)">
     <use style="fill:#ff7f0e;" x="105.760313" xlink:href="#C1_0_a58c39959c" y="283.904027"/>
    </g>
    <g clip-path="url(#p966dc27f4e)">
     <use style="fill:#ff7f0e;" x="100.742139" xlink:href="#C1_0_a58c39959c" y="283.022112"/>
    </g>
    <g clip-path="url(#p966dc27f4e)">
     <use style="fill:#ff7f0e;" x="105.760313" xlink:href="#C1_0_a58c39959c" y="274.423449"/>
    </g>
    <g clip-path="url(#p966dc27f4e)">
     <use style="fill:#ff7f0e;" x="101.035418" xlink:href="#C1_0_a58c39959c" y="272.990338"/>
    </g>
    <g clip-path="url(#p966dc27f4e)">
     <use style="fill:#ff7f0e;" x="107.769552" xlink:href="#C1_0_a58c39959c" y="271.22651"/>
    </g>
    <g clip-path="url(#p966dc27f4e)">
     <use style="fill:#ff7f0e;" x="104.849398" xlink:href="#C1_0_a58c39959c" y="268.360289"/>
    </g>
    <g clip-path="url(#p966dc27f4e)">
     <use style="fill:#ff7f0e;" x="109.740556" xlink:href="#C1_0_a58c39959c" y="267.202776"/>
    </g>
    <g clip-path="url(#p966dc27f4e)">
     <use style="fill:#ff7f0e;" x="105.760313" xlink:href="#C1_0_a58c39959c" y="264.501914"/>
    </g>
    <g clip-path="url(#p966dc27f4e)">
     <use style="fill:#ff7f0e;" x="101.688981" xlink:href="#C1_0_a58c39959c" y="262.352248"/>
    </g>
    <g clip-path="url(#p966dc27f4e)">
     <use style="fill:#ff7f0e;" x="108.124254" xlink:href="#C1_0_a58c39959c" y="261.415215"/>
    </g>
    <g clip-path="url(#p966dc27f4e)">
     <use style="fill:#ff7f0e;" x="113.296648" xlink:href="#C1_0_a58c39959c" y="261.139616"/>
    </g>
    <g clip-path="url(#p966dc27f4e)">
     <use style="fill:#ff7f0e;" x="98.335078" xlink:href="#C1_0_a58c39959c" y="259.706506"/>
    </g>
    <g clip-path="url(#p966dc27f4e)">
     <use style="fill:#ff7f0e;" x="105.760313" xlink:href="#C1_0_a58c39959c" y="258.273395"/>
    </g>
    <g clip-path="url(#p966dc27f4e)">
     <use style="fill:#ff7f0e;" x="116.216801" xlink:href="#C1_0_a58c39959c" y="258.273395"/>
    </g>
    <g clip-path="url(#p966dc27f4e)">
     <use style="fill:#ff7f0e;" x="110.778486" xlink:href="#C1_0_a58c39959c" y="257.391481"/>
    </g>
    <g clip-path="url(#p966dc27f4e)">
     <use style="fill:#ff7f0e;" x="101.897346" xlink:href="#C1_0_a58c39959c" y="255.95837"/>
    </g>
    <g clip-path="url(#p966dc27f4e)">
     <use style="fill:#ff7f0e;" x="105.760313" xlink:href="#C1_0_a58c39959c" y="251.934637"/>
    </g>
    <g clip-path="url(#p966dc27f4e)">
     <use style="fill:#ff7f0e;" x="101.563902" xlink:href="#C1_0_a58c39959c" y="249.89521"/>
    </g>
    <g clip-path="url(#p966dc27f4e)">
     <use style="fill:#ff7f0e;" x="105.760313" xlink:href="#C1_0_a58c39959c" y="239.532719"/>
    </g>
    <g clip-path="url(#p966dc27f4e)">
     <use style="fill:#ff7f0e;" x="100.577407" xlink:href="#C1_0_a58c39959c" y="239.36736"/>
    </g>
    <g clip-path="url(#p966dc27f4e)">
     <use style="fill:#ff7f0e;" x="110.916898" xlink:href="#C1_0_a58c39959c" y="239.146881"/>
    </g>
    <g clip-path="url(#p966dc27f4e)">
     <use style="fill:#ff7f0e;" x="105.760313" xlink:href="#C1_0_a58c39959c" y="233.634917"/>
    </g>
    <g clip-path="url(#p966dc27f4e)">
     <use style="fill:#ff7f0e;" x="105.760313" xlink:href="#C1_0_a58c39959c" y="229.280466"/>
    </g>
    <g clip-path="url(#p966dc27f4e)">
     <use style="fill:#ff7f0e;" x="101.625146" xlink:href="#C1_0_a58c39959c" y="227.18592"/>
    </g>
    <g clip-path="url(#p966dc27f4e)">
     <use style="fill:#ff7f0e;" x="105.760313" xlink:href="#C1_0_a58c39959c" y="220.736922"/>
    </g>
    <g clip-path="url(#p966dc27f4e)">
     <use style="fill:#ff7f0e;" x="102.220862" xlink:href="#C1_0_a58c39959c" y="218.201419"/>
    </g>
    <g clip-path="url(#p966dc27f4e)">
     <use style="fill:#ff7f0e;" x="105.760313" xlink:href="#C1_0_a58c39959c" y="197.200837"/>
    </g>
    <g clip-path="url(#p966dc27f4e)">
     <use style="fill:#ff7f0e;" x="105.760313" xlink:href="#C1_0_a58c39959c" y="180.830305"/>
    </g>
    <g clip-path="url(#p966dc27f4e)">
     <use style="fill:#ff7f0e;" x="105.760313" xlink:href="#C1_0_a58c39959c" y="165.672405"/>
    </g>
    <g clip-path="url(#p966dc27f4e)">
     <use style="fill:#ff7f0e;" x="105.760313" xlink:href="#C1_0_a58c39959c" y="137.947227"/>
    </g>
    <g clip-path="url(#p966dc27f4e)">
     <use style="fill:#ff7f0e;" x="105.760313" xlink:href="#C1_0_a58c39959c" y="92.308168"/>
    </g>
   </g>
   <g id="PathCollection_5">
    <defs>
     <path d="M 0 2.5 
C 0.663008 2.5 1.29895 2.236584 1.767767 1.767767 
C 2.236584 1.29895 2.5 0.663008 2.5 0 
C 2.5 -0.663008 2.236584 -1.29895 1.767767 -1.767767 
C 1.29895 -2.236584 0.663008 -2.5 0 -2.5 
C -0.663008 -2.5 -1.29895 -2.236584 -1.767767 -1.767767 
C -2.236584 -1.29895 -2.5 -0.663008 -2.5 0 
C -2.5 0.663008 -2.236584 1.29895 -1.767767 1.767767 
C -1.29895 2.236584 -0.663008 2.5 0 2.5 
z
" id="C2_0_2311eb7a72"/>
    </defs>
    <g clip-path="url(#p966dc27f4e)">
     <use style="fill:#1f77b4;" x="153.458438" xlink:href="#C2_0_2311eb7a72" y="282.636275"/>
    </g>
    <g clip-path="url(#p966dc27f4e)">
     <use style="fill:#1f77b4;" x="153.458438" xlink:href="#C2_0_2311eb7a72" y="262.903445"/>
    </g>
    <g clip-path="url(#p966dc27f4e)">
     <use style="fill:#1f77b4;" x="153.458438" xlink:href="#C2_0_2311eb7a72" y="255.95837"/>
    </g>
   </g>
   <g id="PathCollection_6">
    <defs>
     <path d="M 0 2.5 
C 0.663008 2.5 1.29895 2.236584 1.767767 1.767767 
C 2.236584 1.29895 2.5 0.663008 2.5 0 
C 2.5 -0.663008 2.236584 -1.29895 1.767767 -1.767767 
C 1.29895 -2.236584 0.663008 -2.5 0 -2.5 
C -0.663008 -2.5 -1.29895 -2.236584 -1.767767 -1.767767 
C -2.236584 -1.29895 -2.5 -0.663008 -2.5 0 
C -2.5 0.663008 -2.236584 1.29895 -1.767767 1.767767 
C -1.29895 2.236584 -0.663008 2.5 0 2.5 
z
" id="C3_0_045c432507"/>
    </defs>
    <g clip-path="url(#p966dc27f4e)">
     <use style="fill:#ff7f0e;" x="185.257188" xlink:href="#C3_0_045c432507" y="274.31321"/>
    </g>
    <g clip-path="url(#p966dc27f4e)">
     <use style="fill:#ff7f0e;" x="185.257188" xlink:href="#C3_0_045c432507" y="255.95837"/>
    </g>
    <g clip-path="url(#p966dc27f4e)">
     <use style="fill:#ff7f0e;" x="185.257188" xlink:href="#C3_0_045c432507" y="241.847743"/>
    </g>
    <g clip-path="url(#p966dc27f4e)">
     <use style="fill:#ff7f0e;" x="180.652618" xlink:href="#C3_0_045c432507" y="240.249274"/>
    </g>
   </g>
   <g id="PathCollection_7">
    <path clip-path="url(#p966dc27f4e)" d="M 0 361.85 
C 0.663008 361.85 1.29895 361.586584 1.767767 361.117767 
C 2.236584 360.64895 2.5 360.013008 2.5 359.35 
C 2.5 358.686992 2.236584 358.05105 1.767767 357.582233 
C 1.29895 357.113416 0.663008 356.85 0 356.85 
C -0.663008 356.85 -1.29895 357.113416 -1.767767 357.582233 
C -2.236584 358.05105 -2.5 358.686992 -2.5 359.35 
C -2.5 360.013008 -2.236584 360.64895 -1.767767 361.117767 
C -1.29895 361.586584 -0.663008 361.85 0 361.85 
z
" style="fill:none;"/>
   </g>
   <g id="PathCollection_8">
    <path clip-path="url(#p966dc27f4e)" d="M 0 361.85 
C 0.663008 361.85 1.29895 361.586584 1.767767 361.117767 
C 2.236584 360.64895 2.5 360.013008 2.5 359.35 
C 2.5 358.686992 2.236584 358.05105 1.767767 357.582233 
C 1.29895 357.113416 0.663008 356.85 0 356.85 
C -0.663008 356.85 -1.29895 357.113416 -1.767767 357.582233 
C -2.236584 358.05105 -2.5 358.686992 -2.5 359.35 
C -2.5 360.013008 -2.236584 360.64895 -1.767767 361.117767 
C -1.29895 361.586584 -0.663008 361.85 0 361.85 
z
" style="fill:none;"/>
   </g>
   <g id="PathCollection_9">
    <path clip-path="url(#p966dc27f4e)" d="M 0 361.85 
C 0.663008 361.85 1.29895 361.586584 1.767767 361.117767 
C 2.236584 360.64895 2.5 360.013008 2.5 359.35 
C 2.5 358.686992 2.236584 358.05105 1.767767 357.582233 
C 1.29895 357.113416 0.663008 356.85 0 356.85 
C -0.663008 356.85 -1.29895 357.113416 -1.767767 357.582233 
C -2.236584 358.05105 -2.5 358.686992 -2.5 359.35 
C -2.5 360.013008 -2.236584 360.64895 -1.767767 361.117767 
C -1.29895 361.586584 -0.663008 361.85 0 361.85 
z
" style="fill:none;"/>
   </g>
   <g id="PathCollection_10">
    <path clip-path="url(#p966dc27f4e)" d="M 0 361.85 
C 0.663008 361.85 1.29895 361.586584 1.767767 361.117767 
C 2.236584 360.64895 2.5 360.013008 2.5 359.35 
C 2.5 358.686992 2.236584 358.05105 1.767767 357.582233 
C 1.29895 357.113416 0.663008 356.85 0 356.85 
C -0.663008 356.85 -1.29895 357.113416 -1.767767 357.582233 
C -2.236584 358.05105 -2.5 358.686992 -2.5 359.35 
C -2.5 360.013008 -2.236584 360.64895 -1.767767 361.117767 
C -1.29895 361.586584 -0.663008 361.85 0 361.85 
z
" style="fill:none;"/>
   </g>
   <g id="text_11">
    <!-- Lunch -->
    <defs>
     <path d="M 7.328125 0 
L 7.328125 71.578125 
L 16.796875 71.578125 
L 16.796875 8.453125 
L 52.046875 8.453125 
L 52.046875 0 
z
" id="ArialMT-4c"/>
     <path d="M 40.4375 19 
L 49.078125 17.875 
Q 47.65625 8.9375 41.8125 3.875 
Q 35.984375 -1.171875 27.484375 -1.171875 
Q 16.84375 -1.171875 10.375 5.78125 
Q 3.90625 12.75 3.90625 25.734375 
Q 3.90625 34.125 6.6875 40.421875 
Q 9.46875 46.734375 15.15625 49.875 
Q 20.84375 53.03125 27.546875 53.03125 
Q 35.984375 53.03125 41.359375 48.75 
Q 46.734375 44.484375 48.25 36.625 
L 39.703125 35.296875 
Q 38.484375 40.53125 35.375 43.15625 
Q 32.28125 45.796875 27.875 45.796875 
Q 21.234375 45.796875 17.078125 41.03125 
Q 12.9375 36.28125 12.9375 25.984375 
Q 12.9375 15.53125 16.9375 10.796875 
Q 20.953125 6.0625 27.390625 6.0625 
Q 32.5625 6.0625 36.03125 9.234375 
Q 39.5 12.40625 40.4375 19 
z
" id="ArialMT-63"/>
    </defs>
    <g style="fill:#262626;" transform="translate(168.240625 28.673437)scale(0.3 -0.3)">
     <use xlink:href="#ArialMT-4c"/>
     <use x="55.615234" xlink:href="#ArialMT-75"/>
     <use x="111.230469" xlink:href="#ArialMT-6e"/>
     <use x="166.845703" xlink:href="#ArialMT-63"/>
     <use x="216.845703" xlink:href="#ArialMT-68"/>
    </g>
   </g>
  </g>
  <g id="axes_2">
   <g id="patch_5">
    <path d="M 390.9 328.573438 
L 708.8875 328.573438 
L 708.8875 34.673437 
L 390.9 34.673437 
z
" style="fill:#ffffff;"/>
   </g>
   <g id="matplotlib.axis_3">
    <g id="xtick_5">
     <g id="line2d_10">
      <g>
       <use style="fill:#262626;stroke:#262626;stroke-width:0.8;" x="430.648438" xlink:href="#ma3618310a0" y="328.573438"/>
      </g>
     </g>
     <g id="text_12">
      <!-- Thursday -->
      <g style="fill:#262626;" transform="translate(399.3875 348.810156)scale(0.15 -0.15)">
       <use xlink:href="#ArialMT-54"/>
       <use x="61.083984" xlink:href="#ArialMT-68"/>
       <use x="116.699219" xlink:href="#ArialMT-75"/>
       <use x="172.314453" xlink:href="#ArialMT-72"/>
       <use x="205.615234" xlink:href="#ArialMT-73"/>
       <use x="255.615234" xlink:href="#ArialMT-64"/>
       <use x="311.230469" xlink:href="#ArialMT-61"/>
       <use x="366.845703" xlink:href="#ArialMT-79"/>
      </g>
     </g>
    </g>
    <g id="xtick_6">
     <g id="line2d_11">
      <g>
       <use style="fill:#262626;stroke:#262626;stroke-width:0.8;" x="510.145313" xlink:href="#ma3618310a0" y="328.573438"/>
      </g>
     </g>
     <g id="text_13">
      <!-- Friday -->
      <g style="fill:#262626;" transform="translate(489.309375 348.810156)scale(0.15 -0.15)">
       <use xlink:href="#ArialMT-46"/>
       <use x="61.083984" xlink:href="#ArialMT-72"/>
       <use x="94.384766" xlink:href="#ArialMT-69"/>
       <use x="116.601562" xlink:href="#ArialMT-64"/>
       <use x="172.216797" xlink:href="#ArialMT-61"/>
       <use x="227.832031" xlink:href="#ArialMT-79"/>
      </g>
     </g>
    </g>
    <g id="xtick_7">
     <g id="line2d_12">
      <g>
       <use style="fill:#262626;stroke:#262626;stroke-width:0.8;" x="589.642188" xlink:href="#ma3618310a0" y="328.573438"/>
      </g>
     </g>
     <g id="text_14">
      <!-- Saturday -->
      <g style="fill:#262626;" transform="translate(559.625781 348.992969)scale(0.15 -0.15)">
       <use xlink:href="#ArialMT-53"/>
       <use x="66.699219" xlink:href="#ArialMT-61"/>
       <use x="122.314453" xlink:href="#ArialMT-74"/>
       <use x="150.097656" xlink:href="#ArialMT-75"/>
       <use x="205.712891" xlink:href="#ArialMT-72"/>
       <use x="239.013672" xlink:href="#ArialMT-64"/>
       <use x="294.628906" xlink:href="#ArialMT-61"/>
       <use x="350.244141" xlink:href="#ArialMT-79"/>
      </g>
     </g>
    </g>
    <g id="xtick_8">
     <g id="line2d_13">
      <g>
       <use style="fill:#262626;stroke:#262626;stroke-width:0.8;" x="669.139063" xlink:href="#ma3618310a0" y="328.573438"/>
      </g>
     </g>
     <g id="text_15">
      <!-- Sunday -->
      <g style="fill:#262626;" transform="translate(643.703516 348.992969)scale(0.15 -0.15)">
       <use xlink:href="#ArialMT-53"/>
       <use x="66.699219" xlink:href="#ArialMT-75"/>
       <use x="122.314453" xlink:href="#ArialMT-6e"/>
       <use x="177.929688" xlink:href="#ArialMT-64"/>
       <use x="233.544922" xlink:href="#ArialMT-61"/>
       <use x="289.160156" xlink:href="#ArialMT-79"/>
      </g>
     </g>
    </g>
   </g>
   <g id="matplotlib.axis_4">
    <g id="ytick_6">
     <g id="line2d_14">
      <g>
       <use style="fill:#262626;stroke:#262626;stroke-width:0.8;" x="390.9" xlink:href="#m00762ea348" y="274.809286"/>
      </g>
     </g>
    </g>
    <g id="ytick_7">
     <g id="line2d_15">
      <g>
       <use style="fill:#262626;stroke:#262626;stroke-width:0.8;" x="390.9" xlink:href="#m00762ea348" y="219.689649"/>
      </g>
     </g>
    </g>
    <g id="ytick_8">
     <g id="line2d_16">
      <g>
       <use style="fill:#262626;stroke:#262626;stroke-width:0.8;" x="390.9" xlink:href="#m00762ea348" y="164.570012"/>
      </g>
     </g>
    </g>
    <g id="ytick_9">
     <g id="line2d_17">
      <g>
       <use style="fill:#262626;stroke:#262626;stroke-width:0.8;" x="390.9" xlink:href="#m00762ea348" y="109.450375"/>
      </g>
     </g>
    </g>
    <g id="ytick_10">
     <g id="line2d_18">
      <g>
       <use style="fill:#262626;stroke:#262626;stroke-width:0.8;" x="390.9" xlink:href="#m00762ea348" y="54.330738"/>
      </g>
     </g>
    </g>
   </g>
   <g id="PathCollection_11"/>
   <g id="PathCollection_12"/>
   <g id="patch_6">
    <path d="M 390.9 328.573438 
L 390.9 34.673437 
" style="fill:none;stroke:#262626;stroke-linecap:square;stroke-linejoin:miter;stroke-width:1.25;"/>
   </g>
   <g id="patch_7">
    <path d="M 390.9 328.573438 
L 708.8875 328.573438 
" style="fill:none;stroke:#262626;stroke-linecap:square;stroke-linejoin:miter;stroke-width:1.25;"/>
   </g>
   <g id="PathCollection_13">
    <path clip-path="url(#p57b7f6f98b)" d="M 0 361.85 
C 0.663008 361.85 1.29895 361.586584 1.767767 361.117767 
C 2.236584 360.64895 2.5 360.013008 2.5 359.35 
C 2.5 358.686992 2.236584 358.05105 1.767767 357.582233 
C 1.29895 357.113416 0.663008 356.85 0 356.85 
C -0.663008 356.85 -1.29895 357.113416 -1.767767 357.582233 
C -2.236584 358.05105 -2.5 358.686992 -2.5 359.35 
C -2.5 360.013008 -2.236584 360.64895 -1.767767 361.117767 
C -1.29895 361.586584 -0.663008 361.85 0 361.85 
z
" style="fill:none;"/>
   </g>
   <g id="PathCollection_14">
    <defs>
     <path d="M 0 2.5 
C 0.663008 2.5 1.29895 2.236584 1.767767 1.767767 
C 2.236584 1.29895 2.5 0.663008 2.5 0 
C 2.5 -0.663008 2.236584 -1.29895 1.767767 -1.767767 
C 1.29895 -2.236584 0.663008 -2.5 0 -2.5 
C -0.663008 -2.5 -1.29895 -2.236584 -1.767767 -1.767767 
C -2.236584 -1.29895 -2.5 -0.663008 -2.5 0 
C -2.5 0.663008 -2.236584 1.29895 -1.767767 1.767767 
C -1.29895 2.236584 -0.663008 2.5 0 2.5 
z
" id="mda33124aa1"/>
    </defs>
    <g clip-path="url(#p57b7f6f98b)">
     <use style="fill:#ff7f0e;" x="446.547813" xlink:href="#mda33124aa1" y="226.414245"/>
    </g>
   </g>
   <g id="PathCollection_15">
    <defs>
     <path d="M 0 2.5 
C 0.663008 2.5 1.29895 2.236584 1.767767 1.767767 
C 2.236584 1.29895 2.5 0.663008 2.5 0 
C 2.5 -0.663008 2.236584 -1.29895 1.767767 -1.767767 
C 1.29895 -2.236584 0.663008 -2.5 0 -2.5 
C -0.663008 -2.5 -1.29895 -2.236584 -1.767767 -1.767767 
C -2.236584 -1.29895 -2.5 -0.663008 -2.5 0 
C -2.5 0.663008 -2.236584 1.29895 -1.767767 1.767767 
C -1.29895 2.236584 -0.663008 2.5 0 2.5 
z
" id="C4_0_53dbfe4616"/>
    </defs>
    <g clip-path="url(#p57b7f6f98b)">
     <use style="fill:#1f77b4;" x="494.245938" xlink:href="#C4_0_53dbfe4616" y="263.62"/>
    </g>
    <g clip-path="url(#p57b7f6f98b)">
     <use style="fill:#1f77b4;" x="489.771289" xlink:href="#C4_0_53dbfe4616" y="261.249856"/>
    </g>
    <g clip-path="url(#p57b7f6f98b)">
     <use style="fill:#1f77b4;" x="494.245938" xlink:href="#C4_0_53dbfe4616" y="214.122566"/>
    </g>
    <g clip-path="url(#p57b7f6f98b)">
     <use style="fill:#1f77b4;" x="494.245938" xlink:href="#C4_0_53dbfe4616" y="205.96486"/>
    </g>
    <g clip-path="url(#p57b7f6f98b)">
     <use style="fill:#1f77b4;" x="494.245938" xlink:href="#C4_0_53dbfe4616" y="179.562553"/>
    </g>
    <g clip-path="url(#p57b7f6f98b)">
     <use style="fill:#1f77b4;" x="494.245938" xlink:href="#C4_0_53dbfe4616" y="170.247335"/>
    </g>
    <g clip-path="url(#p57b7f6f98b)">
     <use style="fill:#1f77b4;" x="494.245938" xlink:href="#C4_0_53dbfe4616" y="108.513341"/>
    </g>
   </g>
   <g id="PathCollection_16">
    <defs>
     <path d="M 0 2.5 
C 0.663008 2.5 1.29895 2.236584 1.767767 1.767767 
C 2.236584 1.29895 2.5 0.663008 2.5 0 
C 2.5 -0.663008 2.236584 -1.29895 1.767767 -1.767767 
C 1.29895 -2.236584 0.663008 -2.5 0 -2.5 
C -0.663008 -2.5 -1.29895 -2.236584 -1.767767 -1.767767 
C -2.236584 -1.29895 -2.5 -0.663008 -2.5 0 
C -2.5 0.663008 -2.236584 1.29895 -1.767767 1.767767 
C -1.29895 2.236584 -0.663008 2.5 0 2.5 
z
" id="C5_0_08644f39b3"/>
    </defs>
    <g clip-path="url(#p57b7f6f98b)">
     <use style="fill:#ff7f0e;" x="526.044688" xlink:href="#C5_0_08644f39b3" y="298.235132"/>
    </g>
    <g clip-path="url(#p57b7f6f98b)">
     <use style="fill:#ff7f0e;" x="526.044688" xlink:href="#C5_0_08644f39b3" y="267.368135"/>
    </g>
    <g clip-path="url(#p57b7f6f98b)">
     <use style="fill:#ff7f0e;" x="526.044688" xlink:href="#C5_0_08644f39b3" y="245.154922"/>
    </g>
    <g clip-path="url(#p57b7f6f98b)">
     <use style="fill:#ff7f0e;" x="526.044688" xlink:href="#C5_0_08644f39b3" y="239.973676"/>
    </g>
    <g clip-path="url(#p57b7f6f98b)">
     <use style="fill:#ff7f0e;" x="526.044688" xlink:href="#C5_0_08644f39b3" y="204.531749"/>
    </g>
   </g>
   <g id="PathCollection_17">
    <defs>
     <path d="M 0 2.5 
C 0.663008 2.5 1.29895 2.236584 1.767767 1.767767 
C 2.236584 1.29895 2.5 0.663008 2.5 0 
C 2.5 -0.663008 2.236584 -1.29895 1.767767 -1.767767 
C 1.29895 -2.236584 0.663008 -2.5 0 -2.5 
C -0.663008 -2.5 -1.29895 -2.236584 -1.767767 -1.767767 
C -2.236584 -1.29895 -2.5 -0.663008 -2.5 0 
C -2.5 0.663008 -2.236584 1.29895 -1.767767 1.767767 
C -1.29895 2.236584 -0.663008 2.5 0 2.5 
z
" id="C6_0_1f0dc5df65"/>
    </defs>
    <g clip-path="url(#p57b7f6f98b)">
     <use style="fill:#1f77b4;" x="573.742813" xlink:href="#C6_0_1f0dc5df65" y="287.266324"/>
    </g>
    <g clip-path="url(#p57b7f6f98b)">
     <use style="fill:#1f77b4;" x="573.742813" xlink:href="#C6_0_1f0dc5df65" y="277.28967"/>
    </g>
    <g clip-path="url(#p57b7f6f98b)">
     <use style="fill:#1f77b4;" x="569.640222" xlink:href="#C6_0_1f0dc5df65" y="274.423449"/>
    </g>
    <g clip-path="url(#p57b7f6f98b)">
     <use style="fill:#1f77b4;" x="574.078437" xlink:href="#C6_0_1f0dc5df65" y="271.998185"/>
    </g>
    <g clip-path="url(#p57b7f6f98b)">
     <use style="fill:#1f77b4;" x="579.018135" xlink:href="#C6_0_1f0dc5df65" y="270.565074"/>
    </g>
    <g clip-path="url(#p57b7f6f98b)">
     <use style="fill:#1f77b4;" x="569.929258" xlink:href="#C6_0_1f0dc5df65" y="269.187083"/>
    </g>
    <g clip-path="url(#p57b7f6f98b)">
     <use style="fill:#1f77b4;" x="564.917547" xlink:href="#C6_0_1f0dc5df65" y="267.974451"/>
    </g>
    <g clip-path="url(#p57b7f6f98b)">
     <use style="fill:#1f77b4;" x="573.742813" xlink:href="#C6_0_1f0dc5df65" y="266.045264"/>
    </g>
    <g clip-path="url(#p57b7f6f98b)">
     <use style="fill:#1f77b4;" x="579.784765" xlink:href="#C6_0_1f0dc5df65" y="265.935025"/>
    </g>
    <g clip-path="url(#p57b7f6f98b)">
     <use style="fill:#1f77b4;" x="569.268164" xlink:href="#C6_0_1f0dc5df65" y="263.67512"/>
    </g>
    <g clip-path="url(#p57b7f6f98b)">
     <use style="fill:#1f77b4;" x="573.742813" xlink:href="#C6_0_1f0dc5df65" y="260.478181"/>
    </g>
    <g clip-path="url(#p57b7f6f98b)">
     <use style="fill:#1f77b4;" x="578.902406" xlink:href="#C6_0_1f0dc5df65" y="259.982104"/>
    </g>
    <g clip-path="url(#p57b7f6f98b)">
     <use style="fill:#1f77b4;" x="570.633956" xlink:href="#C6_0_1f0dc5df65" y="256.730045"/>
    </g>
    <g clip-path="url(#p57b7f6f98b)">
     <use style="fill:#1f77b4;" x="575.932372" xlink:href="#C6_0_1f0dc5df65" y="256.233969"/>
    </g>
    <g clip-path="url(#p57b7f6f98b)">
     <use style="fill:#1f77b4;" x="580.370587" xlink:href="#C6_0_1f0dc5df65" y="253.808705"/>
    </g>
    <g clip-path="url(#p57b7f6f98b)">
     <use style="fill:#1f77b4;" x="567.881716" xlink:href="#C6_0_1f0dc5df65" y="252.761432"/>
    </g>
    <g clip-path="url(#p57b7f6f98b)">
     <use style="fill:#1f77b4;" x="573.742813" xlink:href="#C6_0_1f0dc5df65" y="247.194348"/>
    </g>
    <g clip-path="url(#p57b7f6f98b)">
     <use style="fill:#1f77b4;" x="569.015074" xlink:href="#C6_0_1f0dc5df65" y="245.265161"/>
    </g>
    <g clip-path="url(#p57b7f6f98b)">
     <use style="fill:#1f77b4;" x="577.845403" xlink:href="#C6_0_1f0dc5df65" y="244.328127"/>
    </g>
    <g clip-path="url(#p57b7f6f98b)">
     <use style="fill:#1f77b4;" x="582.941307" xlink:href="#C6_0_1f0dc5df65" y="243.446213"/>
    </g>
    <g clip-path="url(#p57b7f6f98b)">
     <use style="fill:#1f77b4;" x="564.614441" xlink:href="#C6_0_1f0dc5df65" y="242.784777"/>
    </g>
    <g clip-path="url(#p57b7f6f98b)">
     <use style="fill:#1f77b4;" x="573.742813" xlink:href="#C6_0_1f0dc5df65" y="241.517026"/>
    </g>
    <g clip-path="url(#p57b7f6f98b)">
     <use style="fill:#1f77b4;" x="568.823179" xlink:href="#C6_0_1f0dc5df65" y="240.028795"/>
    </g>
    <g clip-path="url(#p57b7f6f98b)">
     <use style="fill:#1f77b4;" x="573.742813" xlink:href="#C6_0_1f0dc5df65" y="232.973482"/>
    </g>
    <g clip-path="url(#p57b7f6f98b)">
     <use style="fill:#1f77b4;" x="568.685508" xlink:href="#C6_0_1f0dc5df65" y="231.926209"/>
    </g>
    <g clip-path="url(#p57b7f6f98b)">
     <use style="fill:#1f77b4;" x="578.754523" xlink:href="#C6_0_1f0dc5df65" y="231.76085"/>
    </g>
    <g clip-path="url(#p57b7f6f98b)">
     <use style="fill:#1f77b4;" x="583.942972" xlink:href="#C6_0_1f0dc5df65" y="231.70573"/>
    </g>
    <g clip-path="url(#p57b7f6f98b)">
     <use style="fill:#1f77b4;" x="563.567678" xlink:href="#C6_0_1f0dc5df65" y="231.154534"/>
    </g>
    <g clip-path="url(#p57b7f6f98b)">
     <use style="fill:#1f77b4;" x="589.095689" xlink:href="#C6_0_1f0dc5df65" y="231.154534"/>
    </g>
    <g clip-path="url(#p57b7f6f98b)">
     <use style="fill:#1f77b4;" x="558.761252" xlink:href="#C6_0_1f0dc5df65" y="229.390705"/>
    </g>
    <g clip-path="url(#p57b7f6f98b)">
     <use style="fill:#1f77b4;" x="589.3242" xlink:href="#C6_0_1f0dc5df65" y="229.115107"/>
    </g>
    <g clip-path="url(#p57b7f6f98b)">
     <use style="fill:#1f77b4;" x="558.161425" xlink:href="#C6_0_1f0dc5df65" y="228.784389"/>
    </g>
    <g clip-path="url(#p57b7f6f98b)">
     <use style="fill:#1f77b4;" x="573.742813" xlink:href="#C6_0_1f0dc5df65" y="226.910322"/>
    </g>
    <g clip-path="url(#p57b7f6f98b)">
     <use style="fill:#1f77b4;" x="573.742813" xlink:href="#C6_0_1f0dc5df65" y="220.681803"/>
    </g>
    <g clip-path="url(#p57b7f6f98b)">
     <use style="fill:#1f77b4;" x="568.803115" xlink:href="#C6_0_1f0dc5df65" y="219.248692"/>
    </g>
    <g clip-path="url(#p57b7f6f98b)">
     <use style="fill:#1f77b4;" x="578.286987" xlink:href="#C6_0_1f0dc5df65" y="218.421898"/>
    </g>
    <g clip-path="url(#p57b7f6f98b)">
     <use style="fill:#1f77b4;" x="583.462832" xlink:href="#C6_0_1f0dc5df65" y="218.09118"/>
    </g>
    <g clip-path="url(#p57b7f6f98b)">
     <use style="fill:#1f77b4;" x="564.132564" xlink:href="#C6_0_1f0dc5df65" y="217.209266"/>
    </g>
    <g clip-path="url(#p57b7f6f98b)">
     <use style="fill:#1f77b4;" x="588.505725" xlink:href="#C6_0_1f0dc5df65" y="216.988787"/>
    </g>
    <g clip-path="url(#p57b7f6f98b)">
     <use style="fill:#1f77b4;" x="572.649811" xlink:href="#C6_0_1f0dc5df65" y="216.106873"/>
    </g>
    <g clip-path="url(#p57b7f6f98b)">
     <use style="fill:#1f77b4;" x="573.742813" xlink:href="#C6_0_1f0dc5df65" y="210.319311"/>
    </g>
    <g clip-path="url(#p57b7f6f98b)">
     <use style="fill:#1f77b4;" x="573.742813" xlink:href="#C6_0_1f0dc5df65" y="204.972706"/>
    </g>
    <g clip-path="url(#p57b7f6f98b)">
     <use style="fill:#1f77b4;" x="573.742813" xlink:href="#C6_0_1f0dc5df65" y="197.586675"/>
    </g>
    <g clip-path="url(#p57b7f6f98b)">
     <use style="fill:#1f77b4;" x="568.563003" xlink:href="#C6_0_1f0dc5df65" y="197.311077"/>
    </g>
    <g clip-path="url(#p57b7f6f98b)">
     <use style="fill:#1f77b4;" x="578.68251" xlink:href="#C6_0_1f0dc5df65" y="196.153564"/>
    </g>
    <g clip-path="url(#p57b7f6f98b)">
     <use style="fill:#1f77b4;" x="573.742813" xlink:href="#C6_0_1f0dc5df65" y="190.972318"/>
    </g>
    <g clip-path="url(#p57b7f6f98b)">
     <use style="fill:#1f77b4;" x="570.633956" xlink:href="#C6_0_1f0dc5df65" y="187.224183"/>
    </g>
    <g clip-path="url(#p57b7f6f98b)">
     <use style="fill:#1f77b4;" x="573.742813" xlink:href="#C6_0_1f0dc5df65" y="183.365808"/>
    </g>
    <g clip-path="url(#p57b7f6f98b)">
     <use style="fill:#1f77b4;" x="573.742813" xlink:href="#C6_0_1f0dc5df65" y="174.767145"/>
    </g>
    <g clip-path="url(#p57b7f6f98b)">
     <use style="fill:#1f77b4;" x="573.742813" xlink:href="#C6_0_1f0dc5df65" y="169.916617"/>
    </g>
    <g clip-path="url(#p57b7f6f98b)">
     <use style="fill:#1f77b4;" x="573.742813" xlink:href="#C6_0_1f0dc5df65" y="164.239294"/>
    </g>
    <g clip-path="url(#p57b7f6f98b)">
     <use style="fill:#1f77b4;" x="573.742813" xlink:href="#C6_0_1f0dc5df65" y="157.569818"/>
    </g>
    <g clip-path="url(#p57b7f6f98b)">
     <use style="fill:#1f77b4;" x="573.742813" xlink:href="#C6_0_1f0dc5df65" y="148.971155"/>
    </g>
    <g clip-path="url(#p57b7f6f98b)">
     <use style="fill:#1f77b4;" x="573.742813" xlink:href="#C6_0_1f0dc5df65" y="120.419183"/>
    </g>
    <g clip-path="url(#p57b7f6f98b)">
     <use style="fill:#1f77b4;" x="570.990572" xlink:href="#C6_0_1f0dc5df65" y="116.450569"/>
    </g>
    <g clip-path="url(#p57b7f6f98b)">
     <use style="fill:#1f77b4;" x="574.016071" xlink:href="#C6_0_1f0dc5df65" y="112.647314"/>
    </g>
    <g clip-path="url(#p57b7f6f98b)">
     <use style="fill:#1f77b4;" x="573.742813" xlink:href="#C6_0_1f0dc5df65" y="63.866435"/>
    </g>
    <g clip-path="url(#p57b7f6f98b)">
     <use style="fill:#1f77b4;" x="568.566968" xlink:href="#C6_0_1f0dc5df65" y="63.535717"/>
    </g>
    <g clip-path="url(#p57b7f6f98b)">
     <use style="fill:#1f77b4;" x="573.742813" xlink:href="#C6_0_1f0dc5df65" y="49.866047"/>
    </g>
   </g>
   <g id="PathCollection_18">
    <defs>
     <path d="M 0 2.5 
C 0.663008 2.5 1.29895 2.236584 1.767767 1.767767 
C 2.236584 1.29895 2.5 0.663008 2.5 0 
C 2.5 -0.663008 2.236584 -1.29895 1.767767 -1.767767 
C 1.29895 -2.236584 0.663008 -2.5 0 -2.5 
C -0.663008 -2.5 -1.29895 -2.236584 -1.767767 -1.767767 
C -2.236584 -1.29895 -2.5 -0.663008 -2.5 0 
C -2.5 0.663008 -2.236584 1.29895 -1.767767 1.767767 
C -1.29895 2.236584 -0.663008 2.5 0 2.5 
z
" id="C7_0_fbceaf4a2c"/>
    </defs>
    <g clip-path="url(#p57b7f6f98b)">
     <use style="fill:#ff7f0e;" x="605.541563" xlink:href="#C7_0_fbceaf4a2c" y="313.007195"/>
    </g>
    <g clip-path="url(#p57b7f6f98b)">
     <use style="fill:#ff7f0e;" x="605.541563" xlink:href="#C7_0_fbceaf4a2c" y="289.967187"/>
    </g>
    <g clip-path="url(#p57b7f6f98b)">
     <use style="fill:#ff7f0e;" x="605.541563" xlink:href="#C7_0_fbceaf4a2c" y="271.557228"/>
    </g>
    <g clip-path="url(#p57b7f6f98b)">
     <use style="fill:#ff7f0e;" x="600.358511" xlink:href="#C7_0_fbceaf4a2c" y="271.336749"/>
    </g>
    <g clip-path="url(#p57b7f6f98b)">
     <use style="fill:#ff7f0e;" x="605.541563" xlink:href="#C7_0_fbceaf4a2c" y="259.596267"/>
    </g>
    <g clip-path="url(#p57b7f6f98b)">
     <use style="fill:#ff7f0e;" x="600.423733" xlink:href="#C7_0_fbceaf4a2c" y="258.824592"/>
    </g>
    <g clip-path="url(#p57b7f6f98b)">
     <use style="fill:#ff7f0e;" x="609.690742" xlink:href="#C7_0_fbceaf4a2c" y="256.785165"/>
    </g>
    <g clip-path="url(#p57b7f6f98b)">
     <use style="fill:#ff7f0e;" x="605.541563" xlink:href="#C7_0_fbceaf4a2c" y="251.052723"/>
    </g>
    <g clip-path="url(#p57b7f6f98b)">
     <use style="fill:#ff7f0e;" x="601.031603" xlink:href="#C7_0_fbceaf4a2c" y="248.737698"/>
    </g>
    <g clip-path="url(#p57b7f6f98b)">
     <use style="fill:#ff7f0e;" x="607.976481" xlink:href="#C7_0_fbceaf4a2c" y="246.91875"/>
    </g>
    <g clip-path="url(#p57b7f6f98b)">
     <use style="fill:#ff7f0e;" x="605.128927" xlink:href="#C7_0_fbceaf4a2c" y="243.005256"/>
    </g>
    <g clip-path="url(#p57b7f6f98b)">
     <use style="fill:#ff7f0e;" x="608.237783" xlink:href="#C7_0_fbceaf4a2c" y="239.25712"/>
    </g>
    <g clip-path="url(#p57b7f6f98b)">
     <use style="fill:#ff7f0e;" x="603.957103" xlink:href="#C7_0_fbceaf4a2c" y="236.611378"/>
    </g>
    <g clip-path="url(#p57b7f6f98b)">
     <use style="fill:#ff7f0e;" x="611.784088" xlink:href="#C7_0_fbceaf4a2c" y="235.839703"/>
    </g>
    <g clip-path="url(#p57b7f6f98b)">
     <use style="fill:#ff7f0e;" x="605.541563" xlink:href="#C7_0_fbceaf4a2c" y="221.618837"/>
    </g>
    <g clip-path="url(#p57b7f6f98b)">
     <use style="fill:#ff7f0e;" x="602.130447" xlink:href="#C7_0_fbceaf4a2c" y="218.09118"/>
    </g>
    <g clip-path="url(#p57b7f6f98b)">
     <use style="fill:#ff7f0e;" x="606.707766" xlink:href="#C7_0_fbceaf4a2c" y="215.886394"/>
    </g>
    <g clip-path="url(#p57b7f6f98b)">
     <use style="fill:#ff7f0e;" x="611.702692" xlink:href="#C7_0_fbceaf4a2c" y="214.618643"/>
    </g>
    <g clip-path="url(#p57b7f6f98b)">
     <use style="fill:#ff7f0e;" x="605.541563" xlink:href="#C7_0_fbceaf4a2c" y="208.004286"/>
    </g>
    <g clip-path="url(#p57b7f6f98b)">
     <use style="fill:#ff7f0e;" x="600.687229" xlink:href="#C7_0_fbceaf4a2c" y="206.350697"/>
    </g>
    <g clip-path="url(#p57b7f6f98b)">
     <use style="fill:#ff7f0e;" x="605.541563" xlink:href="#C7_0_fbceaf4a2c" y="190.586481"/>
    </g>
    <g clip-path="url(#p57b7f6f98b)">
     <use style="fill:#ff7f0e;" x="605.541563" xlink:href="#C7_0_fbceaf4a2c" y="184.357962"/>
    </g>
    <g clip-path="url(#p57b7f6f98b)">
     <use style="fill:#ff7f0e;" x="601.14093" xlink:href="#C7_0_fbceaf4a2c" y="181.877578"/>
    </g>
    <g clip-path="url(#p57b7f6f98b)">
     <use style="fill:#ff7f0e;" x="607.731122" xlink:href="#C7_0_fbceaf4a2c" y="180.11375"/>
    </g>
    <g clip-path="url(#p57b7f6f98b)">
     <use style="fill:#ff7f0e;" x="605.541563" xlink:href="#C7_0_fbceaf4a2c" y="174.656906"/>
    </g>
    <g clip-path="url(#p57b7f6f98b)">
     <use style="fill:#ff7f0e;" x="605.541563" xlink:href="#C7_0_fbceaf4a2c" y="163.798337"/>
    </g>
    <g clip-path="url(#p57b7f6f98b)">
     <use style="fill:#ff7f0e;" x="605.541563" xlink:href="#C7_0_fbceaf4a2c" y="132.435264"/>
    </g>
    <g clip-path="url(#p57b7f6f98b)">
     <use style="fill:#ff7f0e;" x="605.541563" xlink:href="#C7_0_fbceaf4a2c" y="85.748931"/>
    </g>
   </g>
   <g id="PathCollection_19">
    <defs>
     <path d="M 0 2.5 
C 0.663008 2.5 1.29895 2.236584 1.767767 1.767767 
C 2.236584 1.29895 2.5 0.663008 2.5 0 
C 2.5 -0.663008 2.236584 -1.29895 1.767767 -1.767767 
C 1.29895 -2.236584 0.663008 -2.5 0 -2.5 
C -0.663008 -2.5 -1.29895 -2.236584 -1.767767 -1.767767 
C -2.236584 -1.29895 -2.5 -0.663008 -2.5 0 
C -2.5 0.663008 -2.236584 1.29895 -1.767767 1.767767 
C -1.29895 2.236584 -0.663008 2.5 0 2.5 
z
" id="C8_0_2611a56f99"/>
    </defs>
    <g clip-path="url(#p57b7f6f98b)">
     <use style="fill:#1f77b4;" x="653.239688" xlink:href="#C8_0_2611a56f99" y="289.967187"/>
    </g>
    <g clip-path="url(#p57b7f6f98b)">
     <use style="fill:#1f77b4;" x="653.239688" xlink:href="#C8_0_2611a56f99" y="281.589002"/>
    </g>
    <g clip-path="url(#p57b7f6f98b)">
     <use style="fill:#1f77b4;" x="653.239688" xlink:href="#C8_0_2611a56f99" y="276.573115"/>
    </g>
    <g clip-path="url(#p57b7f6f98b)">
     <use style="fill:#1f77b4;" x="648.29999" xlink:href="#C8_0_2611a56f99" y="275.140004"/>
    </g>
    <g clip-path="url(#p57b7f6f98b)">
     <use style="fill:#1f77b4;" x="656.972134" xlink:href="#C8_0_2611a56f99" y="273.321056"/>
    </g>
    <g clip-path="url(#p57b7f6f98b)">
     <use style="fill:#1f77b4;" x="662.143289" xlink:href="#C8_0_2611a56f99" y="272.935219"/>
    </g>
    <g clip-path="url(#p57b7f6f98b)">
     <use style="fill:#1f77b4;" x="653.239688" xlink:href="#C8_0_2611a56f99" y="260.808899"/>
    </g>
    <g clip-path="url(#p57b7f6f98b)">
     <use style="fill:#1f77b4;" x="648.102931" xlink:href="#C8_0_2611a56f99" y="260.147463"/>
    </g>
    <g clip-path="url(#p57b7f6f98b)">
     <use style="fill:#1f77b4;" x="656.972134" xlink:href="#C8_0_2611a56f99" y="257.55684"/>
    </g>
    <g clip-path="url(#p57b7f6f98b)">
     <use style="fill:#1f77b4;" x="653.239688" xlink:href="#C8_0_2611a56f99" y="253.808705"/>
    </g>
    <g clip-path="url(#p57b7f6f98b)">
     <use style="fill:#1f77b4;" x="648.112022" xlink:href="#C8_0_2611a56f99" y="253.092149"/>
    </g>
    <g clip-path="url(#p57b7f6f98b)">
     <use style="fill:#1f77b4;" x="658.179385" xlink:href="#C8_0_2611a56f99" y="252.375594"/>
    </g>
    <g clip-path="url(#p57b7f6f98b)">
     <use style="fill:#1f77b4;" x="644.107028" xlink:href="#C8_0_2611a56f99" y="250.115689"/>
    </g>
    <g clip-path="url(#p57b7f6f98b)">
     <use style="fill:#1f77b4;" x="653.239688" xlink:href="#C8_0_2611a56f99" y="248.4621"/>
    </g>
    <g clip-path="url(#p57b7f6f98b)">
     <use style="fill:#1f77b4;" x="658.179385" xlink:href="#C8_0_2611a56f99" y="247.028989"/>
    </g>
    <g clip-path="url(#p57b7f6f98b)">
     <use style="fill:#1f77b4;" x="649.828572" xlink:href="#C8_0_2611a56f99" y="244.934443"/>
    </g>
    <g clip-path="url(#p57b7f6f98b)">
     <use style="fill:#1f77b4;" x="654.748206" xlink:href="#C8_0_2611a56f99" y="243.446213"/>
    </g>
    <g clip-path="url(#p57b7f6f98b)">
     <use style="fill:#1f77b4;" x="651.075741" xlink:href="#C8_0_2611a56f99" y="240.139035"/>
    </g>
    <g clip-path="url(#p57b7f6f98b)">
     <use style="fill:#1f77b4;" x="656.490674" xlink:href="#C8_0_2611a56f99" y="239.036642"/>
    </g>
    <g clip-path="url(#p57b7f6f98b)">
     <use style="fill:#1f77b4;" x="647.021195" xlink:href="#C8_0_2611a56f99" y="237.217694"/>
    </g>
    <g clip-path="url(#p57b7f6f98b)">
     <use style="fill:#1f77b4;" x="653.239688" xlink:href="#C8_0_2611a56f99" y="234.79243"/>
    </g>
    <g clip-path="url(#p57b7f6f98b)">
     <use style="fill:#1f77b4;" x="658.28258" xlink:href="#C8_0_2611a56f99" y="233.690037"/>
    </g>
    <g clip-path="url(#p57b7f6f98b)">
     <use style="fill:#1f77b4;" x="649.759784" xlink:href="#C8_0_2611a56f99" y="231.319893"/>
    </g>
    <g clip-path="url(#p57b7f6f98b)">
     <use style="fill:#1f77b4;" x="644.65254" xlink:href="#C8_0_2611a56f99" y="230.493098"/>
    </g>
    <g clip-path="url(#p57b7f6f98b)">
     <use style="fill:#1f77b4;" x="654.337103" xlink:href="#C8_0_2611a56f99" y="229.115107"/>
    </g>
    <g clip-path="url(#p57b7f6f98b)">
     <use style="fill:#1f77b4;" x="659.454933" xlink:href="#C8_0_2611a56f99" y="228.343432"/>
    </g>
    <g clip-path="url(#p57b7f6f98b)">
     <use style="fill:#1f77b4;" x="653.239688" xlink:href="#C8_0_2611a56f99" y="222.500751"/>
    </g>
    <g clip-path="url(#p57b7f6f98b)">
     <use style="fill:#1f77b4;" x="648.340962" xlink:href="#C8_0_2611a56f99" y="220.957401"/>
    </g>
    <g clip-path="url(#p57b7f6f98b)">
     <use style="fill:#1f77b4;" x="653.239688" xlink:href="#C8_0_2611a56f99" y="215.886394"/>
    </g>
    <g clip-path="url(#p57b7f6f98b)">
     <use style="fill:#1f77b4;" x="648.068532" xlink:href="#C8_0_2611a56f99" y="215.500557"/>
    </g>
    <g clip-path="url(#p57b7f6f98b)">
     <use style="fill:#1f77b4;" x="658.046113" xlink:href="#C8_0_2611a56f99" y="214.122566"/>
    </g>
    <g clip-path="url(#p57b7f6f98b)">
     <use style="fill:#1f77b4;" x="651.679151" xlink:href="#C8_0_2611a56f99" y="211.421704"/>
    </g>
    <g clip-path="url(#p57b7f6f98b)">
     <use style="fill:#1f77b4;" x="646.716908" xlink:href="#C8_0_2611a56f99" y="210.980747"/>
    </g>
    <g clip-path="url(#p57b7f6f98b)">
     <use style="fill:#1f77b4;" x="654.331249" xlink:href="#C8_0_2611a56f99" y="207.39797"/>
    </g>
    <g clip-path="url(#p57b7f6f98b)">
     <use style="fill:#1f77b4;" x="653.239688" xlink:href="#C8_0_2611a56f99" y="202.602562"/>
    </g>
    <g clip-path="url(#p57b7f6f98b)">
     <use style="fill:#1f77b4;" x="648.068532" xlink:href="#C8_0_2611a56f99" y="202.216724"/>
    </g>
    <g clip-path="url(#p57b7f6f98b)">
     <use style="fill:#1f77b4;" x="658.234613" xlink:href="#C8_0_2611a56f99" y="201.33481"/>
    </g>
    <g clip-path="url(#p57b7f6f98b)">
     <use style="fill:#1f77b4;" x="643.919353" xlink:href="#C8_0_2611a56f99" y="199.405623"/>
    </g>
    <g clip-path="url(#p57b7f6f98b)">
     <use style="fill:#1f77b4;" x="653.239688" xlink:href="#C8_0_2611a56f99" y="197.917393"/>
    </g>
    <g clip-path="url(#p57b7f6f98b)">
     <use style="fill:#1f77b4;" x="657.086384" xlink:href="#C8_0_2611a56f99" y="194.775573"/>
    </g>
    <g clip-path="url(#p57b7f6f98b)">
     <use style="fill:#1f77b4;" x="649.567223" xlink:href="#C8_0_2611a56f99" y="194.610214"/>
    </g>
    <g clip-path="url(#p57b7f6f98b)">
     <use style="fill:#1f77b4;" x="653.239688" xlink:href="#C8_0_2611a56f99" y="190.531361"/>
    </g>
    <g clip-path="url(#p57b7f6f98b)">
     <use style="fill:#1f77b4;" x="648.320054" xlink:href="#C8_0_2611a56f99" y="189.043131"/>
    </g>
    <g clip-path="url(#p57b7f6f98b)">
     <use style="fill:#1f77b4;" x="653.239688" xlink:href="#C8_0_2611a56f99" y="181.767339"/>
    </g>
    <g clip-path="url(#p57b7f6f98b)">
     <use style="fill:#1f77b4;" x="653.239688" xlink:href="#C8_0_2611a56f99" y="172.562359"/>
    </g>
    <g clip-path="url(#p57b7f6f98b)">
     <use style="fill:#1f77b4;" x="653.239688" xlink:href="#C8_0_2611a56f99" y="164.95585"/>
    </g>
    <g clip-path="url(#p57b7f6f98b)">
     <use style="fill:#1f77b4;" x="648.917789" xlink:href="#C8_0_2611a56f99" y="162.365227"/>
    </g>
    <g clip-path="url(#p57b7f6f98b)">
     <use style="fill:#1f77b4;" x="657.294234" xlink:href="#C8_0_2611a56f99" y="162.034509"/>
    </g>
    <g clip-path="url(#p57b7f6f98b)">
     <use style="fill:#1f77b4;" x="653.239688" xlink:href="#C8_0_2611a56f99" y="155.144554"/>
    </g>
    <g clip-path="url(#p57b7f6f98b)">
     <use style="fill:#1f77b4;" x="648.121858" xlink:href="#C8_0_2611a56f99" y="154.372879"/>
    </g>
    <g clip-path="url(#p57b7f6f98b)">
     <use style="fill:#1f77b4;" x="656.265187" xlink:href="#C8_0_2611a56f99" y="151.341299"/>
    </g>
    <g clip-path="url(#p57b7f6f98b)">
     <use style="fill:#1f77b4;" x="652.070825" xlink:href="#C8_0_2611a56f99" y="148.585317"/>
    </g>
    <g clip-path="url(#p57b7f6f98b)">
     <use style="fill:#1f77b4;" x="653.239688" xlink:href="#C8_0_2611a56f99" y="139.04962"/>
    </g>
    <g clip-path="url(#p57b7f6f98b)">
     <use style="fill:#1f77b4;" x="648.052318" xlink:href="#C8_0_2611a56f99" y="138.939381"/>
    </g>
    <g clip-path="url(#p57b7f6f98b)">
     <use style="fill:#1f77b4;" x="653.239688" xlink:href="#C8_0_2611a56f99" y="120.088465"/>
    </g>
    <g clip-path="url(#p57b7f6f98b)">
     <use style="fill:#1f77b4;" x="653.239688" xlink:href="#C8_0_2611a56f99" y="106.418795"/>
    </g>
    <g clip-path="url(#p57b7f6f98b)">
     <use style="fill:#1f77b4;" x="653.239688" xlink:href="#C8_0_2611a56f99" y="79.961369"/>
    </g>
    <g clip-path="url(#p57b7f6f98b)">
     <use style="fill:#1f77b4;" x="653.239688" xlink:href="#C8_0_2611a56f99" y="64.417631"/>
    </g>
   </g>
   <g id="PathCollection_20">
    <defs>
     <path d="M 0 2.5 
C 0.663008 2.5 1.29895 2.236584 1.767767 1.767767 
C 2.236584 1.29895 2.5 0.663008 2.5 0 
C 2.5 -0.663008 2.236584 -1.29895 1.767767 -1.767767 
C 1.29895 -2.236584 0.663008 -2.5 0 -2.5 
C -0.663008 -2.5 -1.29895 -2.236584 -1.767767 -1.767767 
C -2.236584 -1.29895 -2.5 -0.663008 -2.5 0 
C -2.5 0.663008 -2.236584 1.29895 -1.767767 1.767767 
C -1.29895 2.236584 -0.663008 2.5 0 2.5 
z
" id="C9_0_e9e020acda"/>
    </defs>
    <g clip-path="url(#p57b7f6f98b)">
     <use style="fill:#ff7f0e;" x="685.038437" xlink:href="#C9_0_e9e020acda" y="277.014072"/>
    </g>
    <g clip-path="url(#p57b7f6f98b)">
     <use style="fill:#ff7f0e;" x="682.012938" xlink:href="#C9_0_e9e020acda" y="273.210817"/>
    </g>
    <g clip-path="url(#p57b7f6f98b)">
     <use style="fill:#ff7f0e;" x="687.690536" xlink:href="#C9_0_e9e020acda" y="272.990338"/>
    </g>
    <g clip-path="url(#p57b7f6f98b)">
     <use style="fill:#ff7f0e;" x="685.038437" xlink:href="#C9_0_e9e020acda" y="256.123729"/>
    </g>
    <g clip-path="url(#p57b7f6f98b)">
     <use style="fill:#ff7f0e;" x="685.038437" xlink:href="#C9_0_e9e020acda" y="248.186502"/>
    </g>
    <g clip-path="url(#p57b7f6f98b)">
     <use style="fill:#ff7f0e;" x="685.038437" xlink:href="#C9_0_e9e020acda" y="240.579992"/>
    </g>
    <g clip-path="url(#p57b7f6f98b)">
     <use style="fill:#ff7f0e;" x="682.722141" xlink:href="#C9_0_e9e020acda" y="236.390899"/>
    </g>
    <g clip-path="url(#p57b7f6f98b)">
     <use style="fill:#ff7f0e;" x="687.909511" xlink:href="#C9_0_e9e020acda" y="236.28066"/>
    </g>
    <g clip-path="url(#p57b7f6f98b)">
     <use style="fill:#ff7f0e;" x="677.967243" xlink:href="#C9_0_e9e020acda" y="234.516832"/>
    </g>
    <g clip-path="url(#p57b7f6f98b)">
     <use style="fill:#ff7f0e;" x="692.012101" xlink:href="#C9_0_e9e020acda" y="233.414439"/>
    </g>
    <g clip-path="url(#p57b7f6f98b)">
     <use style="fill:#ff7f0e;" x="685.038437" xlink:href="#C9_0_e9e020acda" y="229.886782"/>
    </g>
    <g clip-path="url(#p57b7f6f98b)">
     <use style="fill:#ff7f0e;" x="685.038437" xlink:href="#C9_0_e9e020acda" y="214.728882"/>
    </g>
    <g clip-path="url(#p57b7f6f98b)">
     <use style="fill:#ff7f0e;" x="685.038437" xlink:href="#C9_0_e9e020acda" y="194.389736"/>
    </g>
    <g clip-path="url(#p57b7f6f98b)">
     <use style="fill:#ff7f0e;" x="680.494263" xlink:href="#C9_0_e9e020acda" y="192.129831"/>
    </g>
    <g clip-path="url(#p57b7f6f98b)">
     <use style="fill:#ff7f0e;" x="685.038437" xlink:href="#C9_0_e9e020acda" y="188.216336"/>
    </g>
    <g clip-path="url(#p57b7f6f98b)">
     <use style="fill:#ff7f0e;" x="685.038437" xlink:href="#C9_0_e9e020acda" y="165.396807"/>
    </g>
    <g clip-path="url(#p57b7f6f98b)">
     <use style="fill:#ff7f0e;" x="685.038437" xlink:href="#C9_0_e9e020acda" y="138.057467"/>
    </g>
    <g clip-path="url(#p57b7f6f98b)">
     <use style="fill:#ff7f0e;" x="680.637805" xlink:href="#C9_0_e9e020acda" y="135.577083"/>
    </g>
   </g>
   <g id="text_16">
    <!-- Dinner -->
    <defs>
     <path d="M 7.71875 0 
L 7.71875 71.578125 
L 32.375 71.578125 
Q 40.71875 71.578125 45.125 70.5625 
Q 51.265625 69.140625 55.609375 65.4375 
Q 61.28125 60.640625 64.078125 53.1875 
Q 66.890625 45.75 66.890625 36.1875 
Q 66.890625 28.03125 64.984375 21.734375 
Q 63.09375 15.4375 60.109375 11.296875 
Q 57.125 7.171875 53.578125 4.796875 
Q 50.046875 2.4375 45.046875 1.21875 
Q 40.046875 0 33.546875 0 
z
M 17.1875 8.453125 
L 32.46875 8.453125 
Q 39.546875 8.453125 43.578125 9.765625 
Q 47.609375 11.078125 50 13.484375 
Q 53.375 16.84375 55.25 22.53125 
Q 57.125 28.21875 57.125 36.328125 
Q 57.125 47.5625 53.4375 53.59375 
Q 49.75 59.625 44.484375 61.671875 
Q 40.671875 63.140625 32.234375 63.140625 
L 17.1875 63.140625 
z
" id="ArialMT-44"/>
     <path d="M 42.09375 16.703125 
L 51.171875 15.578125 
Q 49.03125 7.625 43.21875 3.21875 
Q 37.40625 -1.171875 28.375 -1.171875 
Q 17 -1.171875 10.328125 5.828125 
Q 3.65625 12.84375 3.65625 25.484375 
Q 3.65625 38.578125 10.390625 45.796875 
Q 17.140625 53.03125 27.875 53.03125 
Q 38.28125 53.03125 44.875 45.953125 
Q 51.46875 38.875 51.46875 26.03125 
Q 51.46875 25.25 51.421875 23.6875 
L 12.75 23.6875 
Q 13.234375 15.140625 17.578125 10.59375 
Q 21.921875 6.0625 28.421875 6.0625 
Q 33.25 6.0625 36.671875 8.59375 
Q 40.09375 11.140625 42.09375 16.703125 
z
M 13.234375 30.90625 
L 42.1875 30.90625 
Q 41.609375 37.453125 38.875 40.71875 
Q 34.671875 45.796875 27.984375 45.796875 
Q 21.921875 45.796875 17.796875 41.75 
Q 13.671875 37.703125 13.234375 30.90625 
z
" id="ArialMT-65"/>
    </defs>
    <g style="fill:#262626;" transform="translate(505.709375 28.673437)scale(0.3 -0.3)">
     <use xlink:href="#ArialMT-44"/>
     <use x="72.216797" xlink:href="#ArialMT-69"/>
     <use x="94.433594" xlink:href="#ArialMT-6e"/>
     <use x="150.048828" xlink:href="#ArialMT-6e"/>
     <use x="205.664062" xlink:href="#ArialMT-65"/>
     <use x="261.279297" xlink:href="#ArialMT-72"/>
    </g>
   </g>
   <g id="legend_1">
    <g id="PathCollection_21">
     <defs>
      <path d="M 0 3.872983 
C 1.027127 3.872983 2.012324 3.464901 2.738613 2.738613 
C 3.464901 2.012324 3.872983 1.027127 3.872983 0 
C 3.872983 -1.027127 3.464901 -2.012324 2.738613 -2.738613 
C 2.012324 -3.464901 1.027127 -3.872983 0 -3.872983 
C -1.027127 -3.872983 -2.012324 -3.464901 -2.738613 -2.738613 
C -3.464901 -2.012324 -3.872983 -1.027127 -3.872983 0 
C -3.872983 1.027127 -3.464901 2.012324 -2.738613 2.738613 
C -2.012324 3.464901 -1.027127 3.872983 0 3.872983 
z
" id="m69cdf2e826" style="stroke:#1f77b4;"/>
     </defs>
     <g>
      <use style="fill:#1f77b4;stroke:#1f77b4;" x="745.786875" xlink:href="#m69cdf2e826" y="47.472656"/>
     </g>
    </g>
    <g id="text_17">
     <!-- Male -->
     <defs>
      <path d="M 7.421875 0 
L 7.421875 71.578125 
L 21.6875 71.578125 
L 38.625 20.90625 
Q 40.96875 13.8125 42.046875 10.296875 
Q 43.265625 14.203125 45.84375 21.78125 
L 62.984375 71.578125 
L 75.734375 71.578125 
L 75.734375 0 
L 66.609375 0 
L 66.609375 59.90625 
L 45.796875 0 
L 37.25 0 
L 16.546875 60.9375 
L 16.546875 0 
z
" id="ArialMT-4d"/>
     </defs>
     <g style="fill:#262626;" transform="translate(772.786875 51.410156)scale(0.15 -0.15)">
      <use xlink:href="#ArialMT-4d"/>
      <use x="83.300781" xlink:href="#ArialMT-61"/>
      <use x="138.916016" xlink:href="#ArialMT-6c"/>
      <use x="161.132812" xlink:href="#ArialMT-65"/>
     </g>
    </g>
    <g id="PathCollection_22">
     <defs>
      <path d="M 0 3.872983 
C 1.027127 3.872983 2.012324 3.464901 2.738613 2.738613 
C 3.464901 2.012324 3.872983 1.027127 3.872983 0 
C 3.872983 -1.027127 3.464901 -2.012324 2.738613 -2.738613 
C 2.012324 -3.464901 1.027127 -3.872983 0 -3.872983 
C -1.027127 -3.872983 -2.012324 -3.464901 -2.738613 -2.738613 
C -3.464901 -2.012324 -3.872983 -1.027127 -3.872983 0 
C -3.872983 1.027127 -3.464901 2.012324 -2.738613 2.738613 
C -2.012324 3.464901 -1.027127 3.872983 0 3.872983 
z
" id="m23a9fa75ec" style="stroke:#ff7f0e;"/>
     </defs>
     <g>
      <use style="fill:#ff7f0e;stroke:#ff7f0e;" x="745.786875" xlink:href="#m23a9fa75ec" y="68.690625"/>
     </g>
    </g>
    <g id="text_18">
     <!-- Female -->
     <defs>
      <path d="M 6.59375 0 
L 6.59375 51.859375 
L 14.453125 51.859375 
L 14.453125 44.578125 
Q 16.890625 48.390625 20.9375 50.703125 
Q 25 53.03125 30.171875 53.03125 
Q 35.9375 53.03125 39.625 50.640625 
Q 43.3125 48.25 44.828125 43.953125 
Q 50.984375 53.03125 60.84375 53.03125 
Q 68.5625 53.03125 72.703125 48.75 
Q 76.859375 44.484375 76.859375 35.59375 
L 76.859375 0 
L 68.109375 0 
L 68.109375 32.671875 
Q 68.109375 37.9375 67.25 40.25 
Q 66.40625 42.578125 64.15625 43.984375 
Q 61.921875 45.40625 58.890625 45.40625 
Q 53.421875 45.40625 49.796875 41.765625 
Q 46.1875 38.140625 46.1875 30.125 
L 46.1875 0 
L 37.40625 0 
L 37.40625 33.6875 
Q 37.40625 39.546875 35.25 42.46875 
Q 33.109375 45.40625 28.21875 45.40625 
Q 24.515625 45.40625 21.359375 43.453125 
Q 18.21875 41.5 16.796875 37.734375 
Q 15.375 33.984375 15.375 26.90625 
L 15.375 0 
z
" id="ArialMT-6d"/>
     </defs>
     <g style="fill:#262626;" transform="translate(772.786875 72.628125)scale(0.15 -0.15)">
      <use xlink:href="#ArialMT-46"/>
      <use x="61.083984" xlink:href="#ArialMT-65"/>
      <use x="116.699219" xlink:href="#ArialMT-6d"/>
      <use x="200" xlink:href="#ArialMT-61"/>
      <use x="255.615234" xlink:href="#ArialMT-6c"/>
      <use x="277.832031" xlink:href="#ArialMT-65"/>
     </g>
    </g>
   </g>
  </g>
 </g>
 <defs>
  <clipPath id="p966dc27f4e">
   <rect height="293.9" width="317.9875" x="50.1125" y="34.673437"/>
  </clipPath>
  <clipPath id="p57b7f6f98b">
   <rect height="293.9" width="317.9875" x="390.9" y="34.673437"/>
  </clipPath>
 </defs>
</svg>
