<?xml version="1.0" encoding="utf-8" standalone="no"?>
<!DOCTYPE svg PUBLIC "-//W3C//DTD SVG 1.1//EN"
  "http://www.w3.org/Graphics/SVG/1.1/DTD/svg11.dtd">
<!-- Created with matplotlib (http://matplotlib.org/) -->
<svg height="564pt" version="1.1" viewBox="0 0 564 564" width="564pt" xmlns="http://www.w3.org/2000/svg" xmlns:xlink="http://www.w3.org/1999/xlink">
 <defs>
  <style type="text/css">
*{stroke-linecap:butt;stroke-linejoin:round;}
  </style>
 </defs>
 <g id="figure_1">
  <g id="patch_1">
   <path d="M 0 564.55875 
L 564.46291 564.55875 
L 564.46291 0 
L 0 0 
z
" style="fill:#ffffff;"/>
  </g>
  <g id="axes_1">
   <g id="patch_2">
    <path d="M 45.381719 254.633594 
L 282.389217 254.633594 
L 282.389217 21.073594 
L 45.381719 21.073594 
z
" style="fill:#ffffff;"/>
   </g>
   <g id="matplotlib.axis_1">
    <g id="xtick_1">
     <g id="line2d_1">
      <defs>
       <path d="M 0 0 
L 0 6 
" id="m37d9927fcd" style="stroke:#262626;"/>
      </defs>
      <g>
       <use style="fill:#262626;stroke:#262626;" x="73.487931" xlink:href="#m37d9927fcd" y="254.633594"/>
      </g>
     </g>
    </g>
    <g id="xtick_2">
     <g id="line2d_2">
      <g>
       <use style="fill:#262626;stroke:#262626;" x="108.262849" xlink:href="#m37d9927fcd" y="254.633594"/>
      </g>
     </g>
    </g>
    <g id="xtick_3">
     <g id="line2d_3">
      <g>
       <use style="fill:#262626;stroke:#262626;" x="143.037767" xlink:href="#m37d9927fcd" y="254.633594"/>
      </g>
     </g>
    </g>
    <g id="xtick_4">
     <g id="line2d_4">
      <g>
       <use style="fill:#262626;stroke:#262626;" x="177.812686" xlink:href="#m37d9927fcd" y="254.633594"/>
      </g>
     </g>
    </g>
    <g id="xtick_5">
     <g id="line2d_5">
      <g>
       <use style="fill:#262626;stroke:#262626;" x="212.587604" xlink:href="#m37d9927fcd" y="254.633594"/>
      </g>
     </g>
    </g>
    <g id="xtick_6">
     <g id="line2d_6">
      <g>
       <use style="fill:#262626;stroke:#262626;" x="247.362523" xlink:href="#m37d9927fcd" y="254.633594"/>
      </g>
     </g>
    </g>
    <g id="xtick_7">
     <g id="line2d_7">
      <g>
       <use style="fill:#262626;stroke:#262626;" x="282.137441" xlink:href="#m37d9927fcd" y="254.633594"/>
      </g>
     </g>
    </g>
    <g id="text_1">
     <!-- X -->
     <defs>
      <path d="M 0.4375 0 
L 28.125 37.3125 
L 3.71875 71.578125 
L 14.984375 71.578125 
L 27.984375 53.21875 
Q 32.03125 47.515625 33.734375 44.4375 
Q 36.140625 48.34375 39.40625 52.59375 
L 53.8125 71.578125 
L 64.109375 71.578125 
L 38.96875 37.84375 
L 66.0625 0 
L 54.34375 0 
L 36.328125 25.53125 
Q 34.8125 27.734375 33.203125 30.328125 
Q 30.8125 26.421875 29.78125 24.953125 
L 11.8125 0 
z
" id="ArialMT-58"/>
     </defs>
     <g style="fill:#262626;" transform="translate(160.216796 266.507188)scale(0.11 -0.11)">
      <use xlink:href="#ArialMT-58"/>
     </g>
    </g>
   </g>
   <g id="matplotlib.axis_2">
    <g id="ytick_1">
     <g id="line2d_8">
      <defs>
       <path d="M 0 0 
L -6 0 
" id="mb5ce7a750f" style="stroke:#262626;"/>
      </defs>
      <g>
       <use style="fill:#262626;stroke:#262626;" x="45.381719" xlink:href="#mb5ce7a750f" y="222.105344"/>
      </g>
     </g>
     <g id="text_2">
      <!-- 4 -->
      <defs>
       <path d="M 32.328125 0 
L 32.328125 17.140625 
L 1.265625 17.140625 
L 1.265625 25.203125 
L 33.9375 71.578125 
L 41.109375 71.578125 
L 41.109375 25.203125 
L 50.78125 25.203125 
L 50.78125 17.140625 
L 41.109375 17.140625 
L 41.109375 0 
z
M 32.328125 25.203125 
L 32.328125 57.46875 
L 9.90625 25.203125 
z
" id="ArialMT-34"/>
      </defs>
      <g style="fill:#262626;" transform="translate(26.820781 225.68425)scale(0.1 -0.1)">
       <use xlink:href="#ArialMT-34"/>
      </g>
     </g>
    </g>
    <g id="ytick_2">
     <g id="line2d_9">
      <g>
       <use style="fill:#262626;stroke:#262626;" x="45.381719" xlink:href="#mb5ce7a750f" y="179.842285"/>
      </g>
     </g>
     <g id="text_3">
      <!-- 6 -->
      <defs>
       <path d="M 49.75 54.046875 
L 41.015625 53.375 
Q 39.84375 58.546875 37.703125 60.890625 
Q 34.125 64.65625 28.90625 64.65625 
Q 24.703125 64.65625 21.53125 62.3125 
Q 17.390625 59.28125 14.984375 53.46875 
Q 12.59375 47.65625 12.5 36.921875 
Q 15.671875 41.75 20.265625 44.09375 
Q 24.859375 46.4375 29.890625 46.4375 
Q 38.671875 46.4375 44.84375 39.96875 
Q 51.03125 33.5 51.03125 23.25 
Q 51.03125 16.5 48.125 10.71875 
Q 45.21875 4.9375 40.140625 1.859375 
Q 35.0625 -1.21875 28.609375 -1.21875 
Q 17.625 -1.21875 10.6875 6.859375 
Q 3.765625 14.9375 3.765625 33.5 
Q 3.765625 54.25 11.421875 63.671875 
Q 18.109375 71.875 29.4375 71.875 
Q 37.890625 71.875 43.28125 67.140625 
Q 48.6875 62.40625 49.75 54.046875 
z
M 13.875 23.1875 
Q 13.875 18.65625 15.796875 14.5 
Q 17.71875 10.359375 21.1875 8.171875 
Q 24.65625 6 28.46875 6 
Q 34.03125 6 38.03125 10.484375 
Q 42.046875 14.984375 42.046875 22.703125 
Q 42.046875 30.125 38.078125 34.390625 
Q 34.125 38.671875 28.125 38.671875 
Q 22.171875 38.671875 18.015625 34.390625 
Q 13.875 30.125 13.875 23.1875 
z
" id="ArialMT-36"/>
      </defs>
      <g style="fill:#262626;" transform="translate(26.820781 183.421191)scale(0.1 -0.1)">
       <use xlink:href="#ArialMT-36"/>
      </g>
     </g>
    </g>
    <g id="ytick_3">
     <g id="line2d_10">
      <g>
       <use style="fill:#262626;stroke:#262626;" x="45.381719" xlink:href="#mb5ce7a750f" y="137.579226"/>
      </g>
     </g>
     <g id="text_4">
      <!-- 8 -->
      <defs>
       <path d="M 17.671875 38.8125 
Q 12.203125 40.828125 9.5625 44.53125 
Q 6.9375 48.25 6.9375 53.421875 
Q 6.9375 61.234375 12.546875 66.546875 
Q 18.171875 71.875 27.484375 71.875 
Q 36.859375 71.875 42.578125 66.421875 
Q 48.296875 60.984375 48.296875 53.171875 
Q 48.296875 48.1875 45.671875 44.5 
Q 43.0625 40.828125 37.75 38.8125 
Q 44.34375 36.671875 47.78125 31.875 
Q 51.21875 27.09375 51.21875 20.453125 
Q 51.21875 11.28125 44.71875 5.03125 
Q 38.234375 -1.21875 27.640625 -1.21875 
Q 17.046875 -1.21875 10.546875 5.046875 
Q 4.046875 11.328125 4.046875 20.703125 
Q 4.046875 27.6875 7.59375 32.390625 
Q 11.140625 37.109375 17.671875 38.8125 
z
M 15.921875 53.71875 
Q 15.921875 48.640625 19.1875 45.40625 
Q 22.46875 42.1875 27.6875 42.1875 
Q 32.765625 42.1875 36.015625 45.375 
Q 39.265625 48.578125 39.265625 53.21875 
Q 39.265625 58.0625 35.90625 61.359375 
Q 32.5625 64.65625 27.59375 64.65625 
Q 22.5625 64.65625 19.234375 61.421875 
Q 15.921875 58.203125 15.921875 53.71875 
z
M 13.09375 20.65625 
Q 13.09375 16.890625 14.875 13.375 
Q 16.65625 9.859375 20.171875 7.921875 
Q 23.6875 6 27.734375 6 
Q 34.03125 6 38.125 10.046875 
Q 42.234375 14.109375 42.234375 20.359375 
Q 42.234375 26.703125 38.015625 30.859375 
Q 33.796875 35.015625 27.4375 35.015625 
Q 21.234375 35.015625 17.15625 30.90625 
Q 13.09375 26.8125 13.09375 20.65625 
z
" id="ArialMT-38"/>
      </defs>
      <g style="fill:#262626;" transform="translate(26.820781 141.158132)scale(0.1 -0.1)">
       <use xlink:href="#ArialMT-38"/>
      </g>
     </g>
    </g>
    <g id="ytick_4">
     <g id="line2d_11">
      <g>
       <use style="fill:#262626;stroke:#262626;" x="45.381719" xlink:href="#mb5ce7a750f" y="95.316167"/>
      </g>
     </g>
     <g id="text_5">
      <!-- 10 -->
      <defs>
       <path d="M 37.25 0 
L 28.46875 0 
L 28.46875 56 
Q 25.296875 52.984375 20.140625 49.953125 
Q 14.984375 46.921875 10.890625 45.40625 
L 10.890625 53.90625 
Q 18.265625 57.375 23.78125 62.296875 
Q 29.296875 67.234375 31.59375 71.875 
L 37.25 71.875 
z
" id="ArialMT-31"/>
       <path d="M 4.15625 35.296875 
Q 4.15625 48 6.765625 55.734375 
Q 9.375 63.484375 14.515625 67.671875 
Q 19.671875 71.875 27.484375 71.875 
Q 33.25 71.875 37.59375 69.546875 
Q 41.9375 67.234375 44.765625 62.859375 
Q 47.609375 58.5 49.21875 52.21875 
Q 50.828125 45.953125 50.828125 35.296875 
Q 50.828125 22.703125 48.234375 14.96875 
Q 45.65625 7.234375 40.5 3 
Q 35.359375 -1.21875 27.484375 -1.21875 
Q 17.140625 -1.21875 11.234375 6.203125 
Q 4.15625 15.140625 4.15625 35.296875 
z
M 13.1875 35.296875 
Q 13.1875 17.671875 17.3125 11.828125 
Q 21.4375 6 27.484375 6 
Q 33.546875 6 37.671875 11.859375 
Q 41.796875 17.71875 41.796875 35.296875 
Q 41.796875 52.984375 37.671875 58.78125 
Q 33.546875 64.59375 27.390625 64.59375 
Q 21.34375 64.59375 17.71875 59.46875 
Q 13.1875 52.9375 13.1875 35.296875 
z
" id="ArialMT-30"/>
      </defs>
      <g style="fill:#262626;" transform="translate(21.259844 98.895073)scale(0.1 -0.1)">
       <use xlink:href="#ArialMT-31"/>
       <use x="55.615234" xlink:href="#ArialMT-30"/>
      </g>
     </g>
    </g>
    <g id="ytick_5">
     <g id="line2d_12">
      <g>
       <use style="fill:#262626;stroke:#262626;" x="45.381719" xlink:href="#mb5ce7a750f" y="53.053108"/>
      </g>
     </g>
     <g id="text_6">
      <!-- 12 -->
      <defs>
       <path d="M 50.34375 8.453125 
L 50.34375 0 
L 3.03125 0 
Q 2.9375 3.171875 4.046875 6.109375 
Q 5.859375 10.9375 9.828125 15.625 
Q 13.8125 20.3125 21.34375 26.46875 
Q 33.015625 36.03125 37.109375 41.625 
Q 41.21875 47.21875 41.21875 52.203125 
Q 41.21875 57.421875 37.46875 61 
Q 33.734375 64.59375 27.734375 64.59375 
Q 21.390625 64.59375 17.578125 60.78125 
Q 13.765625 56.984375 13.71875 50.25 
L 4.6875 51.171875 
Q 5.609375 61.28125 11.65625 66.578125 
Q 17.71875 71.875 27.9375 71.875 
Q 38.234375 71.875 44.234375 66.15625 
Q 50.25 60.453125 50.25 52 
Q 50.25 47.703125 48.484375 43.546875 
Q 46.734375 39.40625 42.65625 34.8125 
Q 38.578125 30.21875 29.109375 22.21875 
Q 21.1875 15.578125 18.9375 13.203125 
Q 16.703125 10.84375 15.234375 8.453125 
z
" id="ArialMT-32"/>
      </defs>
      <g style="fill:#262626;" transform="translate(21.259844 56.632015)scale(0.1 -0.1)">
       <use xlink:href="#ArialMT-31"/>
       <use x="55.615234" xlink:href="#ArialMT-32"/>
      </g>
     </g>
    </g>
    <g id="text_7">
     <!-- Y -->
     <defs>
      <path d="M 27.875 0 
L 27.875 30.328125 
L 0.296875 71.578125 
L 11.8125 71.578125 
L 25.921875 50 
Q 29.828125 43.953125 33.203125 37.890625 
Q 36.421875 43.5 41.015625 50.53125 
L 54.890625 71.578125 
L 65.921875 71.578125 
L 37.359375 30.328125 
L 37.359375 0 
z
" id="ArialMT-59"/>
     </defs>
     <g style="fill:#262626;" transform="translate(15.073594 141.522266)rotate(-90)scale(0.11 -0.11)">
      <use xlink:href="#ArialMT-59"/>
     </g>
    </g>
   </g>
   <g id="PathCollection_1">
    <defs>
     <path d="M 0 3.535534 
C 0.937635 3.535534 1.836992 3.163008 2.5 2.5 
C 3.163008 1.836992 3.535534 0.937635 3.535534 0 
C 3.535534 -0.937635 3.163008 -1.836992 2.5 -2.5 
C 1.836992 -3.163008 0.937635 -3.535534 0 -3.535534 
C -0.937635 -3.535534 -1.836992 -3.163008 -2.5 -2.5 
C -3.163008 -1.836992 -3.535534 -0.937635 -3.535534 0 
C -3.535534 0.937635 -3.163008 1.836992 -2.5 2.5 
C -1.836992 3.163008 -0.937635 3.535534 0 3.535534 
z
" id="mcc30207679"/>
    </defs>
    <g clip-path="url(#p9739e10cdf)">
     <use style="fill:#4878cf;" x="143.037767" xlink:href="#mcc30207679" y="136.733965"/>
     <use style="fill:#4878cf;" x="115.217833" xlink:href="#mcc30207679" y="159.767332"/>
     <use style="fill:#4878cf;" x="184.76767" xlink:href="#mcc30207679" y="146.454468"/>
     <use style="fill:#4878cf;" x="129.1278" xlink:href="#mcc30207679" y="120.462687"/>
     <use style="fill:#4878cf;" x="156.947735" xlink:href="#mcc30207679" y="130.605821"/>
     <use style="fill:#4878cf;" x="198.677637" xlink:href="#mcc30207679" y="96.161428"/>
     <use style="fill:#4878cf;" x="87.397898" xlink:href="#mcc30207679" y="153.639188"/>
     <use style="fill:#4878cf;" x="59.577963" xlink:href="#mcc30207679" y="216.611146"/>
     <use style="fill:#4878cf;" x="170.857702" xlink:href="#mcc30207679" y="77.565683"/>
     <use style="fill:#4878cf;" x="101.307865" xlink:href="#mcc30207679" y="204.777489"/>
     <use style="fill:#4878cf;" x="73.487931" xlink:href="#mcc30207679" y="186.604374"/>
    </g>
   </g>
   <g id="line2d_13">
    <path clip-path="url(#p9739e10cdf)" d="M 45.381719 211.749385 
L 47.775734 209.930603 
L 50.169749 208.111821 
L 52.563764 206.293039 
L 54.957779 204.474257 
L 57.351794 202.655475 
L 59.74581 200.836693 
L 62.139825 199.017911 
L 64.53384 197.199129 
L 66.927855 195.380346 
L 69.32187 193.561564 
L 71.715885 191.742782 
L 74.1099 189.924 
L 76.503916 188.105218 
L 78.897931 186.286436 
L 81.291946 184.467654 
L 83.685961 182.648872 
L 86.079976 180.83009 
L 88.473991 179.011308 
L 90.868006 177.192525 
L 93.262022 175.373743 
L 95.656037 173.554961 
L 98.050052 171.736179 
L 100.444067 169.917397 
L 102.838082 168.098615 
L 105.232097 166.279833 
L 107.626112 164.461051 
L 110.020127 162.642269 
L 112.414143 160.823487 
L 114.808158 159.004704 
L 117.202173 157.185922 
L 119.596188 155.36714 
L 121.990203 153.548358 
L 124.384218 151.729576 
L 126.778233 149.910794 
L 129.172249 148.092012 
L 131.566264 146.27323 
L 133.960279 144.454448 
L 136.354294 142.635666 
L 138.748309 140.816883 
L 141.142324 138.998101 
L 143.536339 137.179319 
L 145.930355 135.360537 
L 148.32437 133.541755 
L 150.718385 131.722973 
L 153.1124 129.904191 
L 155.506415 128.085409 
L 157.90043 126.266627 
L 160.294445 124.447845 
L 162.68846 122.629062 
L 165.082476 120.81028 
L 167.476491 118.991498 
L 169.870506 117.172716 
L 172.264521 115.353934 
L 174.658536 113.535152 
L 177.052551 111.71637 
L 179.446566 109.897588 
L 181.840582 108.078806 
L 184.234597 106.260023 
L 186.628612 104.441241 
L 189.022627 102.622459 
L 191.416642 100.803677 
L 193.810657 98.984895 
L 196.204672 97.166113 
L 198.598688 95.347331 
L 200.992703 93.528549 
L 203.386718 91.709767 
L 205.780733 89.890985 
L 208.174748 88.072202 
L 210.568763 86.25342 
L 212.962778 84.434638 
L 215.356794 82.615856 
L 217.750809 80.797074 
L 220.144824 78.978292 
L 222.538839 77.15951 
L 224.932854 75.340728 
L 227.326869 73.521946 
L 229.720884 71.703164 
L 232.114899 69.884381 
L 234.508915 68.065599 
L 236.90293 66.246817 
L 239.296945 64.428035 
L 241.69096 62.609253 
L 244.084975 60.790471 
L 246.47899 58.971689 
L 248.873005 57.152907 
L 251.267021 55.334125 
L 253.661036 53.515343 
L 256.055051 51.69656 
L 258.449066 49.877778 
L 260.843081 48.058996 
L 263.237096 46.240214 
L 265.631111 44.421432 
L 268.025127 42.60265 
L 270.419142 40.783868 
L 272.813157 38.965086 
L 275.207172 37.146304 
L 277.601187 35.327522 
L 279.995202 33.508739 
L 282.389217 31.689957 
" style="fill:none;stroke:#4878cf;stroke-linecap:round;stroke-width:2.625;"/>
   </g>
   <g id="patch_3">
    <path d="M 45.381719 254.633594 
L 45.381719 21.073594 
" style="fill:none;stroke:#262626;stroke-linecap:square;stroke-linejoin:miter;stroke-width:1.25;"/>
   </g>
   <g id="patch_4">
    <path d="M 45.381719 254.633594 
L 282.389217 254.633594 
" style="fill:none;stroke:#262626;stroke-linecap:square;stroke-linejoin:miter;stroke-width:1.25;"/>
   </g>
   <g id="text_8">
    <!-- dataset = I -->
    <defs>
     <path d="M 40.234375 0 
L 40.234375 6.546875 
Q 35.296875 -1.171875 25.734375 -1.171875 
Q 19.53125 -1.171875 14.328125 2.25 
Q 9.125 5.671875 6.265625 11.796875 
Q 3.421875 17.921875 3.421875 25.875 
Q 3.421875 33.640625 6 39.96875 
Q 8.59375 46.296875 13.765625 49.65625 
Q 18.953125 53.03125 25.34375 53.03125 
Q 30.03125 53.03125 33.6875 51.046875 
Q 37.359375 49.078125 39.65625 45.90625 
L 39.65625 71.578125 
L 48.390625 71.578125 
L 48.390625 0 
z
M 12.453125 25.875 
Q 12.453125 15.921875 16.640625 10.984375 
Q 20.84375 6.0625 26.5625 6.0625 
Q 32.328125 6.0625 36.34375 10.765625 
Q 40.375 15.484375 40.375 25.140625 
Q 40.375 35.796875 36.265625 40.765625 
Q 32.171875 45.75 26.171875 45.75 
Q 20.3125 45.75 16.375 40.96875 
Q 12.453125 36.1875 12.453125 25.875 
z
" id="ArialMT-64"/>
     <path d="M 40.4375 6.390625 
Q 35.546875 2.25 31.03125 0.53125 
Q 26.515625 -1.171875 21.34375 -1.171875 
Q 12.796875 -1.171875 8.203125 3 
Q 3.609375 7.171875 3.609375 13.671875 
Q 3.609375 17.484375 5.34375 20.625 
Q 7.078125 23.78125 9.890625 25.6875 
Q 12.703125 27.59375 16.21875 28.5625 
Q 18.796875 29.25 24.03125 29.890625 
Q 34.671875 31.15625 39.703125 32.90625 
Q 39.75 34.71875 39.75 35.203125 
Q 39.75 40.578125 37.25 42.78125 
Q 33.890625 45.75 27.25 45.75 
Q 21.046875 45.75 18.09375 43.578125 
Q 15.140625 41.40625 13.71875 35.890625 
L 5.125 37.0625 
Q 6.296875 42.578125 8.984375 45.96875 
Q 11.671875 49.359375 16.75 51.1875 
Q 21.828125 53.03125 28.515625 53.03125 
Q 35.15625 53.03125 39.296875 51.46875 
Q 43.453125 49.90625 45.40625 47.53125 
Q 47.359375 45.171875 48.140625 41.546875 
Q 48.578125 39.3125 48.578125 33.453125 
L 48.578125 21.734375 
Q 48.578125 9.46875 49.140625 6.21875 
Q 49.703125 2.984375 51.375 0 
L 42.1875 0 
Q 40.828125 2.734375 40.4375 6.390625 
z
M 39.703125 26.03125 
Q 34.90625 24.078125 25.34375 22.703125 
Q 19.921875 21.921875 17.671875 20.9375 
Q 15.4375 19.96875 14.203125 18.09375 
Q 12.984375 16.21875 12.984375 13.921875 
Q 12.984375 10.40625 15.640625 8.0625 
Q 18.3125 5.71875 23.4375 5.71875 
Q 28.515625 5.71875 32.46875 7.9375 
Q 36.421875 10.15625 38.28125 14.015625 
Q 39.703125 17 39.703125 22.796875 
z
" id="ArialMT-61"/>
     <path d="M 25.78125 7.859375 
L 27.046875 0.09375 
Q 23.34375 -0.6875 20.40625 -0.6875 
Q 15.625 -0.6875 12.984375 0.828125 
Q 10.359375 2.34375 9.28125 4.8125 
Q 8.203125 7.28125 8.203125 15.1875 
L 8.203125 45.015625 
L 1.765625 45.015625 
L 1.765625 51.859375 
L 8.203125 51.859375 
L 8.203125 64.703125 
L 16.9375 69.96875 
L 16.9375 51.859375 
L 25.78125 51.859375 
L 25.78125 45.015625 
L 16.9375 45.015625 
L 16.9375 14.703125 
Q 16.9375 10.9375 17.40625 9.859375 
Q 17.875 8.796875 18.921875 8.15625 
Q 19.96875 7.515625 21.921875 7.515625 
Q 23.390625 7.515625 25.78125 7.859375 
z
" id="ArialMT-74"/>
     <path d="M 3.078125 15.484375 
L 11.765625 16.84375 
Q 12.5 11.625 15.84375 8.84375 
Q 19.1875 6.0625 25.203125 6.0625 
Q 31.25 6.0625 34.171875 8.515625 
Q 37.109375 10.984375 37.109375 14.3125 
Q 37.109375 17.28125 34.515625 19 
Q 32.71875 20.171875 25.53125 21.96875 
Q 15.875 24.421875 12.140625 26.203125 
Q 8.40625 27.984375 6.46875 31.125 
Q 4.546875 34.28125 4.546875 38.09375 
Q 4.546875 41.546875 6.125 44.5 
Q 7.71875 47.46875 10.453125 49.421875 
Q 12.5 50.921875 16.03125 51.96875 
Q 19.578125 53.03125 23.640625 53.03125 
Q 29.734375 53.03125 34.34375 51.265625 
Q 38.96875 49.515625 41.15625 46.5 
Q 43.359375 43.5 44.1875 38.484375 
L 35.59375 37.3125 
Q 35.015625 41.3125 32.203125 43.546875 
Q 29.390625 45.796875 24.265625 45.796875 
Q 18.21875 45.796875 15.625 43.796875 
Q 13.03125 41.796875 13.03125 39.109375 
Q 13.03125 37.40625 14.109375 36.03125 
Q 15.1875 34.625 17.484375 33.6875 
Q 18.796875 33.203125 25.25 31.453125 
Q 34.578125 28.953125 38.25 27.359375 
Q 41.9375 25.78125 44.03125 22.75 
Q 46.140625 19.734375 46.140625 15.234375 
Q 46.140625 10.84375 43.578125 6.953125 
Q 41.015625 3.078125 36.171875 0.953125 
Q 31.34375 -1.171875 25.25 -1.171875 
Q 15.140625 -1.171875 9.84375 3.03125 
Q 4.546875 7.234375 3.078125 15.484375 
z
" id="ArialMT-73"/>
     <path d="M 42.09375 16.703125 
L 51.171875 15.578125 
Q 49.03125 7.625 43.21875 3.21875 
Q 37.40625 -1.171875 28.375 -1.171875 
Q 17 -1.171875 10.328125 5.828125 
Q 3.65625 12.84375 3.65625 25.484375 
Q 3.65625 38.578125 10.390625 45.796875 
Q 17.140625 53.03125 27.875 53.03125 
Q 38.28125 53.03125 44.875 45.953125 
Q 51.46875 38.875 51.46875 26.03125 
Q 51.46875 25.25 51.421875 23.6875 
L 12.75 23.6875 
Q 13.234375 15.140625 17.578125 10.59375 
Q 21.921875 6.0625 28.421875 6.0625 
Q 33.25 6.0625 36.671875 8.59375 
Q 40.09375 11.140625 42.09375 16.703125 
z
M 13.234375 30.90625 
L 42.1875 30.90625 
Q 41.609375 37.453125 38.875 40.71875 
Q 34.671875 45.796875 27.984375 45.796875 
Q 21.921875 45.796875 17.796875 41.75 
Q 13.671875 37.703125 13.234375 30.90625 
z
" id="ArialMT-65"/>
     <path id="ArialMT-20"/>
     <path d="M 52.828125 42.09375 
L 5.5625 42.09375 
L 5.5625 50.296875 
L 52.828125 50.296875 
z
M 52.828125 20.359375 
L 5.5625 20.359375 
L 5.5625 28.5625 
L 52.828125 28.5625 
z
" id="ArialMT-3d"/>
     <path d="M 9.328125 0 
L 9.328125 71.578125 
L 18.796875 71.578125 
L 18.796875 0 
z
" id="ArialMT-49"/>
    </defs>
    <g style="fill:#262626;" transform="translate(138.049218 15.073594)scale(0.11 -0.11)">
     <use xlink:href="#ArialMT-64"/>
     <use x="55.615234" xlink:href="#ArialMT-61"/>
     <use x="111.230469" xlink:href="#ArialMT-74"/>
     <use x="139.013672" xlink:href="#ArialMT-61"/>
     <use x="194.628906" xlink:href="#ArialMT-73"/>
     <use x="244.628906" xlink:href="#ArialMT-65"/>
     <use x="300.244141" xlink:href="#ArialMT-74"/>
     <use x="328.027344" xlink:href="#ArialMT-20"/>
     <use x="355.810547" xlink:href="#ArialMT-3d"/>
     <use x="414.208984" xlink:href="#ArialMT-20"/>
     <use x="441.992188" xlink:href="#ArialMT-49"/>
    </g>
   </g>
  </g>
  <g id="axes_2">
   <g id="patch_5">
    <path d="M 310.776719 254.633594 
L 547.784217 254.633594 
L 547.784217 21.073594 
L 310.776719 21.073594 
z
" style="fill:#ffffff;"/>
   </g>
   <g id="matplotlib.axis_3">
    <g id="xtick_8">
     <g id="line2d_14">
      <g>
       <use style="fill:#262626;stroke:#262626;" x="338.882931" xlink:href="#m37d9927fcd" y="254.633594"/>
      </g>
     </g>
    </g>
    <g id="xtick_9">
     <g id="line2d_15">
      <g>
       <use style="fill:#262626;stroke:#262626;" x="373.657849" xlink:href="#m37d9927fcd" y="254.633594"/>
      </g>
     </g>
    </g>
    <g id="xtick_10">
     <g id="line2d_16">
      <g>
       <use style="fill:#262626;stroke:#262626;" x="408.432767" xlink:href="#m37d9927fcd" y="254.633594"/>
      </g>
     </g>
    </g>
    <g id="xtick_11">
     <g id="line2d_17">
      <g>
       <use style="fill:#262626;stroke:#262626;" x="443.207686" xlink:href="#m37d9927fcd" y="254.633594"/>
      </g>
     </g>
    </g>
    <g id="xtick_12">
     <g id="line2d_18">
      <g>
       <use style="fill:#262626;stroke:#262626;" x="477.982604" xlink:href="#m37d9927fcd" y="254.633594"/>
      </g>
     </g>
    </g>
    <g id="xtick_13">
     <g id="line2d_19">
      <g>
       <use style="fill:#262626;stroke:#262626;" x="512.757523" xlink:href="#m37d9927fcd" y="254.633594"/>
      </g>
     </g>
    </g>
    <g id="xtick_14">
     <g id="line2d_20">
      <g>
       <use style="fill:#262626;stroke:#262626;" x="547.532441" xlink:href="#m37d9927fcd" y="254.633594"/>
      </g>
     </g>
    </g>
    <g id="text_9">
     <!-- X -->
     <g style="fill:#262626;" transform="translate(425.611796 266.507188)scale(0.11 -0.11)">
      <use xlink:href="#ArialMT-58"/>
     </g>
    </g>
   </g>
   <g id="matplotlib.axis_4">
    <g id="ytick_6">
     <g id="line2d_21">
      <g>
       <use style="fill:#262626;stroke:#262626;" x="310.776719" xlink:href="#mb5ce7a750f" y="222.105344"/>
      </g>
     </g>
    </g>
    <g id="ytick_7">
     <g id="line2d_22">
      <g>
       <use style="fill:#262626;stroke:#262626;" x="310.776719" xlink:href="#mb5ce7a750f" y="179.842285"/>
      </g>
     </g>
    </g>
    <g id="ytick_8">
     <g id="line2d_23">
      <g>
       <use style="fill:#262626;stroke:#262626;" x="310.776719" xlink:href="#mb5ce7a750f" y="137.579226"/>
      </g>
     </g>
    </g>
    <g id="ytick_9">
     <g id="line2d_24">
      <g>
       <use style="fill:#262626;stroke:#262626;" x="310.776719" xlink:href="#mb5ce7a750f" y="95.316167"/>
      </g>
     </g>
    </g>
    <g id="ytick_10">
     <g id="line2d_25">
      <g>
       <use style="fill:#262626;stroke:#262626;" x="310.776719" xlink:href="#mb5ce7a750f" y="53.053108"/>
      </g>
     </g>
    </g>
    <g id="text_10">
     <!-- Y -->
     <g style="fill:#262626;" transform="translate(304.590469 141.522266)rotate(-90)scale(0.11 -0.11)">
      <use xlink:href="#ArialMT-59"/>
     </g>
    </g>
   </g>
   <g id="PathCollection_2">
    <defs>
     <path d="M 0 3.535534 
C 0.937635 3.535534 1.836992 3.163008 2.5 2.5 
C 3.163008 1.836992 3.535534 0.937635 3.535534 0 
C 3.535534 -0.937635 3.163008 -1.836992 2.5 -2.5 
C 1.836992 -3.163008 0.937635 -3.535534 0 -3.535534 
C -0.937635 -3.535534 -1.836992 -3.163008 -2.5 -2.5 
C -3.163008 -1.836992 -3.535534 -0.937635 -3.535534 0 
C -3.535534 0.937635 -3.163008 1.836992 -2.5 2.5 
C -1.836992 3.163008 -0.937635 3.535534 0 3.535534 
z
" id="mc2e641fd34"/>
    </defs>
    <g clip-path="url(#pa7045c726b)">
     <use style="fill:#6acc65;" x="408.432767" xlink:href="#mc2e641fd34" y="113.489282"/>
     <use style="fill:#6acc65;" x="380.612833" xlink:href="#mc2e641fd34" y="134.620812"/>
     <use style="fill:#6acc65;" x="450.16267" xlink:href="#mc2e641fd34" y="121.941894"/>
     <use style="fill:#6acc65;" x="394.5228" xlink:href="#mc2e641fd34" y="121.307948"/>
     <use style="fill:#6acc65;" x="422.342735" xlink:href="#mc2e641fd34" y="110.953499"/>
     <use style="fill:#6acc65;" x="464.072637" xlink:href="#mc2e641fd34" y="135.466073"/>
     <use style="fill:#6acc65;" x="352.792898" xlink:href="#mc2e641fd34" y="177.095186"/>
     <use style="fill:#6acc65;" x="324.972963" xlink:href="#mc2e641fd34" y="241.12372"/>
     <use style="fill:#6acc65;" x="436.252702" xlink:href="#mc2e641fd34" y="113.700598"/>
     <use style="fill:#6acc65;" x="366.702865" xlink:href="#mc2e641fd34" y="153.216558"/>
     <use style="fill:#6acc65;" x="338.882931" xlink:href="#mc2e641fd34" y="206.468012"/>
    </g>
   </g>
   <g id="line2d_26">
    <path clip-path="url(#pa7045c726b)" d="M 310.776719 211.737819 
L 313.170734 209.919368 
L 315.564749 208.100917 
L 317.958764 206.282465 
L 320.352779 204.464014 
L 322.746794 202.645562 
L 325.14081 200.827111 
L 327.534825 199.008659 
L 329.92884 197.190208 
L 332.322855 195.371756 
L 334.71687 193.553305 
L 337.110885 191.734853 
L 339.5049 189.916402 
L 341.898916 188.09795 
L 344.292931 186.279499 
L 346.686946 184.461047 
L 349.080961 182.642596 
L 351.474976 180.824144 
L 353.868991 179.005693 
L 356.263006 177.187242 
L 358.657022 175.36879 
L 361.051037 173.550339 
L 363.445052 171.731887 
L 365.839067 169.913436 
L 368.233082 168.094984 
L 370.627097 166.276533 
L 373.021112 164.458081 
L 375.415127 162.63963 
L 377.809143 160.821178 
L 380.203158 159.002727 
L 382.597173 157.184275 
L 384.991188 155.365824 
L 387.385203 153.547372 
L 389.779218 151.728921 
L 392.173233 149.910469 
L 394.567249 148.092018 
L 396.961264 146.273566 
L 399.355279 144.455115 
L 401.749294 142.636664 
L 404.143309 140.818212 
L 406.537324 138.999761 
L 408.931339 137.181309 
L 411.325355 135.362858 
L 413.71937 133.544406 
L 416.113385 131.725955 
L 418.5074 129.907503 
L 420.901415 128.089052 
L 423.29543 126.2706 
L 425.689445 124.452149 
L 428.08346 122.633697 
L 430.477476 120.815246 
L 432.871491 118.996794 
L 435.265506 117.178343 
L 437.659521 115.359891 
L 440.053536 113.54144 
L 442.447551 111.722988 
L 444.841566 109.904537 
L 447.235582 108.086086 
L 449.629597 106.267634 
L 452.023612 104.449183 
L 454.417627 102.630731 
L 456.811642 100.81228 
L 459.205657 98.993828 
L 461.599672 97.175377 
L 463.993688 95.356925 
L 466.387703 93.538474 
L 468.781718 91.720022 
L 471.175733 89.901571 
L 473.569748 88.083119 
L 475.963763 86.264668 
L 478.357778 84.446216 
L 480.751794 82.627765 
L 483.145809 80.809313 
L 485.539824 78.990862 
L 487.933839 77.172411 
L 490.327854 75.353959 
L 492.721869 73.535508 
L 495.115884 71.717056 
L 497.509899 69.898605 
L 499.903915 68.080153 
L 502.29793 66.261702 
L 504.691945 64.44325 
L 507.08596 62.624799 
L 509.479975 60.806347 
L 511.87399 58.987896 
L 514.268005 57.169444 
L 516.662021 55.350993 
L 519.056036 53.532541 
L 521.450051 51.71409 
L 523.844066 49.895638 
L 526.238081 48.077187 
L 528.632096 46.258735 
L 531.026111 44.440284 
L 533.420127 42.621833 
L 535.814142 40.803381 
L 538.208157 38.98493 
L 540.602172 37.166478 
L 542.996187 35.348027 
L 545.390202 33.529575 
L 547.784217 31.711124 
" style="fill:none;stroke:#6acc65;stroke-linecap:round;stroke-width:2.625;"/>
   </g>
   <g id="patch_6">
    <path d="M 310.776719 254.633594 
L 310.776719 21.073594 
" style="fill:none;stroke:#262626;stroke-linecap:square;stroke-linejoin:miter;stroke-width:1.25;"/>
   </g>
   <g id="patch_7">
    <path d="M 310.776719 254.633594 
L 547.784217 254.633594 
" style="fill:none;stroke:#262626;stroke-linecap:square;stroke-linejoin:miter;stroke-width:1.25;"/>
   </g>
   <g id="text_11">
    <!-- dataset = II -->
    <g style="fill:#262626;" transform="translate(401.916249 15.073594)scale(0.11 -0.11)">
     <use xlink:href="#ArialMT-64"/>
     <use x="55.615234" xlink:href="#ArialMT-61"/>
     <use x="111.230469" xlink:href="#ArialMT-74"/>
     <use x="139.013672" xlink:href="#ArialMT-61"/>
     <use x="194.628906" xlink:href="#ArialMT-73"/>
     <use x="244.628906" xlink:href="#ArialMT-65"/>
     <use x="300.244141" xlink:href="#ArialMT-74"/>
     <use x="328.027344" xlink:href="#ArialMT-20"/>
     <use x="355.810547" xlink:href="#ArialMT-3d"/>
     <use x="414.208984" xlink:href="#ArialMT-20"/>
     <use x="441.992188" xlink:href="#ArialMT-49"/>
     <use x="469.775391" xlink:href="#ArialMT-49"/>
    </g>
   </g>
  </g>
  <g id="axes_3">
   <g id="patch_8">
    <path d="M 45.381719 521.153594 
L 282.389217 521.153594 
L 282.389217 287.593594 
L 45.381719 287.593594 
z
" style="fill:#ffffff;"/>
   </g>
   <g id="matplotlib.axis_5">
    <g id="xtick_15">
     <g id="line2d_27">
      <g>
       <use style="fill:#262626;stroke:#262626;" x="73.487931" xlink:href="#m37d9927fcd" y="521.153594"/>
      </g>
     </g>
     <g id="text_12">
      <!-- 5.0 -->
      <defs>
       <path d="M 4.15625 18.75 
L 13.375 19.53125 
Q 14.40625 12.796875 18.140625 9.390625 
Q 21.875 6 27.15625 6 
Q 33.5 6 37.890625 10.78125 
Q 42.28125 15.578125 42.28125 23.484375 
Q 42.28125 31 38.0625 35.34375 
Q 33.84375 39.703125 27 39.703125 
Q 22.75 39.703125 19.328125 37.765625 
Q 15.921875 35.84375 13.96875 32.765625 
L 5.71875 33.84375 
L 12.640625 70.609375 
L 48.25 70.609375 
L 48.25 62.203125 
L 19.671875 62.203125 
L 15.828125 42.96875 
Q 22.265625 47.46875 29.34375 47.46875 
Q 38.71875 47.46875 45.15625 40.96875 
Q 51.609375 34.46875 51.609375 24.265625 
Q 51.609375 14.546875 45.953125 7.46875 
Q 39.0625 -1.21875 27.15625 -1.21875 
Q 17.390625 -1.21875 11.203125 4.25 
Q 5.03125 9.71875 4.15625 18.75 
z
" id="ArialMT-35"/>
       <path d="M 9.078125 0 
L 9.078125 10.015625 
L 19.09375 10.015625 
L 19.09375 0 
z
" id="ArialMT-2e"/>
      </defs>
      <g style="fill:#262626;" transform="translate(66.537931 541.311406)scale(0.1 -0.1)">
       <use xlink:href="#ArialMT-35"/>
       <use x="55.615234" xlink:href="#ArialMT-2e"/>
       <use x="83.398438" xlink:href="#ArialMT-30"/>
      </g>
     </g>
    </g>
    <g id="xtick_16">
     <g id="line2d_28">
      <g>
       <use style="fill:#262626;stroke:#262626;" x="108.262849" xlink:href="#m37d9927fcd" y="521.153594"/>
      </g>
     </g>
     <g id="text_13">
      <!-- 7.5 -->
      <defs>
       <path d="M 4.734375 62.203125 
L 4.734375 70.65625 
L 51.078125 70.65625 
L 51.078125 63.8125 
Q 44.234375 56.546875 37.515625 44.484375 
Q 30.8125 32.421875 27.15625 19.671875 
Q 24.515625 10.6875 23.78125 0 
L 14.75 0 
Q 14.890625 8.453125 18.0625 20.40625 
Q 21.234375 32.375 27.171875 43.484375 
Q 33.109375 54.59375 39.796875 62.203125 
z
" id="ArialMT-37"/>
      </defs>
      <g style="fill:#262626;" transform="translate(101.312849 541.311406)scale(0.1 -0.1)">
       <use xlink:href="#ArialMT-37"/>
       <use x="55.615234" xlink:href="#ArialMT-2e"/>
       <use x="83.398438" xlink:href="#ArialMT-35"/>
      </g>
     </g>
    </g>
    <g id="xtick_17">
     <g id="line2d_29">
      <g>
       <use style="fill:#262626;stroke:#262626;" x="143.037767" xlink:href="#m37d9927fcd" y="521.153594"/>
      </g>
     </g>
     <g id="text_14">
      <!-- 10.0 -->
      <g style="fill:#262626;" transform="translate(133.307299 541.311406)scale(0.1 -0.1)">
       <use xlink:href="#ArialMT-31"/>
       <use x="55.615234" xlink:href="#ArialMT-30"/>
       <use x="111.230469" xlink:href="#ArialMT-2e"/>
       <use x="139.013672" xlink:href="#ArialMT-30"/>
      </g>
     </g>
    </g>
    <g id="xtick_18">
     <g id="line2d_30">
      <g>
       <use style="fill:#262626;stroke:#262626;" x="177.812686" xlink:href="#m37d9927fcd" y="521.153594"/>
      </g>
     </g>
     <g id="text_15">
      <!-- 12.5 -->
      <g style="fill:#262626;" transform="translate(168.082217 541.311406)scale(0.1 -0.1)">
       <use xlink:href="#ArialMT-31"/>
       <use x="55.615234" xlink:href="#ArialMT-32"/>
       <use x="111.230469" xlink:href="#ArialMT-2e"/>
       <use x="139.013672" xlink:href="#ArialMT-35"/>
      </g>
     </g>
    </g>
    <g id="xtick_19">
     <g id="line2d_31">
      <g>
       <use style="fill:#262626;stroke:#262626;" x="212.587604" xlink:href="#m37d9927fcd" y="521.153594"/>
      </g>
     </g>
     <g id="text_16">
      <!-- 15.0 -->
      <g style="fill:#262626;" transform="translate(202.857136 541.311406)scale(0.1 -0.1)">
       <use xlink:href="#ArialMT-31"/>
       <use x="55.615234" xlink:href="#ArialMT-35"/>
       <use x="111.230469" xlink:href="#ArialMT-2e"/>
       <use x="139.013672" xlink:href="#ArialMT-30"/>
      </g>
     </g>
    </g>
    <g id="xtick_20">
     <g id="line2d_32">
      <g>
       <use style="fill:#262626;stroke:#262626;" x="247.362523" xlink:href="#m37d9927fcd" y="521.153594"/>
      </g>
     </g>
     <g id="text_17">
      <!-- 17.5 -->
      <g style="fill:#262626;" transform="translate(237.632054 541.311406)scale(0.1 -0.1)">
       <use xlink:href="#ArialMT-31"/>
       <use x="55.615234" xlink:href="#ArialMT-37"/>
       <use x="111.230469" xlink:href="#ArialMT-2e"/>
       <use x="139.013672" xlink:href="#ArialMT-35"/>
      </g>
     </g>
    </g>
    <g id="xtick_21">
     <g id="line2d_33">
      <g>
       <use style="fill:#262626;stroke:#262626;" x="282.137441" xlink:href="#m37d9927fcd" y="521.153594"/>
      </g>
     </g>
     <g id="text_18">
      <!-- 20.0 -->
      <g style="fill:#262626;" transform="translate(272.406972 541.311406)scale(0.1 -0.1)">
       <use xlink:href="#ArialMT-32"/>
       <use x="55.615234" xlink:href="#ArialMT-30"/>
       <use x="111.230469" xlink:href="#ArialMT-2e"/>
       <use x="139.013672" xlink:href="#ArialMT-30"/>
      </g>
     </g>
    </g>
    <g id="text_19">
     <!-- X -->
     <g style="fill:#262626;" transform="translate(160.216796 555.1725)scale(0.11 -0.11)">
      <use xlink:href="#ArialMT-58"/>
     </g>
    </g>
   </g>
   <g id="matplotlib.axis_6">
    <g id="ytick_11">
     <g id="line2d_34">
      <g>
       <use style="fill:#262626;stroke:#262626;" x="45.381719" xlink:href="#mb5ce7a750f" y="488.625344"/>
      </g>
     </g>
     <g id="text_20">
      <!-- 4 -->
      <g style="fill:#262626;" transform="translate(26.820781 492.20425)scale(0.1 -0.1)">
       <use xlink:href="#ArialMT-34"/>
      </g>
     </g>
    </g>
    <g id="ytick_12">
     <g id="line2d_35">
      <g>
       <use style="fill:#262626;stroke:#262626;" x="45.381719" xlink:href="#mb5ce7a750f" y="446.362285"/>
      </g>
     </g>
     <g id="text_21">
      <!-- 6 -->
      <g style="fill:#262626;" transform="translate(26.820781 449.941191)scale(0.1 -0.1)">
       <use xlink:href="#ArialMT-36"/>
      </g>
     </g>
    </g>
    <g id="ytick_13">
     <g id="line2d_36">
      <g>
       <use style="fill:#262626;stroke:#262626;" x="45.381719" xlink:href="#mb5ce7a750f" y="404.099226"/>
      </g>
     </g>
     <g id="text_22">
      <!-- 8 -->
      <g style="fill:#262626;" transform="translate(26.820781 407.678132)scale(0.1 -0.1)">
       <use xlink:href="#ArialMT-38"/>
      </g>
     </g>
    </g>
    <g id="ytick_14">
     <g id="line2d_37">
      <g>
       <use style="fill:#262626;stroke:#262626;" x="45.381719" xlink:href="#mb5ce7a750f" y="361.836167"/>
      </g>
     </g>
     <g id="text_23">
      <!-- 10 -->
      <g style="fill:#262626;" transform="translate(21.259844 365.415073)scale(0.1 -0.1)">
       <use xlink:href="#ArialMT-31"/>
       <use x="55.615234" xlink:href="#ArialMT-30"/>
      </g>
     </g>
    </g>
    <g id="ytick_15">
     <g id="line2d_38">
      <g>
       <use style="fill:#262626;stroke:#262626;" x="45.381719" xlink:href="#mb5ce7a750f" y="319.573108"/>
      </g>
     </g>
     <g id="text_24">
      <!-- 12 -->
      <g style="fill:#262626;" transform="translate(21.259844 323.152015)scale(0.1 -0.1)">
       <use xlink:href="#ArialMT-31"/>
       <use x="55.615234" xlink:href="#ArialMT-32"/>
      </g>
     </g>
    </g>
    <g id="text_25">
     <!-- Y -->
     <g style="fill:#262626;" transform="translate(15.073594 408.042266)rotate(-90)scale(0.11 -0.11)">
      <use xlink:href="#ArialMT-59"/>
     </g>
    </g>
   </g>
   <g id="PathCollection_3">
    <defs>
     <path d="M 0 3.535534 
C 0.937635 3.535534 1.836992 3.163008 2.5 2.5 
C 3.163008 1.836992 3.535534 0.937635 3.535534 0 
C 3.535534 -0.937635 3.163008 -1.836992 2.5 -2.5 
C 1.836992 -3.163008 0.937635 -3.535534 0 -3.535534 
C -0.937635 -3.535534 -1.836992 -3.163008 -2.5 -2.5 
C -3.163008 -1.836992 -3.535534 -0.937635 -3.535534 0 
C -3.535534 0.937635 -3.163008 1.836992 -2.5 2.5 
C -1.836992 3.163008 -0.937635 3.535534 0 3.535534 
z
" id="mb2912ce00e"/>
    </defs>
    <g clip-path="url(#p912d35381d)">
     <use style="fill:#d65f5f;" x="143.037767" xlink:href="#mb2912ce00e" y="415.510252"/>
     <use style="fill:#d65f5f;" x="115.217833" xlink:href="#mb2912ce00e" y="430.091007"/>
     <use style="fill:#d65f5f;" x="184.76767" xlink:href="#mb2912ce00e" y="303.935777"/>
     <use style="fill:#d65f5f;" x="129.1278" xlink:href="#mb2912ce00e" y="422.906287"/>
     <use style="fill:#d65f5f;" x="156.947735" xlink:href="#mb2912ce00e" y="408.114217"/>
     <use style="fill:#d65f5f;" x="198.677637" xlink:href="#mb2912ce00e" y="386.348741"/>
     <use style="fill:#d65f5f;" x="87.397898" xlink:href="#mb2912ce00e" y="444.671762"/>
     <use style="fill:#d65f5f;" x="59.577963" xlink:href="#mb2912ce00e" y="459.252518"/>
     <use style="fill:#d65f5f;" x="170.857702" xlink:href="#mb2912ce00e" y="400.929497"/>
     <use style="fill:#d65f5f;" x="101.307865" xlink:href="#mb2912ce00e" y="437.487042"/>
     <use style="fill:#d65f5f;" x="73.487931" xlink:href="#mb2912ce00e" y="452.067798"/>
    </g>
   </g>
   <g id="line2d_39">
    <path clip-path="url(#p912d35381d)" d="M 45.381719 478.242332 
L 47.775734 476.424873 
L 50.169749 474.607413 
L 52.563764 472.789954 
L 54.957779 470.972494 
L 57.351794 469.155035 
L 59.74581 467.337575 
L 62.139825 465.520115 
L 64.53384 463.702656 
L 66.927855 461.885196 
L 69.32187 460.067737 
L 71.715885 458.250277 
L 74.1099 456.432817 
L 76.503916 454.615358 
L 78.897931 452.797898 
L 81.291946 450.980439 
L 83.685961 449.162979 
L 86.079976 447.345519 
L 88.473991 445.52806 
L 90.868006 443.7106 
L 93.262022 441.893141 
L 95.656037 440.075681 
L 98.050052 438.258222 
L 100.444067 436.440762 
L 102.838082 434.623302 
L 105.232097 432.805843 
L 107.626112 430.988383 
L 110.020127 429.170924 
L 112.414143 427.353464 
L 114.808158 425.536004 
L 117.202173 423.718545 
L 119.596188 421.901085 
L 121.990203 420.083626 
L 124.384218 418.266166 
L 126.778233 416.448706 
L 129.172249 414.631247 
L 131.566264 412.813787 
L 133.960279 410.996328 
L 136.354294 409.178868 
L 138.748309 407.361408 
L 141.142324 405.543949 
L 143.536339 403.726489 
L 145.930355 401.90903 
L 148.32437 400.09157 
L 150.718385 398.274111 
L 153.1124 396.456651 
L 155.506415 394.639191 
L 157.90043 392.821732 
L 160.294445 391.004272 
L 162.68846 389.186813 
L 165.082476 387.369353 
L 167.476491 385.551893 
L 169.870506 383.734434 
L 172.264521 381.916974 
L 174.658536 380.099515 
L 177.052551 378.282055 
L 179.446566 376.464595 
L 181.840582 374.647136 
L 184.234597 372.829676 
L 186.628612 371.012217 
L 189.022627 369.194757 
L 191.416642 367.377297 
L 193.810657 365.559838 
L 196.204672 363.742378 
L 198.598688 361.924919 
L 200.992703 360.107459 
L 203.386718 358.29 
L 205.780733 356.47254 
L 208.174748 354.65508 
L 210.568763 352.837621 
L 212.962778 351.020161 
L 215.356794 349.202702 
L 217.750809 347.385242 
L 220.144824 345.567782 
L 222.538839 343.750323 
L 224.932854 341.932863 
L 227.326869 340.115404 
L 229.720884 338.297944 
L 232.114899 336.480484 
L 234.508915 334.663025 
L 236.90293 332.845565 
L 239.296945 331.028106 
L 241.69096 329.210646 
L 244.084975 327.393187 
L 246.47899 325.575727 
L 248.873005 323.758267 
L 251.267021 321.940808 
L 253.661036 320.123348 
L 256.055051 318.305889 
L 258.449066 316.488429 
L 260.843081 314.670969 
L 263.237096 312.85351 
L 265.631111 311.03605 
L 268.025127 309.218591 
L 270.419142 307.401131 
L 272.813157 305.583671 
L 275.207172 303.766212 
L 277.601187 301.948752 
L 279.995202 300.131293 
L 282.389217 298.313833 
" style="fill:none;stroke:#d65f5f;stroke-linecap:round;stroke-width:2.625;"/>
   </g>
   <g id="patch_9">
    <path d="M 45.381719 521.153594 
L 45.381719 287.593594 
" style="fill:none;stroke:#262626;stroke-linecap:square;stroke-linejoin:miter;stroke-width:1.25;"/>
   </g>
   <g id="patch_10">
    <path d="M 45.381719 521.153594 
L 282.389217 521.153594 
" style="fill:none;stroke:#262626;stroke-linecap:square;stroke-linejoin:miter;stroke-width:1.25;"/>
   </g>
   <g id="text_26">
    <!-- dataset = III -->
    <g style="fill:#262626;" transform="translate(134.993281 281.593594)scale(0.11 -0.11)">
     <use xlink:href="#ArialMT-64"/>
     <use x="55.615234" xlink:href="#ArialMT-61"/>
     <use x="111.230469" xlink:href="#ArialMT-74"/>
     <use x="139.013672" xlink:href="#ArialMT-61"/>
     <use x="194.628906" xlink:href="#ArialMT-73"/>
     <use x="244.628906" xlink:href="#ArialMT-65"/>
     <use x="300.244141" xlink:href="#ArialMT-74"/>
     <use x="328.027344" xlink:href="#ArialMT-20"/>
     <use x="355.810547" xlink:href="#ArialMT-3d"/>
     <use x="414.208984" xlink:href="#ArialMT-20"/>
     <use x="441.992188" xlink:href="#ArialMT-49"/>
     <use x="469.775391" xlink:href="#ArialMT-49"/>
     <use x="497.558594" xlink:href="#ArialMT-49"/>
    </g>
   </g>
  </g>
  <g id="axes_4">
   <g id="patch_11">
    <path d="M 310.776719 521.153594 
L 547.784217 521.153594 
L 547.784217 287.593594 
L 310.776719 287.593594 
z
" style="fill:#ffffff;"/>
   </g>
   <g id="matplotlib.axis_7">
    <g id="xtick_22">
     <g id="line2d_40">
      <g>
       <use style="fill:#262626;stroke:#262626;" x="338.882931" xlink:href="#m37d9927fcd" y="521.153594"/>
      </g>
     </g>
     <g id="text_27">
      <!-- 5.0 -->
      <g style="fill:#262626;" transform="translate(331.932931 541.311406)scale(0.1 -0.1)">
       <use xlink:href="#ArialMT-35"/>
       <use x="55.615234" xlink:href="#ArialMT-2e"/>
       <use x="83.398438" xlink:href="#ArialMT-30"/>
      </g>
     </g>
    </g>
    <g id="xtick_23">
     <g id="line2d_41">
      <g>
       <use style="fill:#262626;stroke:#262626;" x="373.657849" xlink:href="#m37d9927fcd" y="521.153594"/>
      </g>
     </g>
     <g id="text_28">
      <!-- 7.5 -->
      <g style="fill:#262626;" transform="translate(366.707849 541.311406)scale(0.1 -0.1)">
       <use xlink:href="#ArialMT-37"/>
       <use x="55.615234" xlink:href="#ArialMT-2e"/>
       <use x="83.398438" xlink:href="#ArialMT-35"/>
      </g>
     </g>
    </g>
    <g id="xtick_24">
     <g id="line2d_42">
      <g>
       <use style="fill:#262626;stroke:#262626;" x="408.432767" xlink:href="#m37d9927fcd" y="521.153594"/>
      </g>
     </g>
     <g id="text_29">
      <!-- 10.0 -->
      <g style="fill:#262626;" transform="translate(398.702299 541.311406)scale(0.1 -0.1)">
       <use xlink:href="#ArialMT-31"/>
       <use x="55.615234" xlink:href="#ArialMT-30"/>
       <use x="111.230469" xlink:href="#ArialMT-2e"/>
       <use x="139.013672" xlink:href="#ArialMT-30"/>
      </g>
     </g>
    </g>
    <g id="xtick_25">
     <g id="line2d_43">
      <g>
       <use style="fill:#262626;stroke:#262626;" x="443.207686" xlink:href="#m37d9927fcd" y="521.153594"/>
      </g>
     </g>
     <g id="text_30">
      <!-- 12.5 -->
      <g style="fill:#262626;" transform="translate(433.477217 541.311406)scale(0.1 -0.1)">
       <use xlink:href="#ArialMT-31"/>
       <use x="55.615234" xlink:href="#ArialMT-32"/>
       <use x="111.230469" xlink:href="#ArialMT-2e"/>
       <use x="139.013672" xlink:href="#ArialMT-35"/>
      </g>
     </g>
    </g>
    <g id="xtick_26">
     <g id="line2d_44">
      <g>
       <use style="fill:#262626;stroke:#262626;" x="477.982604" xlink:href="#m37d9927fcd" y="521.153594"/>
      </g>
     </g>
     <g id="text_31">
      <!-- 15.0 -->
      <g style="fill:#262626;" transform="translate(468.252136 541.311406)scale(0.1 -0.1)">
       <use xlink:href="#ArialMT-31"/>
       <use x="55.615234" xlink:href="#ArialMT-35"/>
       <use x="111.230469" xlink:href="#ArialMT-2e"/>
       <use x="139.013672" xlink:href="#ArialMT-30"/>
      </g>
     </g>
    </g>
    <g id="xtick_27">
     <g id="line2d_45">
      <g>
       <use style="fill:#262626;stroke:#262626;" x="512.757523" xlink:href="#m37d9927fcd" y="521.153594"/>
      </g>
     </g>
     <g id="text_32">
      <!-- 17.5 -->
      <g style="fill:#262626;" transform="translate(503.027054 541.311406)scale(0.1 -0.1)">
       <use xlink:href="#ArialMT-31"/>
       <use x="55.615234" xlink:href="#ArialMT-37"/>
       <use x="111.230469" xlink:href="#ArialMT-2e"/>
       <use x="139.013672" xlink:href="#ArialMT-35"/>
      </g>
     </g>
    </g>
    <g id="xtick_28">
     <g id="line2d_46">
      <g>
       <use style="fill:#262626;stroke:#262626;" x="547.532441" xlink:href="#m37d9927fcd" y="521.153594"/>
      </g>
     </g>
     <g id="text_33">
      <!-- 20.0 -->
      <g style="fill:#262626;" transform="translate(537.801972 541.311406)scale(0.1 -0.1)">
       <use xlink:href="#ArialMT-32"/>
       <use x="55.615234" xlink:href="#ArialMT-30"/>
       <use x="111.230469" xlink:href="#ArialMT-2e"/>
       <use x="139.013672" xlink:href="#ArialMT-30"/>
      </g>
     </g>
    </g>
    <g id="text_34">
     <!-- X -->
     <g style="fill:#262626;" transform="translate(425.611796 555.1725)scale(0.11 -0.11)">
      <use xlink:href="#ArialMT-58"/>
     </g>
    </g>
   </g>
   <g id="matplotlib.axis_8">
    <g id="ytick_16">
     <g id="line2d_47">
      <g>
       <use style="fill:#262626;stroke:#262626;" x="310.776719" xlink:href="#mb5ce7a750f" y="488.625344"/>
      </g>
     </g>
    </g>
    <g id="ytick_17">
     <g id="line2d_48">
      <g>
       <use style="fill:#262626;stroke:#262626;" x="310.776719" xlink:href="#mb5ce7a750f" y="446.362285"/>
      </g>
     </g>
    </g>
    <g id="ytick_18">
     <g id="line2d_49">
      <g>
       <use style="fill:#262626;stroke:#262626;" x="310.776719" xlink:href="#mb5ce7a750f" y="404.099226"/>
      </g>
     </g>
    </g>
    <g id="ytick_19">
     <g id="line2d_50">
      <g>
       <use style="fill:#262626;stroke:#262626;" x="310.776719" xlink:href="#mb5ce7a750f" y="361.836167"/>
      </g>
     </g>
    </g>
    <g id="ytick_20">
     <g id="line2d_51">
      <g>
       <use style="fill:#262626;stroke:#262626;" x="310.776719" xlink:href="#mb5ce7a750f" y="319.573108"/>
      </g>
     </g>
    </g>
    <g id="text_35">
     <!-- Y -->
     <g style="fill:#262626;" transform="translate(304.590469 408.042266)rotate(-90)scale(0.11 -0.11)">
      <use xlink:href="#ArialMT-59"/>
     </g>
    </g>
   </g>
   <g id="PathCollection_4">
    <defs>
     <path d="M 0 3.535534 
C 0.937635 3.535534 1.836992 3.163008 2.5 2.5 
C 3.163008 1.836992 3.535534 0.937635 3.535534 0 
C 3.535534 -0.937635 3.163008 -1.836992 2.5 -2.5 
C 1.836992 -3.163008 0.937635 -3.535534 0 -3.535534 
C -0.937635 -3.535534 -1.836992 -3.163008 -2.5 -2.5 
C -3.163008 -1.836992 -3.535534 -0.937635 -3.535534 0 
C -3.535534 0.937635 -3.163008 1.836992 -2.5 2.5 
C -1.836992 3.163008 -0.937635 3.535534 0 3.535534 
z
" id="me6475cecf1"/>
    </defs>
    <g clip-path="url(#p26dd7585ae)">
     <use style="fill:#b47cc7;" x="380.612833" xlink:href="#me6475cecf1" y="434.105998"/>
     <use style="fill:#b47cc7;" x="380.612833" xlink:href="#me6475cecf1" y="451.433852"/>
     <use style="fill:#b47cc7;" x="380.612833" xlink:href="#me6475cecf1" y="410.22737"/>
     <use style="fill:#b47cc7;" x="380.612833" xlink:href="#me6475cecf1" y="386.348741"/>
     <use style="fill:#b47cc7;" x="380.612833" xlink:href="#me6475cecf1" y="394.167407"/>
     <use style="fill:#b47cc7;" x="380.612833" xlink:href="#me6475cecf1" y="424.385494"/>
     <use style="fill:#b47cc7;" x="380.612833" xlink:href="#me6475cecf1" y="462.210932"/>
     <use style="fill:#b47cc7;" x="533.622474" xlink:href="#me6475cecf1" y="309.007344"/>
     <use style="fill:#b47cc7;" x="380.612833" xlink:href="#me6475cecf1" y="455.660158"/>
     <use style="fill:#b47cc7;" x="380.612833" xlink:href="#me6475cecf1" y="406.001064"/>
     <use style="fill:#b47cc7;" x="380.612833" xlink:href="#me6475cecf1" y="427.555224"/>
    </g>
   </g>
   <g id="line2d_52">
    <path clip-path="url(#p26dd7585ae)" d="M 310.776719 478.246254 
L 313.170734 476.428133 
L 315.564749 474.610012 
L 317.958764 472.791891 
L 320.352779 470.97377 
L 322.746794 469.155649 
L 325.14081 467.337529 
L 327.534825 465.519408 
L 329.92884 463.701287 
L 332.322855 461.883166 
L 334.71687 460.065045 
L 337.110885 458.246924 
L 339.5049 456.428804 
L 341.898916 454.610683 
L 344.292931 452.792562 
L 346.686946 450.974441 
L 349.080961 449.15632 
L 351.474976 447.338199 
L 353.868991 445.520078 
L 356.263006 443.701958 
L 358.657022 441.883837 
L 361.051037 440.065716 
L 363.445052 438.247595 
L 365.839067 436.429474 
L 368.233082 434.611353 
L 370.627097 432.793233 
L 373.021112 430.975112 
L 375.415127 429.156991 
L 377.809143 427.33887 
L 380.203158 425.520749 
L 382.597173 423.702628 
L 384.991188 421.884507 
L 387.385203 420.066387 
L 389.779218 418.248266 
L 392.173233 416.430145 
L 394.567249 414.612024 
L 396.961264 412.793903 
L 399.355279 410.975782 
L 401.749294 409.157662 
L 404.143309 407.339541 
L 406.537324 405.52142 
L 408.931339 403.703299 
L 411.325355 401.885178 
L 413.71937 400.067057 
L 416.113385 398.248936 
L 418.5074 396.430816 
L 420.901415 394.612695 
L 423.29543 392.794574 
L 425.689445 390.976453 
L 428.08346 389.158332 
L 430.477476 387.340211 
L 432.871491 385.522091 
L 435.265506 383.70397 
L 437.659521 381.885849 
L 440.053536 380.067728 
L 442.447551 378.249607 
L 444.841566 376.431486 
L 447.235582 374.613365 
L 449.629597 372.795245 
L 452.023612 370.977124 
L 454.417627 369.159003 
L 456.811642 367.340882 
L 459.205657 365.522761 
L 461.599672 363.70464 
L 463.993688 361.88652 
L 466.387703 360.068399 
L 468.781718 358.250278 
L 471.175733 356.432157 
L 473.569748 354.614036 
L 475.963763 352.795915 
L 478.357778 350.977795 
L 480.751794 349.159674 
L 483.145809 347.341553 
L 485.539824 345.523432 
L 487.933839 343.705311 
L 490.327854 341.88719 
L 492.721869 340.069069 
L 495.115884 338.250949 
L 497.509899 336.432828 
L 499.903915 334.614707 
L 502.29793 332.796586 
L 504.691945 330.978465 
L 507.08596 329.160344 
L 509.479975 327.342224 
L 511.87399 325.524103 
L 514.268005 323.705982 
L 516.662021 321.887861 
L 519.056036 320.06974 
L 521.450051 318.251619 
L 523.844066 316.433498 
L 526.238081 314.615378 
L 528.632096 312.797257 
L 531.026111 310.979136 
L 533.420127 309.161015 
L 535.814142 307.342894 
L 538.208157 305.524773 
L 540.602172 303.706653 
L 542.996187 301.888532 
L 545.390202 300.070411 
L 547.784217 298.25229 
" style="fill:none;stroke:#b47cc7;stroke-linecap:round;stroke-width:2.625;"/>
   </g>
   <g id="patch_12">
    <path d="M 310.776719 521.153594 
L 310.776719 287.593594 
" style="fill:none;stroke:#262626;stroke-linecap:square;stroke-linejoin:miter;stroke-width:1.25;"/>
   </g>
   <g id="patch_13">
    <path d="M 310.776719 521.153594 
L 547.784217 521.153594 
" style="fill:none;stroke:#262626;stroke-linecap:square;stroke-linejoin:miter;stroke-width:1.25;"/>
   </g>
   <g id="text_36">
    <!-- dataset = IV -->
    <defs>
     <path d="M 28.171875 0 
L 0.4375 71.578125 
L 10.6875 71.578125 
L 29.296875 19.578125 
Q 31.546875 13.328125 33.0625 7.859375 
Q 34.71875 13.71875 36.921875 19.578125 
L 56.25 71.578125 
L 65.921875 71.578125 
L 37.890625 0 
z
" id="ArialMT-56"/>
    </defs>
    <g style="fill:#262626;" transform="translate(399.775546 281.593594)scale(0.11 -0.11)">
     <use xlink:href="#ArialMT-64"/>
     <use x="55.615234" xlink:href="#ArialMT-61"/>
     <use x="111.230469" xlink:href="#ArialMT-74"/>
     <use x="139.013672" xlink:href="#ArialMT-61"/>
     <use x="194.628906" xlink:href="#ArialMT-73"/>
     <use x="244.628906" xlink:href="#ArialMT-65"/>
     <use x="300.244141" xlink:href="#ArialMT-74"/>
     <use x="328.027344" xlink:href="#ArialMT-20"/>
     <use x="355.810547" xlink:href="#ArialMT-3d"/>
     <use x="414.208984" xlink:href="#ArialMT-20"/>
     <use x="441.992188" xlink:href="#ArialMT-49"/>
     <use x="469.775391" xlink:href="#ArialMT-56"/>
    </g>
   </g>
  </g>
 </g>
 <defs>
  <clipPath id="p9739e10cdf">
   <rect height="233.56" width="237.007499" x="45.381719" y="21.073594"/>
  </clipPath>
  <clipPath id="pa7045c726b">
   <rect height="233.56" width="237.007499" x="310.776719" y="21.073594"/>
  </clipPath>
  <clipPath id="p912d35381d">
   <rect height="233.56" width="237.007499" x="45.381719" y="287.593594"/>
  </clipPath>
  <clipPath id="p26dd7585ae">
   <rect height="233.56" width="237.007499" x="310.776719" y="287.593594"/>
  </clipPath>
 </defs>
</svg>
